<svg version="1.1" xmlns="http://www.w3.org/2000/svg" xmlns:xlink="http://www.w3.org/1999/xlink" width="582" height="393" viewBox="0,0,582,393"><g transform="translate(42.5,12.7)"><g data-paper-data="{&quot;isPaintingLayer&quot;:true}" fill-rule="nonzero" stroke="none" stroke-linecap="butt" stroke-linejoin="miter" stroke-miterlimit="10" stroke-dasharray="" stroke-dashoffset="0" style="mix-blend-mode: normal"><path d="M-42.5,380.3v-393h582v393z" fill="#923434" stroke-width="0"/><path d="M107.5,282.3v-229h260v229z" fill="#ff0000" stroke-width="0"/><path d="M360.5,279.8c2.5,0 2.5,2.5 2.5,2.5v3c0,5.80124 0.36879,10.91411 1.26031,16.64793c0.48476,3.11777 1.89262,7.71928 -1.29218,10.37558c-1.11047,0.92619 -2.88296,0.25618 -4.31108,0.48296c-1.64861,0.26178 -3.24936,0.81886 -4.9107,0.98137c-8.23218,0.80525 -16.98567,0.01217 -25.24634,0.01217c-10.56703,0 -21.26404,0.42878 -31.85801,0.18102c-0.19463,1.58732 -0.4082,3.16433 -0.67427,4.71943c-0.35553,2.07799 -1.74182,3.90768 -2,6c-0.21735,1.76149 0.3543,3.60186 -0.07499,5.324c-0.2907,1.16616 -1.59414,1.86875 -2,3c-0.63898,1.78101 0.40422,3.81269 0.07499,5.676c-0.89069,5.04095 -3.69875,7.36653 -7.74326,9.99227c-4.57598,0.08575 -9.1477,0.1347 -13.72446,0.10727c-1.50912,-0.00904 -3.0467,-0.33764 -4.52723,-0.04511c-1.62433,0.32094 -2.98789,1.51679 -4.60966,1.85043c-1.6943,0.34856 -3.46989,-0.04631 -5.18672,0.16491c-3.2194,0.39608 -6.43272,1.01985 -9.67638,1.02977h-1c0,0 -2.5,0 -2.5,-2.5c0,-2.5 2.5,-2.5 2.5,-2.5h1c3.03211,0.01039 6.03232,-0.6245 9.04241,-0.98942c1.59194,-0.19299 3.23947,0.2234 4.80971,-0.10199c1.6427,-0.34041 3.02641,-1.5534 4.6751,-1.86348c5.3895,-1.01365 12.28977,-0.07479 17.74831,0.06216c2.16035,-1.51816 3.8345,-3.2326 4.25674,-6.00773c0.32088,-2.10896 -0.58549,-4.21636 0.07499,-6.324c0.35939,-1.14686 1.70765,-1.83425 2,-3c0.3792,-1.51204 -0.27075,-3.12947 -0.07499,-4.676c0.26475,-2.0915 1.66396,-3.91877 2,-6c0.2182,-1.35141 0.40372,-2.71767 0.57568,-4.09197c-0.08778,-0.00408 -0.17555,-0.00821 -0.26331,-0.01241c-7.39114,-0.35335 -14.65491,-2.4779 -22.02188,-3.00146c-5.9833,-0.42522 -12.12569,0.59375 -18.09557,-0.00864c-4.42709,-0.44671 -8.20756,-2.00317 -12.72721,-1.98507c-7.16902,0 -14.04375,-0.56202 -21.15534,-1.00483c-5.98436,-0.37263 -11.74333,0.53515 -17.66743,0.99854c-2.94825,0.23062 -5.93316,-0.34409 -8.87176,-0.01244c-1.3657,0.15413 -2.63894,0.80921 -4,1c-3.93362,0.55141 -8.17238,-0.045 -12.13818,0.30214c-9.09068,0.79575 -18.01752,2.70801 -27.16728,2.71659c-5.34947,0 -10.67448,0.32982 -15.99841,0.61782c-0.19121,2.64958 -0.34816,5.31028 -0.50225,7.93962c-0.08059,1.37522 0.35774,2.90916 -0.29515,4.1222c-0.56961,1.0583 -2.30563,1.01903 -3,2c-0.35517,0.50176 0.26263,1.20651 0.29581,1.82036c0.05947,1.10023 0.13462,2.21434 -0.01873,3.30546c-0.43879,3.12203 -1.17862,6.20305 -2.0444,9.23456c-0.40947,1.43375 -0.50268,3.1783 -1.61472,4.17163c-1.61564,1.44318 -3.9727,1.72911 -5.95905,2.59367c-2.85034,0.09636 -5.7296,-0.21929 -8.55411,0.17551c-4.52685,0.63275 -8.72754,1.97568 -13.309,2.01917l-0.88197,0.73607c0,0 -2.23607,1.11803 -3.3541,-1.11803c-1.11803,-2.23607 1.11803,-3.3541 1.11803,-3.3541l3.11803,-1.26393c4.29159,0.05329 8.42855,-1.40636 12.691,-1.98083c2.69625,-0.36339 5.44095,-0.06128 8.16113,-0.11058c1.10857,-0.37341 2.42918,-0.36884 3.32572,-1.12024c0.52795,-0.44248 0.28754,-1.34739 0.42412,-2.02257c0.58049,-2.86952 1.49506,-5.67413 1.91677,-8.57124c0.26299,-1.80672 -0.53531,-5.35095 0.27708,-6.87419c0.56558,-1.06046 2.31243,-1.01426 3,-2c0.36249,-0.51969 -0.28595,-1.24425 -0.29515,-1.8778c-0.02116,-1.45708 0.04603,-2.91833 0.20448,-4.36693c0.11687,-1.06847 0.2097,-2.13923 0.29316,-3.21089c-5.06085,0.21415 -10.12732,0.28541 -15.2195,-0.10513c-1.88214,-0.14435 -10.54387,-0.64517 -11.61843,-1.56674c-1.90935,-1.63751 0.12262,-8.53292 0.36922,-10.07641c0.53466,-3.34654 0.40236,-5.61628 1.01052,-9.06254c0.83049,-4.70609 2.30849,-9.14721 2.98501,-13.90747c0,0 0.35355,-2.47487 2.82843,-2.12132c2.47487,0.35355 2.12132,2.82843 2.12132,2.82843c-0.6918,4.81895 -2.17641,9.33049 -3.01499,14.09253c-0.12869,0.73076 -0.82319,7.89835 -0.98948,8.93746c-0.2565,1.60289 -0.53307,3.20844 -0.96394,4.7735c-0.11762,0.42725 -1.09415,1.03268 -0.66685,1.15009c1.08102,0.29704 2.21632,-0.41187 3.33739,-0.41629c1.66665,-0.00657 3.32354,0.25527 4.98527,0.38348c5.08851,0.39261 10.1529,0.31282 15.2124,0.09074c0.04787,-0.57125 0.09956,-1.14215 0.15729,-1.71248c0.56721,-5.60338 1.59885,-12.38676 3.21932,-17.73791c0.4696,-1.55072 1.41858,-2.93747 1.81994,-4.50724c0.77825,-3.04383 1.07237,-6.21457 2.05705,-9.19802c0,0 0.79057,-2.37171 3.16228,-1.58114c2.37171,0.79057 1.58114,3.16228 1.58114,3.16228c-0.95957,2.84728 -1.19836,5.89108 -1.94295,8.80198c-0.42453,1.65965 -1.39312,3.13929 -1.89397,4.77753c-1.54142,5.04191 -2.4999,11.50285 -3.02794,16.78313c-0.03179,0.31794 -0.06273,0.63652 -0.09286,0.95566c5.18685,-0.28727 10.37528,-0.60887 15.586,-0.60887c8.99442,0.00897 17.79367,-1.9185 26.73221,-2.69762c3.88486,-0.33862 8.11311,0.27736 11.96233,-0.28364c1.36,-0.19821 2.63379,-0.85043 4,-1c4.39402,-0.48104 5.11183,0.30823 9.12824,-0.01244c6.14377,-0.49052 12.12659,-1.38778 18.33257,-1.00146c7.01551,0.43671 13.77167,0.99517 20.84466,0.99517c4.6987,0.01642 8.6908,1.55772 13.27279,2.01493c5.9001,0.58873 11.987,-0.42918 17.90443,-0.00864c7.35176,0.52247 14.60469,2.65459 21.97812,2.99854c0.18232,0.0085 0.36467,0.01675 0.54707,0.02475c0.24425,-2.02402 0.50866,-4.0477 0.85305,-6.04971c0.427,-2.48222 1.6369,-6.25577 1.00955,-8.91342c-0.34416,-1.45798 -1.64578,-2.57101 -1.99218,-4.02846c-0.78467,-3.30141 -0.4773,-6.7804 -1.03882,-10.127c0,0 -0.411,-2.46598 2.05499,-2.87698c2.46598,-0.411 2.87698,2.05499 2.87698,2.05499c0.53252,3.21542 0.18696,6.56364 0.95618,9.73078c0.3603,1.48347 1.7018,2.61919 2.01282,4.11377c0.85945,4.13007 -0.27575,6.94816 -0.95161,10.89238c-0.30417,1.77511 -0.54017,3.56903 -0.75582,5.36523c10.40158,0.22226 20.8988,-0.19117 31.27245,-0.19117c6.66664,0 13.33337,-0.01046 20,0c3.23238,0.00507 6.42642,-0.71297 9.64876,-0.96763c0.64292,-0.05081 1.28569,0.68705 1.88311,0.44412c0.37091,-0.15082 0.02902,-0.80384 -0.02177,-1.201c-0.39895,-3.11977 -1.15411,-6.18561 -1.59536,-9.29967c-0.58786,-4.14868 -0.41474,-8.30044 -0.41474,-12.47581v-3c0,0 0,-2.5 2.5,-2.5z" fill="#000000" stroke-width="0.5"/><path d="M154.5,187.3v-77h153v77z" fill="#ffffff" stroke-width="0"/><path d="M176.25321,163.07008c-1.38675,-2.08013 0.69338,-3.46688 0.69338,-3.46688l0.94628,0.20447c0.66482,-2.91814 0.58079,-5.32677 0.61096,-8.31942c0.00607,-0.60259 0.38585,-1.30921 0.0466,-1.80726c-0.38856,-0.57045 -1.25028,-0.58511 -1.87542,-0.87766c0,0 -2.12,-1.325 -0.795,-3.44499c1.325,-2.12 3.44499,-0.795 3.44499,-0.795c1.15264,0.81856 2.70658,1.25813 3.45791,2.45568c2.03532,3.24408 0.75059,10.38119 -0.00911,13.87331l-3.05372,2.87113c0,0 -2.08013,1.38675 -3.46688,-0.69338z" fill="#000000" stroke-width="0.5"/><path d="M216.82945,160.7838c-1.60046,-1.92055 0.32009,-3.52101 0.32009,-3.52101l2.17456,-1.7996c1.40694,-0.81016 3.13742,-1.17428 4.27643,-2.33122c1.13207,-1.14989 0.67179,-3.02597 1.09007,-4.33976c0.3442,-1.0811 0.99333,-2.04016 1.49,-3.06024c0,0 1.11803,-2.23607 3.3541,-1.11803c2.23607,1.11803 1.11803,3.3541 1.11803,3.3541c-1.47812,2.85543 -1.16598,6.05274 -3.41993,8.6c-0.30498,0.34467 -4.30894,2.57857 -5.0569,3.00212l-1.82544,1.53373c0,0 -1.92055,1.60046 -3.52101,-0.32009z" fill="#000000" stroke-width="0.5"/><path d="M199.41667,127.01667c2.5,0 2.5,2.5 2.5,2.5l-0.07464,0.93967c-1.55422,6.21051 -5.66863,16.29008 -13.42536,16.56033c-5.23292,0.18232 -11.66619,-3.86731 -16.45724,-5.46163c0,0 -2.37171,-0.79057 -1.58114,-3.16228c0.79057,-2.37171 3.16228,-1.58114 3.16228,-1.58114c4.32571,1.44424 8.42394,3.44853 12.81577,4.61302c1.044,0.27682 2.38983,1.06812 3.49525,0.24986c1.8474,-1.36749 4.62128,-4.87138 5.66665,-6.95109c0.27036,-0.53787 1.29916,-4.78335 1.47308,-5.47975l-0.07464,0.27301c0,0 0,-2.5 2.5,-2.5z" fill="#000000" stroke-width="0.5"/><path d="M233.48118,146.98953c-0.3062,2.48118 -2.78737,2.17498 -2.78737,2.17498l-2.5037,-0.30943c-4.81233,-0.68713 -12.64171,-0.31403 -15.95935,-4.78996c-1.25145,-1.68837 -1.13059,-4.06449 -1.38669,-6.15043c-0.42166,-3.4344 -0.01073,-7.39343 -0.01073,-10.89802c0,0 0,-2.5 2.5,-2.5c2.5,0 2.5,2.5 2.5,2.5c0,3.4529 -0.19217,6.99481 -0.01073,10.43531c0.06507,1.23378 -0.24915,2.66393 0.45619,3.67829c0.66234,0.95252 2.02217,1.19443 3.14227,1.49671c3.07712,0.8304 6.32057,0.8278 9.47577,1.2783l2.40935,0.29688c0,0 2.48118,0.3062 2.17498,2.78737z" fill="#000000" stroke-width="0.5"/><text transform="translate(139,62.60001) scale(0.5,0.5)" font-size="40" xml:space="preserve" fill="#000000" fill-rule="nonzero" stroke="none" stroke-width="1" stroke-linecap="butt" stroke-linejoin="miter" stroke-miterlimit="10" stroke-dasharray="" stroke-dashoffset="0" font-family="Sans Serif" font-weight="normal" text-anchor="start" style="mix-blend-mode: normal"><tspan x="0" dy="0">(Whos That?)</tspan></text></g></g></svg>