<svg version="1.1" xmlns="http://www.w3.org/2000/svg" xmlns:xlink="http://www.w3.org/1999/xlink" width="582" height="394.3" viewBox="0,0,582,394.3"><g transform="translate(33.5,18.7)"><g data-paper-data="{&quot;isPaintingLayer&quot;:true}" fill-rule="nonzero" stroke="none" stroke-linecap="butt" stroke-linejoin="miter" stroke-miterlimit="10" stroke-dasharray="" stroke-dashoffset="0" style="mix-blend-mode: normal"><path d="M-33.5,374.30001v-393h582v393z" fill="#923434" stroke-width="0"/><path d="M106.5,282.30001v-229h260v229z" fill="#ff0000" stroke-width="0"/><path d="M154.5,187.30001v-77h153v77z" fill="#ffffff" stroke-width="0"/><path d="M176.25321,163.07009c-1.38675,-2.08013 0.69338,-3.46688 0.69338,-3.46688l0.94628,0.20447c0.66482,-2.91814 0.58079,-5.32677 0.61096,-8.31942c0.00607,-0.60259 0.38585,-1.30921 0.0466,-1.80726c-0.38856,-0.57045 -1.25028,-0.58511 -1.87542,-0.87766c0,0 -2.12,-1.325 -0.795,-3.44499c1.325,-2.12 3.44499,-0.795 3.44499,-0.795c1.15264,0.81856 2.70658,1.25813 3.45791,2.45568c2.03532,3.24408 0.75059,10.38119 -0.00911,13.87331l-3.05372,2.87113c0,0 -2.08013,1.38675 -3.46688,-0.69338z" fill="#000000" stroke-width="0.5"/><path d="M216.82945,160.78381c-1.60046,-1.92055 0.32009,-3.52101 0.32009,-3.52101l2.17456,-1.7996c1.40694,-0.81016 3.13742,-1.17428 4.27643,-2.33122c1.13207,-1.14989 0.67179,-3.02597 1.09007,-4.33976c0.3442,-1.0811 0.99333,-2.04016 1.49,-3.06024c0,0 1.11803,-2.23607 3.3541,-1.11803c2.23607,1.11803 1.11803,3.3541 1.11803,3.3541c-1.47812,2.85543 -1.16598,6.05274 -3.41993,8.6c-0.30498,0.34467 -4.30894,2.57857 -5.0569,3.00212l-1.82544,1.53373c0,0 -1.92055,1.60046 -3.52101,-0.32009z" fill="#000000" stroke-width="0.5"/><path d="M199.41667,127.01668c2.5,0 2.5,2.5 2.5,2.5l-0.07464,0.93967c-1.55422,6.21051 -5.66863,16.29008 -13.42536,16.56033c-5.23292,0.18232 -11.66619,-3.86731 -16.45724,-5.46163c0,0 -2.37171,-0.79057 -1.58114,-3.16228c0.79057,-2.37171 3.16228,-1.58114 3.16228,-1.58114c4.32571,1.44424 8.42394,3.44853 12.81577,4.61302c1.044,0.27682 2.38983,1.06812 3.49525,0.24986c1.8474,-1.36749 4.62128,-4.87138 5.66665,-6.95109c0.27036,-0.53787 1.29916,-4.78335 1.47308,-5.47975l-0.07464,0.27301c0,0 0,-2.5 2.5,-2.5z" fill="#000000" stroke-width="0.5"/><path d="M233.48118,146.98953c-0.3062,2.48118 -2.78737,2.17498 -2.78737,2.17498l-2.5037,-0.30943c-4.81233,-0.68713 -12.64171,-0.31403 -15.95935,-4.78996c-1.25145,-1.68837 -1.13059,-4.06449 -1.38669,-6.15043c-0.42166,-3.4344 -0.01073,-7.39343 -0.01073,-10.89802c0,0 0,-2.5 2.5,-2.5c2.5,0 2.5,2.5 2.5,2.5c0,3.4529 -0.19217,6.99481 -0.01073,10.43531c0.06507,1.23378 -0.24915,2.66393 0.45619,3.67829c0.66234,0.95252 2.02217,1.19443 3.14227,1.49671c3.07712,0.8304 6.32057,0.8278 9.47577,1.2783l2.40935,0.29688c0,0 2.48118,0.3062 2.17498,2.78737z" fill="#000000" stroke-width="0.5"/><path d="M231,372.60002c-2.5,0 -2.5,-2.5 -2.5,-2.5l0.01873,-4.30546c1.29497,-5.17987 0.69305,-10.2111 1.59629,-15.46209c1.70449,-9.90902 2.69687,-19.51011 3.49673,-29.52165c0.32187,-4.02865 0.78097,-8.04175 1.16588,-12.05838c-5.84888,-0.14462 -11.56016,-0.59159 -17.43298,-0.95727c-2.98821,-0.18607 -5.92022,-0.05288 -8.84466,0.18481c0,20.70668 0,41.41335 0,62.12003v3c0,0 0,2.5 -2.5,2.5c-2.5,0 -2.5,-2.5 -2.5,-2.5c0,-20.68893 0,-43.13932 0,-64.6517c-1.26917,0.12428 -2.54211,0.24523 -3.82277,0.3454c-2.94825,0.23062 -5.93316,-0.34409 -8.87176,-0.01244c-1.3657,0.15413 -2.63894,0.80921 -4,1c-3.93362,0.55141 -8.17238,-0.045 -12.13818,0.30214c-9.09068,0.79575 -18.01752,2.70801 -27.16728,2.71659c-5.34947,0 -10.67448,0.32982 -15.99841,0.61782c-0.19121,2.64958 -0.34816,5.31028 -0.50225,7.93962c-0.08059,1.37522 0.35774,2.90916 -0.29515,4.1222c-0.56961,1.0583 -2.30563,1.01903 -3,2c-0.35517,0.50176 0.26263,1.20651 0.29581,1.82036c0.05947,1.10023 0.13462,2.21434 -0.01873,3.30546c-0.43879,3.12203 -1.17862,6.20305 -2.0444,9.23456c-0.40947,1.43375 -0.50268,3.1783 -1.61472,4.17163c-1.61564,1.44318 -3.9727,1.72911 -5.95905,2.59367c-2.85034,0.09636 -5.7296,-0.21929 -8.55411,0.17551c-4.52685,0.63275 -8.72754,1.97568 -13.309,2.01917l-0.88197,0.73607c0,0 -2.23607,1.11803 -3.3541,-1.11803c-1.11803,-2.23607 1.11803,-3.3541 1.11803,-3.3541l3.11803,-1.26393c4.29159,0.05329 8.42855,-1.40636 12.691,-1.98083c2.69625,-0.36339 5.44095,-0.06128 8.16113,-0.11058c1.10857,-0.37341 2.42918,-0.36884 3.32572,-1.12024c0.52795,-0.44248 0.28754,-1.34739 0.42412,-2.02257c0.58049,-2.86952 1.49506,-5.67413 1.91677,-8.57124c0.26299,-1.80672 -0.53531,-5.35095 0.27708,-6.87419c0.56558,-1.06046 2.31243,-1.01426 3,-2c0.36249,-0.51969 -0.28595,-1.24425 -0.29515,-1.8778c-0.02116,-1.45708 0.04603,-2.91833 0.20448,-4.36693c0.11687,-1.06847 0.2097,-2.13923 0.29316,-3.21089c-5.06085,0.21415 -10.12732,0.28541 -15.2195,-0.10513c-1.88214,-0.14435 -10.54387,-0.64517 -11.61843,-1.56674c-1.90935,-1.63751 0.12262,-8.53292 0.36922,-10.07641c0.53466,-3.34654 0.40236,-5.61628 1.01052,-9.06254c0.83049,-4.70609 2.30849,-9.14721 2.98501,-13.90747c0,0 0.35355,-2.47487 2.82843,-2.12132c2.47487,0.35355 2.12132,2.82843 2.12132,2.82843c-0.6918,4.81895 -2.17641,9.33049 -3.01499,14.09253c-0.12869,0.73076 -0.82319,7.89835 -0.98948,8.93746c-0.2565,1.60289 -0.53307,3.20844 -0.96394,4.7735c-0.11762,0.42725 -1.09415,1.03268 -0.66685,1.15009c1.08102,0.29704 2.21632,-0.41187 3.33739,-0.41629c1.66665,-0.00657 3.32354,0.25527 4.98527,0.38348c5.08851,0.39261 10.1529,0.31282 15.2124,0.09074c0.04787,-0.57125 0.09956,-1.14215 0.15729,-1.71248c0.56721,-5.60338 1.59885,-12.38676 3.21932,-17.73791c0.4696,-1.55072 1.41858,-2.93747 1.81994,-4.50724c0.77825,-3.04383 1.07237,-6.21457 2.05705,-9.19802c0,0 0.79057,-2.37171 3.16228,-1.58114c2.37171,0.79057 1.58114,3.16228 1.58114,3.16228c-0.95957,2.84728 -1.19836,5.89108 -1.94295,8.80198c-0.42453,1.65965 -1.39312,3.13929 -1.89397,4.77753c-1.54142,5.04191 -2.4999,11.50285 -3.02794,16.78313c-0.03179,0.31794 -0.06273,0.63652 -0.09286,0.95566c5.18685,-0.28727 10.37528,-0.60887 15.586,-0.60887c8.99442,0.00897 17.79367,-1.9185 26.73221,-2.69762c3.88486,-0.33862 8.11311,0.27736 11.96233,-0.28364c1.36,-0.19821 2.63379,-0.85043 4,-1c4.39402,-0.48104 5.11183,0.30823 9.12824,-0.01244c1.39925,-0.11172 2.79016,-0.24453 4.17725,-0.37847c0,-3.95114 0,-7.86293 0,-11.71827c-0.84921,-0.06906 -1.63228,-0.29101 -2.26777,-0.84177c-1.46454,-1.26927 -0.6047,-3.83395 -0.73223,-5.76777c-0.29362,-4.45233 -0.07083,-4.75799 0.56803,-8.61509c1.53835,-9.28778 2.95152,-18.54896 4.16469,-27.8847c0.88795,-6.83311 1.46892,-13.40479 4.53122,-19.61825c0,0 0.44853,-0.89705 1.34558,-1.27071c-0.79774,-0.60918 -1.52001,-1.31589 -2.13763,-2.1495c-1.76815,-2.38649 -1.76918,-6.65878 -3.18634,-9.30151c-1.56385,-2.91627 -4.34374,-5.05068 -5.96496,-7.93545c-2.48145,-4.41545 -3.92503,-9.78136 -5.02779,-14.67268c-2.02718,-5.38743 -5.43083,-11.41559 -6.25825,-17.13793c-0.71759,-4.9628 0.60589,-10.20135 -0.02238,-15.16785c-0.67834,-5.3623 -1.86246,-11.17459 -0.97989,-16.6468c0.16784,-1.04064 0.86947,-1.95402 1,-3c0.39733,-3.18403 -0.0892,-6.59985 1.15802,-9.55625c2.32912,-5.52091 7.03512,-10.09659 8.94502,-15.85463c0.53949,-1.62648 0.42338,-3.43409 1.03072,-5.03648c0.47581,-1.25537 1.44355,-2.26397 2.16532,-3.39595c4.24306,-8.49868 7.65291,-17.38677 11.93258,-25.87426c1.22905,-2.43746 2.40225,-5.9479 5.27936,-7.19166c1.21202,-0.52395 2.63658,-0.16225 3.95671,-0.1903c4.8072,-0.10214 9.91806,0.53677 14.69454,0.01873c4.09576,-0.44421 6.91364,-2.901 10.73108,-3.95185c2.84397,-0.78288 7.65699,-0.06688 10.57438,-0.06688h1.5367c0.30887,-2 2.4633,-2 2.4633,-2c9.08523,0.09163 18.27303,5.9272 25.69883,11.00897c0.78421,0.53667 7.03603,5.29512 7.57227,6.44599c0.63767,1.36854 -0.17475,3.05719 0.17444,4.52606c0.74581,3.13732 3.06664,5.72857 3.95706,8.82794c0.47626,1.65778 0.39023,3.43295 0.74965,5.11993c1.04084,4.88533 3.39873,9.63469 4.14151,14.57373c0.65558,4.35922 0.20612,9.58958 0.20624,13.99737c0,7.98385 0.51639,15.68396 -1.45154,23.42696c-0.35943,1.4142 -1.9942,9.25138 -2.5038,10.31719c-0.52872,1.10578 -1.80758,1.68484 -2.50087,2.69561c-1.5124,2.20497 -1.65481,5.09549 -2.74289,7.5379c-0.86472,1.94106 -4.00759,6.09469 -5.08544,8.18065c-2.2047,4.26678 -4.0406,9.07249 -5.79747,13.54322c-1.83027,4.65753 -2.99564,9.74614 -5.12398,14.27317c-0.71378,1.51822 -1.82213,2.82527 -2.57303,4.32547c-0.65334,1.30527 -0.82063,2.84877 -1.62696,4.06549c-0.70035,1.05681 -1.85622,1.72736 -2.78433,2.59104c0.08159,2.7197 -1.50627,5.31806 -3.00307,7.59029c-2.25792,3.42765 -5.20227,6.33817 -8.23383,9.18479c0.6781,0.28033 1.42721,0.89972 1.42721,2.26821c0,2.5 -2.5,2.5 -2.5,2.5c-1.35492,-0.01424 -2.73294,0.17447 -4.08318,0.11911c-0.04976,0.0495 -0.09945,0.09905 -0.14906,0.14866l-2.76777,0.73223c0,0 -0.87975,0 -1.59549,-0.52188c-0.20561,3.41776 -0.68927,6.6426 -0.90933,10.17723c-0.45658,7.33379 0.23424,14.70416 -0.28905,22.04819c-0.05097,0.71527 -0.14505,2.3553 -0.29058,4.18992c0.36478,0.43448 0.58446,0.99486 0.58446,1.60655c0,0.78456 -0.3614,1.4847 -0.9268,1.94305c-0.22445,1.87094 -0.51111,3.44592 -0.86954,3.88657c-1.01923,1.25307 -3.18772,0.55917 -4.79912,0.6705c-6.7018,0.46304 -13.01733,-0.34025 -19.65821,0.98771c-5.52323,0.01281 -11.21921,0.37637 -16.74634,0.04418c0,3.78068 0,7.56137 0,11.34205c3.02805,-0.23562 6.064,-0.36168 9.15532,-0.16924c5.91832,0.36841 11.65206,0.82347 17.54715,0.95679c0.18193,-2.54766 0.299,-5.09991 0.29753,-7.66161c0,0 0,-2.5 2.5,-2.5c2.5,0 2.5,2.5 2.5,2.5c-0.00143,2.59868 -0.11961,5.18683 -0.30202,7.76992c3.98801,0.30797 7.55431,1.54381 11.57479,1.94499c5.9001,0.58873 11.987,-0.42918 17.90443,-0.00864c7.35176,0.52247 14.60469,2.65459 21.97812,2.99854c0.18232,0.0085 0.36467,0.01675 0.54707,0.02475c0.24425,-2.02402 0.50866,-4.0477 0.85305,-6.04971c0.427,-2.48222 1.6369,-6.25577 1.00955,-8.91342c-0.34416,-1.45798 -1.64578,-2.57101 -1.99218,-4.02846c-0.78467,-3.30141 -0.4773,-6.7804 -1.03882,-10.127c0,0 -0.411,-2.46598 2.05499,-2.87698c2.46598,-0.411 2.87698,2.05499 2.87698,2.05499c0.53252,3.21542 0.18696,6.56364 0.95618,9.73078c0.3603,1.48347 1.7018,2.61919 2.01282,4.11377c0.85945,4.13007 -0.27575,6.94816 -0.95161,10.89238c-0.30417,1.77511 -0.54017,3.56903 -0.75582,5.36523c10.40158,0.22226 20.8988,-0.19117 31.27245,-0.19117c6.66664,0 13.33337,-0.01046 20,0c3.23238,0.00507 6.42642,-0.71297 9.64876,-0.96763c0.64292,-0.05081 1.28569,0.68705 1.88311,0.44412c0.37091,-0.15082 0.02902,-0.80384 -0.02177,-1.201c-0.39895,-3.11977 -1.15411,-6.18561 -1.59536,-9.29967c-0.58786,-4.14868 -0.41474,-8.30044 -0.41474,-12.47581v-3c0,0 0,-2.5 2.5,-2.5l0.00002,0.00001c2.5,0 2.5,2.5 2.5,2.5v3c0,5.80124 0.36879,10.91411 1.26031,16.64793c0.48476,3.11777 1.89262,7.71928 -1.29218,10.37558c-1.11047,0.92619 -2.88296,0.25618 -4.31108,0.48296c-1.64861,0.26178 -3.24936,0.81886 -4.9107,0.98137c-8.23218,0.80525 -16.98567,0.01217 -25.24634,0.01217c-10.56703,0 -21.26404,0.42878 -31.85801,0.18102c-0.19463,1.58732 -0.4082,3.16433 -0.67427,4.71943c-0.35553,2.07799 -1.74182,3.90768 -2,6c-0.21735,1.76149 0.3543,3.60186 -0.07499,5.324c-0.2907,1.16616 -1.59414,1.86875 -2,3c-0.63898,1.78101 0.40422,3.81269 0.07499,5.676c-0.89069,5.04095 -3.69875,7.36653 -7.74326,9.99227c-4.57598,0.08575 -9.1477,0.1347 -13.72446,0.10727c-1.50912,-0.00904 -3.0467,-0.33764 -4.52723,-0.04511c-1.62433,0.32094 -2.98789,1.51679 -4.60966,1.85043c-1.6943,0.34856 -3.46989,-0.04631 -5.18672,0.16491c-3.2194,0.39608 -6.43272,1.01985 -9.67638,1.02977h-1c0,0 -2.5,0 -2.5,-2.5c0,-2.5 2.5,-2.5 2.5,-2.5h1c3.03211,0.01039 6.03232,-0.6245 9.04241,-0.98942c1.59194,-0.19299 3.23947,0.2234 4.80971,-0.10199c1.6427,-0.34041 3.02641,-1.5534 4.6751,-1.86348c5.3895,-1.01365 12.28977,-0.07479 17.74831,0.06216c2.16035,-1.51816 3.8345,-3.2326 4.25674,-6.00773c0.32088,-2.10896 -0.58549,-4.21636 0.07499,-6.324c0.35939,-1.14686 1.70765,-1.83425 2,-3c0.3792,-1.51204 -0.27075,-3.12947 -0.07499,-4.676c0.26475,-2.0915 1.66396,-3.91877 2,-6c0.2182,-1.35141 0.40372,-2.71767 0.57568,-4.09197c-0.08778,-0.00408 -0.17555,-0.00821 -0.26331,-0.01241c-7.39114,-0.35335 -14.65491,-2.4779 -22.02188,-3.00146c-5.9833,-0.42522 -12.12569,0.59375 -18.09557,-0.00864c-4.0024,-0.40386 -7.47628,-1.71476 -11.44567,-1.94918c-0.38863,4.12084 -0.85527,8.23776 -1.18566,12.37313c-0.39933,4.99827 -0.38624,10.08524 -0.97624,15.06391c-0.71298,6.0164 -2.71537,12.00091 -3.12881,18.04108c-0.30665,4.47995 0.08661,7.70678 -1.00955,12.09145l0.01873,3.69454c0,0 0,2.5 -2.5,2.5zM211.36469,279.66245c1.29491,0.14819 2.07363,1.71746 3.33695,2.03804c3.00441,0.76241 6.19873,-0.10048 9.29836,-0.10048c0.61214,0 1.22428,0 1.83642,0c3.0279,-0.38744 6.10947,0 9.16358,0c3.33333,0 6.88885,-1.1966 10,0h0.87197c0.08482,-3.82522 0.6288,-7.6614 0.62803,-11.5c-0.00094,-4.685 -0.2861,-9.48241 0.00483,-14.15534c0.27809,-4.46682 0.99965,-8.34889 0.99517,-12.84466v-0.95925c-1.85149,-0.99689 -3.67882,-2.00082 -5.45672,-2.73106c-6.09475,-2.50333 -12.42161,-4.68148 -18.63861,-6.86507c-2.76615,-0.97155 -6.0166,-1.65793 -8.9098,-2.9065c0.11075,0.84081 -0.2588,1.57992 -0.2588,1.57992c-2.85063,5.60594 -3.23897,11.81959 -4.04501,18.0263c-1.0052,7.74029 -2.08584,15.43129 -3.36906,23.1306c-0.47927,2.87562 -0.70109,5.50537 -0.92125,8.2008c1.81961,-0.36887 3.62902,-1.12329 5.46394,-0.9133zM268.6903,222.14331c7.54473,-7.99823 9.79862,-19.86076 14.07264,-29.83664c0.10027,-0.23404 3.95988,-9.24566 4.02159,-9.36497c1.41423,-2.73444 3.67441,-5.00168 4.91456,-7.81935c1.21756,-2.76634 1.58633,-5.94345 3.25711,-8.4621c0.57531,-0.86726 1.74612,-1.27831 2.20114,-2.2143c1.36755,-2.81309 1.26747,-6.12847 2.04698,-9.15766c1.8748,-7.28549 1.29567,-14.65463 1.29567,-22.18828c0.00011,-4.15028 0.46823,-9.13869 -0.15064,-13.25378c-0.72522,-4.82223 -3.07035,-9.50017 -4.0874,-14.27562c-0.33506,-1.57323 -0.22639,-3.23188 -0.66456,-4.77956c-1.25536,-4.43411 -2.91146,-4.38231 -4.04294,-9.17206c-0.26656,-1.12838 0.58918,-2.39122 0.17444,-3.47394c-0.30272,-0.79029 -1.39289,-0.96243 -2.06884,-1.47164c-1.27537,-0.96077 -2.46574,-2.03634 -3.78396,-2.93741c-6.0252,-4.11856 -13.95971,-9.52471 -21.42044,-10.08908c-0.33504,1.95309 -2.45566,1.95309 -2.45566,1.95309h-3c-2.39625,0 -7.05269,-0.77746 -9.42562,-0.06688c-3.98889,1.1945 -6.90151,3.55296 -11.26892,4.04815c-0.2171,0.02462 -9.90302,0.01873 -10.30546,0.01873c-2.34862,0 -4.80877,-0.91345 -7.04329,-0.1903c-0.46928,0.15187 -0.6857,0.72279 -0.9286,1.15208c-1.3941,2.46387 -2.55379,5.05381 -3.76966,7.61034c-3.4896,7.33735 -6.45245,14.90679 -10.0898,22.17166c-1.49664,2.23534 -1.94317,5.01889 -2.80396,7.56756c-1.98679,5.88259 -6.57899,10.5529 -9.05498,16.14537c-1.57381,3.55472 -0.32686,4.3296 -0.84198,8.44375c-0.13096,1.04593 -0.82049,1.9613 -1,3c-0.86444,5.00196 0.42379,10.45749 1.02011,15.3532c0.59237,4.86323 -0.69149,9.98985 -0.02238,14.83215c0.75149,5.4385 4.20294,11.40952 6.11855,16.5365c1.01596,4.52335 2.29693,9.56301 4.59541,13.65289c1.64495,2.927 4.45278,5.10319 6.03504,8.06455c1.4361,2.68781 1.08033,6.19204 2.81366,8.69849c1.51316,2.18808 5.05292,2.86389 7.25534,3.59167c6.3555,2.10017 12.60943,4.48076 18.8891,6.79572c4.57761,1.6875 8.91869,3.63771 13.3353,5.7092c0.98577,0.46234 1.90764,1.10696 2.90072,1.54463c5.55894,-5.03041 13.0941,-10.83192 13.28173,-18.13615z" fill="#000000" stroke-width="0.5"/><path d="M205.86857,280.61403c0.22016,-2.69543 0.43572,-5.33146 0.91499,-8.20709c1.28322,-7.69931 2.35584,-15.44081 3.36104,-23.18111c0.80604,-6.20671 1.21824,-12.44645 4.06887,-18.05239c0,0 0.37102,-0.73982 0.26027,-1.58063c2.8932,1.24857 6.15777,1.93076 8.92392,2.90231c6.217,2.18359 12.58501,4.37472 18.67976,6.87805c1.7779,0.73024 3.61286,1.74322 5.46435,2.74011l0.00088,0.96064c0.00448,4.49577 -0.70973,8.40423 -0.98782,12.87105c-0.29093,4.67293 -0.01521,9.49928 -0.01427,14.18428c0.00077,3.8386 -0.55393,7.68566 -0.63875,11.51088l-0.87286,0.00065c-3.11115,-1.1966 -6.68029,0.00682 -10.01362,0.00682c-3.05411,0 -6.15268,-0.38506 -9.18058,0.00238c-0.61214,0 -1.22781,-0.00024 -1.83995,-0.00024c-3.09963,0 -6.30978,0.85852 -9.31418,0.09611c-1.26332,-0.32059 -2.04806,-1.89316 -3.34297,-2.04135c-1.83493,-0.20999 -3.64945,0.54066 -5.46906,0.90953z" data-paper-data="{&quot;noHover&quot;:false,&quot;origItem&quot;:[&quot;Path&quot;,{&quot;applyMatrix&quot;:true,&quot;segments&quot;:[[[211.36469,279.66244],[-1.83493,-0.20999],[1.29491,0.14819]],[[214.70164,281.70049],[-1.26332,-0.32059],[3.00441,0.76241]],[[224,281.60001],[-3.09963,0],[0.61214,0]],[[225.83642,281.60001],[-0.61214,0],[3.0279,-0.38744]],[[235,281.60001],[-3.05411,0],[3.33333,0]],[[245,281.60001],[-3.11115,-1.1966],[0,0]],[[245.87197,281.60001],[0,0],[0.08482,-3.82522]],[[246.5,270.10001],[0.00077,3.8386],[-0.00094,-4.685]],[[246.50483,255.94466],[-0.29093,4.67293],[0.27809,-4.46682]],[[247.5,243.10001],[0.00448,4.49577],[0,0]],[[247.5,242.14076],[0,0],[-1.85149,-0.99689]],[[242.04328,239.40969],[1.7779,0.73024],[-6.09475,-2.50333]],[[223.40467,232.54462],[6.217,2.18359],[-2.76615,-0.97155]],[[214.49487,229.63812],[2.8932,1.24857],[0.11075,0.84081]],[[214.23607,231.21804],[0,0],[-2.85063,5.60594]],[[210.19105,249.24434],[0.80604,-6.20671],[-1.0052,7.74029]],[[206.82199,272.37494],[1.28322,-7.69931],[-0.47927,2.87562]],[[205.90074,280.57574],[0.22016,-2.69543],[1.81961,-0.36887]]],&quot;closed&quot;:true}]}" fill="#002dff" stroke-width="0.5"/><path d="M254.57345,241.32916c-1.12112,-0.43766 -2.16372,-1.08213 -3.27658,-1.54448c-4.98607,-2.07148 -9.89638,-4.02178 -15.06421,-5.70928c-7.08933,-2.31496 -14.16417,-4.69855 -21.3391,-6.79871c-2.48638,-0.72778 -6.48818,-1.4058 -8.19645,-3.59388c-1.95681,-2.50645 -1.55986,-6.01305 -3.18112,-8.70086c-1.78627,-2.96136 -4.96273,-5.14191 -6.81977,-8.0689c-2.59483,-4.08988 -4.04917,-9.13731 -5.19612,-13.66066c-2.1626,-5.12698 -6.06717,-11.11141 -6.91555,-16.5499c-0.75538,-4.84229 0.69094,-9.98192 0.02219,-14.84515c-0.67321,-4.89571 -2.12646,-10.3653 -1.15056,-15.36726c0.20265,-1.0387 0.98186,-1.95686 1.12969,-3.00278c0.58154,-4.11415 -0.82341,-4.89597 0.95332,-8.45069c2.79523,-5.59246 7.98938,-10.27625 10.23233,-16.15884c0.97177,-2.54867 1.4808,-5.33647 3.1704,-7.57182c4.10632,-7.26487 7.46541,-14.84226 11.40493,-22.17961c1.37264,-2.55653 2.68608,-5.14793 4.25993,-7.6118c0.27422,-0.42929 0.51937,-1.00045 1.04915,-1.15232c2.52262,-0.72314 5.30451,0.18917 7.95594,0.18917c0.45433,0 11.39627,0.0048 11.64135,-0.01982c4.93051,-0.49519 8.22675,-2.85389 12.72993,-4.04838c2.67888,-0.71059 7.94212,0.06743 10.64733,0.06743l3.38879,0.00031c0,0 2.39536,0.00024 2.77361,-1.95285c8.42266,0.56437 17.39503,5.97537 24.19707,10.09393c1.48818,0.90108 2.83483,1.97808 4.27464,2.93884c0.7631,0.50921 1.9953,0.68217 2.33705,1.47247c0.46821,1.08272 -0.49682,2.34618 -0.19589,3.47456c1.27738,4.78974 3.1521,4.74147 4.56931,9.17558c0.49466,1.54768 0.37411,3.20806 0.75237,4.78129c1.14818,4.77545 3.80288,9.46093 4.6216,14.28316c0.69866,4.1151 0.17533,9.11167 0.1752,13.26195c0,7.53365 0.65856,14.92139 -1.45795,22.20688c-0.88001,3.02919 -0.76761,6.35345 -2.31148,9.16654c-0.51369,0.93599 -1.83594,1.34954 -2.48542,2.2168c-1.8862,2.51865 -2.30548,5.70457 -3.68003,8.47091c-1.40005,2.81767 -3.95656,5.09335 -5.55313,7.8278c-0.06966,0.1193 -4.4339,9.13872 -4.5471,9.37277c-4.82508,9.97588 -7.39179,21.85086 -15.90928,29.84909c-0.21182,7.30423 -8.73072,13.10814 -15.00637,18.13854z" data-paper-data="{&quot;noHover&quot;:false,&quot;origItem&quot;:[&quot;Path&quot;,{&quot;applyMatrix&quot;:true,&quot;segments&quot;:[[[43.6903,217.1433],[-0.18763,7.30423],[7.54473,-7.99823]],[[57.76294,187.30666],[-4.27402,9.97588],[0.10027,-0.23404]],[[61.78453,177.94169],[-0.0617,0.1193],[1.41423,-2.73444]],[[66.69909,170.12234],[-1.24015,2.81767],[1.21756,-2.76634]],[[69.95621,161.66025],[-1.67078,2.51865],[0.57531,-0.86726]],[[72.15734,159.44594],[-0.45502,0.93599],[1.36755,-2.81309]],[[74.20433,150.28828],[-0.77951,3.02919],[1.8748,-7.28549]],[[75.5,128.10001],[0,7.53365],[0.00011,-4.15028]],[[75.34936,114.84622],[0.61887,4.1151],[-0.72522,-4.82223]],[[71.26197,100.5706],[1.01705,4.77545],[-0.33506,-1.57323]],[[70.5974,95.79104],[0.43817,1.54768],[-1.25536,-4.43411]],[[66.55446,86.61898],[1.13149,4.78974],[-0.26656,-1.12838]],[[66.7289,83.14504],[0.41474,1.08272],[-0.30272,-0.79029]],[[64.66006,81.6734],[0.67595,0.50921],[-1.27537,-0.96077]],[[60.8761,78.73599],[1.31822,0.90108],[-6.0252,-4.11856]],[[39.45566,68.64691],[7.46073,0.56437],[-0.33504,1.95309]],[37,70.60001],[[34,70.60001],[0,0],[-2.39625,0]],[[24.57438,70.53313],[2.37293,-0.71059],[-3.98889,1.1945]],[[13.30546,74.58127],[4.36741,-0.49519],[-0.2171,0.02462]],[[3,74.60001],[0.40244,0],[-2.34862,0]],[[-4.04329,74.4097],[2.23452,-0.72314],[-0.46928,0.15187]],[[-4.97189,75.56178],[0.2429,-0.42929],[-1.3941,2.46387]],[[-8.74155,83.17212],[1.21587,-2.55653],[-3.4896,7.33735]],[[-18.83136,105.34378],[3.63735,-7.26487],[-1.49664,2.23534]],[[-21.63532,112.91135],[0.86079,-2.54867],[-1.98679,5.88259]],[[-30.6903,129.05671],[2.47599,-5.59246],[-1.57381,3.55472]],[[-31.53228,137.50046],[0.51512,-4.11415],[-0.13096,1.04593]],[[-32.53228,140.50046],[0.17951,-1.0387],[-0.86444,5.00196]],[[-31.51217,155.85366],[-0.59632,-4.89571],[0.59237,4.86323]],[[-31.53455,170.68581],[-0.66911,-4.84229],[0.75149,5.4385]],[[-25.416,187.22231],[-1.91561,-5.12698],[1.01596,4.52335]],[[-20.82059,200.87519],[-2.29848,-4.08988],[1.64495,2.927]],[[-14.78555,208.93974],[-1.58226,-2.96136],[1.4361,2.68781]],[[-11.97189,217.63823],[-1.73333,-2.50645],[1.51316,2.18808]],[[-4.71656,221.2299],[-2.20242,-0.72778],[6.3555,2.10017]],[[14.17255,228.02562],[-6.27967,-2.31496],[4.57761,1.6875]],[[27.50785,233.73482],[-4.41662,-2.07148],[0.98577,0.46234]],[[30.40857,235.27944],[-0.99308,-0.43766],[5.55894,-5.03041]]],&quot;closed&quot;:true}]}" fill="#ffffff" stroke-width="0.5"/><path d="M261.23223,169.36777c-1.76777,-1.76777 0,-3.53553 0,-3.53553l1.87913,-1.87024c0.34357,-0.45916 4.07976,-5.3261 4.64285,-6.46037c0.5047,-1.01666 0.53655,-2.24185 1.11916,-3.21595c0.46806,-0.78257 1.5241,-1.11173 1.95113,-1.91742c1.0315,-1.94618 -0.04205,-4.52507 0.80379,-6.55882c0.69007,-1.65921 2.2434,-2.82243 3.15726,-4.3697c1.74103,-2.94776 -0.03039,-6.44069 0.82172,-9.56419c0.31631,-1.15948 1.59414,-1.86875 2,-3c0.25643,-0.71475 -0.09429,-1.5163 -0.10727,-2.27554c-0.03988,-2.33299 0,-4.66667 0,-7c0,0 0,-2.5 2.5,-2.5c2.5,0 2.5,2.5 2.5,2.5c0,3.15993 0.83349,7.72242 -0.10727,10.72446c-0.35939,1.14686 -1.65296,1.84935 -2,3c-1.1054,3.66506 0.93531,6.62242 -1.17828,10.43581c-0.74508,1.34429 -2.21814,2.22598 -2.84274,3.6303c-0.34099,0.76668 0.24274,1.68643 0.10956,2.51489c-0.26963,1.67727 -0.57235,3.39396 -1.30577,4.92629c-0.42042,0.8784 -1.54662,1.24827 -2.04887,2.08258c-0.50201,0.83391 -0.44316,1.91465 -0.88084,2.78405c-0.90199,1.79171 -4.36879,6.22459 -5.35715,7.53963l-2.12087,2.12976c0,0 -1.76777,1.76777 -3.53553,0z" fill="#000000" stroke-width="0.5"/></g></g></svg>