<svg version="1.1" xmlns="http://www.w3.org/2000/svg" xmlns:xlink="http://www.w3.org/1999/xlink" width="582" height="412.30563" viewBox="0,0,582,412.30563"><g transform="translate(42.5,12.7)"><g data-paper-data="{&quot;isPaintingLayer&quot;:true}" fill-rule="nonzero" stroke="none" stroke-linecap="butt" stroke-linejoin="miter" stroke-miterlimit="10" stroke-dasharray="" stroke-dashoffset="0" style="mix-blend-mode: normal"><path d="M-42.5,380.30001v-393h582v393z" fill="#923434" stroke-width="0"/><path d="M107.5,282.30001v-229h260v229z" fill="#ff0000" stroke-width="0"/><path d="M360.5,279.80001c2.5,0 2.5,2.5 2.5,2.5v3c0,5.80124 0.36879,10.91411 1.26031,16.64793c0.48476,3.11777 1.89262,7.71928 -1.29218,10.37558c-1.11047,0.92619 -2.88296,0.25618 -4.31108,0.48296c-1.64861,0.26178 -3.24936,0.81886 -4.9107,0.98137c-8.23218,0.80525 -16.98567,0.01217 -25.24634,0.01217c-10.56703,0 -21.26404,0.42878 -31.85801,0.18102c-0.19463,1.58732 -0.4082,3.16433 -0.67427,4.71943c-0.35553,2.07799 -1.74182,3.90768 -2,6c-0.21735,1.76149 0.3543,3.60186 -0.07499,5.324c-0.2907,1.16616 -1.59414,1.86875 -2,3c-0.63898,1.78101 0.40422,3.81269 0.07499,5.676c-0.89069,5.04095 -3.69875,7.36653 -7.74326,9.99227c-4.57598,0.08575 -9.1477,0.1347 -13.72446,0.10727c-1.50912,-0.00904 -3.0467,-0.33764 -4.52723,-0.04511c-1.62433,0.32094 -2.98789,1.51679 -4.60966,1.85043c-1.6943,0.34856 -3.46989,-0.04631 -5.18672,0.16491c-3.2194,0.39608 -6.43272,1.01985 -9.67638,1.02977h-1c0,0 -2.5,0 -2.5,-2.5c0,-2.5 2.5,-2.5 2.5,-2.5h1c3.03211,0.01039 6.03232,-0.6245 9.04241,-0.98942c1.59194,-0.19299 3.23947,0.2234 4.80971,-0.10199c1.6427,-0.34041 3.02641,-1.5534 4.6751,-1.86348c5.3895,-1.01365 12.28977,-0.07479 17.74831,0.06216c2.16035,-1.51816 3.8345,-3.2326 4.25674,-6.00773c0.32088,-2.10896 -0.58549,-4.21636 0.07499,-6.324c0.35939,-1.14686 1.70765,-1.83425 2,-3c0.3792,-1.51204 -0.27075,-3.12947 -0.07499,-4.676c0.26475,-2.0915 1.66396,-3.91877 2,-6c0.2182,-1.35141 0.40372,-2.71767 0.57568,-4.09197c-0.08778,-0.00408 -0.17555,-0.00821 -0.26331,-0.01241c-7.39114,-0.35335 -14.65491,-2.4779 -22.02188,-3.00146c-5.9833,-0.42522 -12.12569,0.59375 -18.09557,-0.00864c-4.42709,-0.44671 -8.20756,-2.00317 -12.72721,-1.98507c-7.16902,0 -14.04375,-0.56202 -21.15534,-1.00483c-5.98436,-0.37263 -11.74333,0.53515 -17.66743,0.99854c-2.94825,0.23062 -5.93316,-0.34409 -8.87176,-0.01244c-1.3657,0.15413 -2.63894,0.80921 -4,1c-3.93362,0.55141 -8.17238,-0.045 -12.13818,0.30214c-9.09068,0.79575 -18.01752,2.70801 -27.16728,2.71659c-5.34947,0 -10.67448,0.32982 -15.99841,0.61782c-0.19121,2.64958 -0.34816,5.31028 -0.50225,7.93962c-0.08059,1.37522 0.35774,2.90916 -0.29515,4.1222c-0.56961,1.0583 -2.30563,1.01903 -3,2c-0.35517,0.50176 0.26263,1.20651 0.29581,1.82036c0.05947,1.10023 0.13462,2.21434 -0.01873,3.30546c-0.43879,3.12203 -1.17862,6.20305 -2.0444,9.23456c-0.40947,1.43375 -0.50268,3.1783 -1.61472,4.17163c-1.61564,1.44318 -3.9727,1.72911 -5.95905,2.59367c-2.85034,0.09636 -5.7296,-0.21929 -8.55411,0.17551c-4.52685,0.63275 -8.72754,1.97568 -13.309,2.01917l-0.88197,0.73607c0,0 -2.23607,1.11803 -3.3541,-1.11803c-1.11803,-2.23607 1.11803,-3.3541 1.11803,-3.3541l3.11803,-1.26393c4.29159,0.05329 8.42855,-1.40636 12.691,-1.98083c2.69625,-0.36339 5.44095,-0.06128 8.16113,-0.11058c1.10857,-0.37341 2.42918,-0.36884 3.32572,-1.12024c0.52795,-0.44248 0.28754,-1.34739 0.42412,-2.02257c0.58049,-2.86952 1.49506,-5.67413 1.91677,-8.57124c0.26299,-1.80672 -0.53531,-5.35095 0.27708,-6.87419c0.56558,-1.06046 2.31243,-1.01426 3,-2c0.36249,-0.51969 -0.28595,-1.24425 -0.29515,-1.8778c-0.02116,-1.45708 0.04603,-2.91833 0.20448,-4.36693c0.11687,-1.06847 0.2097,-2.13923 0.29316,-3.21089c-5.06085,0.21415 -10.12732,0.28541 -15.2195,-0.10513c-1.88214,-0.14435 -10.54387,-0.64517 -11.61843,-1.56674c-1.90935,-1.63751 0.12262,-8.53292 0.36922,-10.07641c0.53466,-3.34654 0.40236,-5.61628 1.01052,-9.06254c0.83049,-4.70609 2.30849,-9.14721 2.98501,-13.90747c0,0 0.35355,-2.47487 2.82843,-2.12132c2.47487,0.35355 2.12132,2.82843 2.12132,2.82843c-0.6918,4.81895 -2.17641,9.33049 -3.01499,14.09253c-0.12869,0.73076 -0.82319,7.89835 -0.98948,8.93746c-0.2565,1.60289 -0.53307,3.20844 -0.96394,4.7735c-0.11762,0.42725 -1.09415,1.03268 -0.66685,1.15009c1.08102,0.29704 2.21632,-0.41187 3.33739,-0.41629c1.66665,-0.00657 3.32354,0.25527 4.98527,0.38348c5.08851,0.39261 10.1529,0.31282 15.2124,0.09074c0.04787,-0.57125 0.09956,-1.14215 0.15729,-1.71248c0.56721,-5.60338 1.59885,-12.38676 3.21932,-17.73791c0.4696,-1.55072 1.41858,-2.93747 1.81994,-4.50724c0.77825,-3.04383 1.07237,-6.21457 2.05705,-9.19802c0,0 0.79057,-2.37171 3.16228,-1.58114c2.37171,0.79057 1.58114,3.16228 1.58114,3.16228c-0.95957,2.84728 -1.19836,5.89108 -1.94295,8.80198c-0.42453,1.65965 -1.39312,3.13929 -1.89397,4.77753c-1.54142,5.04191 -2.4999,11.50285 -3.02794,16.78313c-0.03179,0.31794 -0.06273,0.63652 -0.09286,0.95566c5.18685,-0.28727 10.37528,-0.60887 15.586,-0.60887c8.99442,0.00897 17.79367,-1.9185 26.73221,-2.69762c3.88486,-0.33862 8.11311,0.27736 11.96233,-0.28364c1.36,-0.19821 2.63379,-0.85043 4,-1c4.39402,-0.48104 5.11183,0.30823 9.12824,-0.01244c6.14377,-0.49052 12.12659,-1.38778 18.33257,-1.00146c7.01551,0.43671 13.77167,0.99517 20.84466,0.99517c4.6987,0.01642 8.6908,1.55772 13.27279,2.01493c5.9001,0.58873 11.987,-0.42918 17.90443,-0.00864c7.35176,0.52247 14.60469,2.65459 21.97812,2.99854c0.18232,0.0085 0.36467,0.01675 0.54707,0.02475c0.24425,-2.02402 0.50866,-4.0477 0.85305,-6.04971c0.427,-2.48222 1.6369,-6.25577 1.00955,-8.91342c-0.34416,-1.45798 -1.64578,-2.57101 -1.99218,-4.02846c-0.78467,-3.30141 -0.4773,-6.7804 -1.03882,-10.127c0,0 -0.411,-2.46598 2.05499,-2.87698c2.46598,-0.411 2.87698,2.05499 2.87698,2.05499c0.53252,3.21542 0.18696,6.56364 0.95618,9.73078c0.3603,1.48347 1.7018,2.61919 2.01282,4.11377c0.85945,4.13007 -0.27575,6.94816 -0.95161,10.89238c-0.30417,1.77511 -0.54017,3.56903 -0.75582,5.36523c10.40158,0.22226 20.8988,-0.19117 31.27245,-0.19117c6.66664,0 13.33337,-0.01046 20,0c3.23238,0.00507 6.42642,-0.71297 9.64876,-0.96763c0.64292,-0.05081 1.28569,0.68705 1.88311,0.44412c0.37091,-0.15082 0.02902,-0.80384 -0.02177,-1.201c-0.39895,-3.11977 -1.15411,-6.18561 -1.59536,-9.29967c-0.58786,-4.14868 -0.41474,-8.30044 -0.41474,-12.47581v-3c0,0 0,-2.5 2.5,-2.5z" fill="#000000" stroke-width="0.5"/><path d="M154.5,187.30001v-77h153v77z" fill="#ffffff" stroke-width="0"/><path d="M176.25321,163.07009c-1.38675,-2.08013 0.69338,-3.46688 0.69338,-3.46688l0.94628,0.20447c0.66482,-2.91814 0.58079,-5.32677 0.61096,-8.31942c0.00607,-0.60259 0.38585,-1.30921 0.0466,-1.80726c-0.38856,-0.57045 -1.25028,-0.58511 -1.87542,-0.87766c0,0 -2.12,-1.325 -0.795,-3.44499c1.325,-2.12 3.44499,-0.795 3.44499,-0.795c1.15264,0.81856 2.70658,1.25813 3.45791,2.45568c2.03532,3.24408 0.75059,10.38119 -0.00911,13.87331l-3.05372,2.87113c0,0 -2.08013,1.38675 -3.46688,-0.69338z" fill="#000000" stroke-width="0.5"/><path d="M216.82945,160.78381c-1.60046,-1.92055 0.32009,-3.52101 0.32009,-3.52101l2.17456,-1.7996c1.40694,-0.81016 3.13742,-1.17428 4.27643,-2.33122c1.13207,-1.14989 0.67179,-3.02597 1.09007,-4.33976c0.3442,-1.0811 0.99333,-2.04016 1.49,-3.06024c0,0 1.11803,-2.23607 3.3541,-1.11803c2.23607,1.11803 1.11803,3.3541 1.11803,3.3541c-1.47812,2.85543 -1.16598,6.05274 -3.41993,8.6c-0.30498,0.34467 -4.30894,2.57857 -5.0569,3.00212l-1.82544,1.53373c0,0 -1.92055,1.60046 -3.52101,-0.32009z" fill="#000000" stroke-width="0.5"/><path d="M199.41667,127.01668c2.5,0 2.5,2.5 2.5,2.5l-0.07464,0.93967c-1.55422,6.21051 -5.66863,16.29008 -13.42536,16.56033c-5.23292,0.18232 -11.66619,-3.86731 -16.45724,-5.46163c0,0 -2.37171,-0.79057 -1.58114,-3.16228c0.79057,-2.37171 3.16228,-1.58114 3.16228,-1.58114c4.32571,1.44424 8.42394,3.44853 12.81577,4.61302c1.044,0.27682 2.38983,1.06812 3.49525,0.24986c1.8474,-1.36749 4.62128,-4.87138 5.66665,-6.95109c0.27036,-0.53787 1.29916,-4.78335 1.47308,-5.47975l-0.07464,0.27301c0,0 0,-2.5 2.5,-2.5z" fill="#000000" stroke-width="0.5"/><path d="M233.48118,146.98953c-0.3062,2.48118 -2.78737,2.17498 -2.78737,2.17498l-2.5037,-0.30943c-4.81233,-0.68713 -12.64171,-0.31403 -15.95935,-4.78996c-1.25145,-1.68837 -1.13059,-4.06449 -1.38669,-6.15043c-0.42166,-3.4344 -0.01073,-7.39343 -0.01073,-10.89802c0,0 0,-2.5 2.5,-2.5c2.5,0 2.5,2.5 2.5,2.5c0,3.4529 -0.19217,6.99481 -0.01073,10.43531c0.06507,1.23378 -0.24915,2.66393 0.45619,3.67829c0.66234,0.95252 2.02217,1.19443 3.14227,1.49671c3.07712,0.8304 6.32057,0.8278 9.47577,1.2783l2.40935,0.29688c0,0 2.48118,0.3062 2.17498,2.78737z" fill="#000000" stroke-width="0.5"/><path d="M11.62829,330.30945c0.79057,-2.37171 3.16228,-1.58114 3.16228,-1.58114l0.71327,0.23776l0.07081,-2.47239c0.71231,-2.84398 1.5465,-5.65906 2.47251,-8.44081c2.82104,-8.42045 4.72953,-18.30024 5.46137,-27.15905c0.65723,-7.95575 -0.82354,-16.12982 0.00688,-24.07087c0.49832,-4.7653 2.45486,-9.40262 3.18321,-14.13756c0.66489,-4.3224 0.78375,-8.73157 0.80123,-13.11782c-0.02934,-0.21014 -0.03135,-0.44115 0.00199,-0.69482c0.00231,-1.26082 -0.00183,-2.51927 -0.00183,-3.77273c0,0 0,-0.9274 0.56485,-1.65251c-4.52322,-1.71718 -9.12098,-3.30858 -13.66018,-4.90287c-4.82669,-1.69527 -11.12794,-2.52227 -14.43279,-6.98286c-1.76815,-2.38649 -1.76918,-6.65878 -3.18634,-9.30151c-1.56385,-2.91627 -4.34374,-5.05068 -5.96496,-7.93545c-2.48145,-4.41545 -3.92503,-9.78136 -5.02779,-14.67268c-2.02718,-5.38743 -5.43083,-11.41559 -6.25825,-17.13793c-0.71759,-4.9628 0.60589,-10.20135 -0.02238,-15.16785c-0.67834,-5.3623 -1.86246,-11.17459 -0.97989,-16.6468c0.16784,-1.04064 0.86947,-1.95402 1,-3c0.39733,-3.18403 -0.0892,-6.59985 1.15802,-9.55625c2.32912,-5.52091 7.03512,-10.09659 8.94502,-15.85463c0.53949,-1.62648 0.42338,-3.43409 1.03072,-5.03648c0.47581,-1.25537 1.44355,-2.26397 2.16532,-3.39595c4.24306,-8.49868 7.65291,-17.38677 11.93258,-25.87426c1.22905,-2.43746 2.40225,-5.9479 5.27936,-7.19166c1.21202,-0.52395 2.63658,-0.16225 3.95671,-0.1903c4.8072,-0.10214 9.91806,0.53677 14.69454,0.01873c4.09576,-0.44421 6.91364,-2.901 10.73108,-3.95185c2.84397,-0.78288 7.65699,-0.06688 10.57438,-0.06688h1.5367c0.30887,-2 2.4633,-2 2.4633,-2c9.08523,0.09163 18.27303,5.9272 25.69883,11.00897c0.78421,0.53667 7.03603,5.29512 7.57227,6.44599c0.63767,1.36854 -0.17475,3.05719 0.17444,4.52606c0.74581,3.13732 3.06664,5.72857 3.95706,8.82794c0.47626,1.65778 0.39023,3.43295 0.74965,5.11993c1.04084,4.88533 3.39873,9.63469 4.14151,14.57373c0.65558,4.35922 0.20612,9.58958 0.20624,13.99737c0,7.98385 0.51639,15.68396 -1.45154,23.42696c-0.35943,1.4142 -1.9942,9.25138 -2.5038,10.31719c-0.52872,1.10578 -1.80758,1.68484 -2.50087,2.69561c-1.5124,2.20497 -1.65481,5.09549 -2.74289,7.5379c-0.86472,1.94106 -4.00759,6.09469 -5.08544,8.18065c-2.2047,4.26678 -4.0406,9.07249 -5.79747,13.54322c-1.83027,4.65753 -2.99564,9.74614 -5.12398,14.27317c-0.71378,1.51822 -1.82213,2.82527 -2.57303,4.32547c-0.65334,1.30527 -0.82063,2.84877 -1.62696,4.06549c-0.70035,1.05681 -1.85622,1.72736 -2.78433,2.59104c0.08159,2.7197 -1.50627,5.31806 -3.00307,7.59029c-2.25792,3.42765 -5.20227,6.33817 -8.23383,9.18479c0.6781,0.28033 1.42721,0.89972 1.42721,2.26821c0,2.5 -2.5,2.5 -2.5,2.5c-1.35492,-0.01424 -2.73294,0.17447 -4.08318,0.11911c-0.04976,0.0495 -0.09945,0.09905 -0.14906,0.14866l-0.27895,0.0738c3.02194,1.18145 5.95904,2.49733 8.71658,3.96823c1.02518,0.54684 1.86497,1.40295 2.89299,1.94443c1.19256,0.62815 2.92137,0.47327 3.73593,1.54716c3.44312,4.53933 0.80241,11.11408 0.02522,15.96194c-1.64794,10.27933 -2.90532,20.22761 -5.43417,30.34302c-1.13838,4.5451 -3.17798,9.20345 -3.95764,13.79412c-0.31253,1.8402 0.03228,3.733 0.03228,5.59954c0,5 0,10 0,15c0,2.66667 0.18684,5.33989 0,8c-0.10672,1.51936 0.52288,3.43745 -0.52949,4.53853c-1.91877,2.00758 -7.67239,2.27668 -10.27597,1.94274c-2.81399,-0.36092 -5.32758,-1.98664 -7.85841,-3.26871c-3.90284,-1.9771 -8.22567,-3.46927 -12.51295,-4.86028c0.50639,1.98651 1.1039,3.90737 1.92407,5.55233c1.97243,3.95596 5.86856,6.96379 7.94111,10.88664c1.59623,3.02128 2.59243,6.32349 3.93181,9.46707c1.60281,3.76185 2.34536,7.38259 4.31779,11.02989c1.06903,1.9768 1.5133,4.49893 3.27655,5.89232c1.32693,1.04859 3.47633,1.09639 4.41212,2.50514c0.82866,1.24746 -0.32046,3.095 0.23244,4.48681c0.56294,1.41708 2.19132,2.17572 2.94162,3.50315c0.88583,1.56722 1.26442,3.37116 1.89663,5.05674l0.28878,2.00432c0,0 0.2633,2.4861 -2.22279,2.7494c-2.4861,0.2633 -2.7494,-2.22279 -2.7494,-2.22279l-0.00855,-0.80307c-0.5197,-1.44239 -0.80644,-2.99148 -1.55909,-4.32718c-0.88822,-1.5763 -2.64352,-2.6216 -3.30533,-4.30554c-0.42929,-1.09229 0.88571,-2.53818 0.23244,-3.51319c-0.72116,-1.07635 -2.5778,-0.68347 -3.58788,-1.49486c-2.16472,-1.7389 -2.94179,-4.71496 -4.25132,-7.16341c-3.46813,-6.48443 -4.78785,-13.88881 -8.22254,-20.44731c-2.09575,-4.00182 -6.04412,-7.05703 -8.05889,-11.11336c-1.37474,-2.76775 -2.18758,-6.21195 -2.95213,-9.5277c-0.19761,-0.06517 -0.39469,-0.13048 -0.5912,-0.19599l-3,-1c0,0 -2.37171,-0.79057 -1.58114,-3.16228zM37.16387,336.88746c1.0238,0.51482 1.80044,1.46061 2.84751,1.92627c2.35725,1.04832 4.1968,0.82989 6.68316,0.80502c0.77851,-0.00779 1.73915,0.44391 2.33494,-0.05726c0.39651,-0.33354 -0.46842,-0.94694 -0.52949,-1.46147c-0.11785,-0.99303 0,-2 0,-3c0,-3.33333 0,-6.66667 0,-10c0,-5.20606 -0.81598,-11.23318 0.03228,-16.40046c0.7783,-4.74109 2.87349,-9.52128 4.04236,-14.20588c2.49421,-9.97685 3.72331,-19.77992 5.34787,-29.9215c0.21633,-1.35048 1.50289,-7.77496 1.5808,-9.34336c0.04058,-0.81683 0.21029,-1.82301 -0.33763,-2.43017c-0.51563,-0.57138 -1.56673,-0.12716 -2.26407,-0.45284c-2.51677,-1.17539 -4.80921,-2.80332 -7.34791,-3.93057c-5.44623,-2.41826 -11.28513,-4.482 -17.08614,-6.08358c-0.06688,3.72269 -0.26288,7.446 -0.82709,11.1139c-0.71653,4.65817 -2.6702,9.24784 -3.15588,13.93153c-0.81794,7.88774 0.66249,16.02087 0.00688,23.92913c-0.76764,9.25967 -2.77945,19.52209 -5.70091,28.32778c-0.88779,2.65965 -1.68641,5.35185 -2.36521,8.07235l0.05181,0.9674c0.18771,0.67631 0.36345,1.38318 0.53433,2.10926c5.45673,1.76806 11.11508,3.57145 16.15238,6.10444zM33.04328,235.4097c-0.18089,-0.0743 -0.36198,-0.14831 -0.54328,-0.22204c0.00007,0.65678 0.0009,1.31471 0.00116,1.97348c3.19478,0.83774 6.46535,1.78644 9.7026,2.86982c-3.1127,-1.43699 -6.2049,-3.4073 -9.16049,-4.62126zM59.6903,218.14331c7.54473,-7.99823 9.79862,-19.86076 14.07264,-29.83664c0.10027,-0.23404 3.95988,-9.24566 4.02159,-9.36497c1.41423,-2.73444 3.67441,-5.00168 4.91456,-7.81935c1.21756,-2.76634 1.58633,-5.94345 3.25711,-8.4621c0.57531,-0.86726 1.74612,-1.27831 2.20114,-2.2143c1.36755,-2.81309 1.26747,-6.12847 2.04698,-9.15766c1.8748,-7.28549 1.29567,-14.65463 1.29567,-22.18828c0.00011,-4.15028 0.46823,-9.13869 -0.15064,-13.25378c-0.72522,-4.82223 -3.07035,-9.50017 -4.0874,-14.27562c-0.33506,-1.57323 -0.22639,-3.23188 -0.66456,-4.77956c-1.25536,-4.43411 -2.91146,-4.38231 -4.04294,-9.17206c-0.26656,-1.12838 0.58918,-2.39122 0.17444,-3.47394c-0.30272,-0.79029 -1.39289,-0.96243 -2.06884,-1.47164c-1.27537,-0.96077 -2.46574,-2.03634 -3.78396,-2.93741c-6.0252,-4.11856 -13.95971,-9.52471 -21.42044,-10.08908c-0.33504,1.95309 -2.45566,1.95309 -2.45566,1.95309h-3c-2.39625,0 -7.05269,-0.77746 -9.42562,-0.06688c-3.98889,1.1945 -6.90151,3.55296 -11.26892,4.04815c-0.2171,0.02462 -9.90302,0.01873 -10.30546,0.01873c-2.34862,0 -4.80877,-0.91345 -7.04329,-0.1903c-0.46928,0.15187 -0.6857,0.72279 -0.9286,1.15208c-1.3941,2.46387 -2.55379,5.05381 -3.76966,7.61034c-3.4896,7.33735 -6.45245,14.90679 -10.0898,22.17166c-1.49664,2.23534 -1.94317,5.01889 -2.80396,7.56756c-1.98679,5.88259 -6.57899,10.5529 -9.05498,16.14537c-1.57381,3.55472 -0.32686,4.3296 -0.84198,8.44375c-0.13096,1.04593 -0.82049,1.9613 -1,3c-0.86444,5.00196 0.42379,10.45749 1.02011,15.3532c0.59237,4.86323 -0.69149,9.98985 -0.02238,14.83215c0.75149,5.4385 4.20294,11.40952 6.11855,16.5365c1.01596,4.52335 2.29693,9.56301 4.59541,13.65289c1.64495,2.927 4.45278,5.10319 6.03504,8.06455c1.4361,2.68781 1.08033,6.19204 2.81366,8.69849c1.51316,2.18808 5.05292,2.86389 7.25534,3.59167c6.3555,2.10017 12.60943,4.48076 18.8891,6.79572c4.57761,1.6875 8.91869,3.63771 13.3353,5.7092c0.98577,0.46234 1.90764,1.10696 2.90072,1.54463c5.55894,-5.03041 13.0941,-10.83192 13.28173,-18.13615z" fill="#000000" stroke-width="0.5"/><path d="M20.98994,330.82813c-0.17087,-0.72608 -0.34808,-1.43368 -0.5358,-2.10999l-0.05234,-0.96768c0.6788,-2.7205 1.47519,-5.41397 2.36297,-8.07362c2.92146,-8.8057 4.90907,-19.1099 5.67671,-28.36957c0.65561,-7.90826 -0.79668,-16.08741 0.02126,-23.97515c0.48568,-4.68368 2.45036,-9.27719 3.1669,-13.93536c0.56421,-3.6679 0.76341,-7.39182 0.83029,-11.11451c5.80101,1.60158 11.65848,3.66595 17.10471,6.0842c2.5387,1.12724 4.84021,2.75815 7.35698,3.93353c0.69734,0.32567 1.75083,-0.11742 2.26646,0.45395c0.54792,0.60716 0.37971,1.61413 0.33914,2.43096c-0.07791,1.56841 -1.36036,7.99538 -1.57669,9.34587c-1.62456,10.14159 -2.83344,19.99921 -5.32765,29.97606c-1.16887,4.6846 -3.29052,9.49665 -4.06881,14.23774c-0.84826,5.16727 -0.04195,11.1979 -0.04195,16.40396c0,3.33333 -0.00264,6.66725 -0.00264,10.00058c0,1 -0.13624,1.90868 -0.01838,2.90171c0.06106,0.51453 0.94406,1.22628 0.54754,1.55983c-0.59579,0.50117 -1.55876,0.04985 -2.33727,0.05764c-2.48636,0.02487 -4.33273,0.24377 -6.68997,-0.80455c-1.04708,-0.46566 -1.82681,-1.41155 -2.85061,-1.92636c-5.0373,-2.533 -10.71413,-4.34117 -16.17086,-6.10924z" data-paper-data="{&quot;noHover&quot;:false,&quot;origItem&quot;:[&quot;Path&quot;,{&quot;applyMatrix&quot;:true,&quot;segments&quot;:[[[37.16387,336.88745],[-5.0373,-2.533],[1.0238,0.51482]],[[40.01138,338.81372],[-1.04708,-0.46566],[2.35725,1.04832]],[[46.69454,339.61874],[-2.48636,0.02487],[0.77851,-0.00779]],[[49.02949,339.56148],[-0.59579,0.50117],[0.39651,-0.33354]],[[48.5,338.10001],[0.06106,0.51453],[-0.11785,-0.99303]],[[48.5,335.10001],[0,1],[0,-3.33333]],[[48.5,325.10001],[0,3.33333],[0,-5.20606]],[[48.53228,308.69955],[-0.84826,5.16727],[0.7783,-4.74109]],[[52.57464,294.49367],[-1.16887,4.6846],[2.49421,-9.97685]],[[57.92252,264.57216],[-1.62456,10.14159],[0.21633,-1.35048]],[[59.50332,255.2288],[-0.07791,1.56841],[0.04058,-0.81683]],[[59.16569,252.79863],[0.54792,0.60716],[-0.51563,-0.57138]],[[56.90162,252.34579],[0.69734,0.32567],[-2.51677,-1.17539]],[[49.55371,248.41523],[2.5387,1.12724],[-5.44623,-2.41826]],[[32.46757,242.33165],[5.80101,1.60158],[-0.06688,3.72269]],[[31.64048,253.44555],[0.56421,-3.6679],[-0.71653,4.65817]],[[28.4846,267.37708],[0.48568,-4.68368],[-0.81794,7.88774]],[[28.49148,291.30621],[0.65561,-7.90826],[-0.76764,9.25967]],[[22.79057,319.63399],[2.92146,-8.8057],[-0.88779,2.65965]],[[20.42536,327.70635],[0.6788,-2.7205],[0,0]],[[20.47717,328.67375],[0,0],[0.18771,0.67631]],[[21.0115,330.78301],[-0.17087,-0.72608],[5.45673,1.76806]]],&quot;closed&quot;:true}]}" fill="#bd00ff" stroke-width="0.5"/><path d="M50.41393,241.32916c-0.99308,-0.43766 -1.91661,-1.08213 -2.90237,-1.54448c-4.41662,-2.07148 -8.76614,-4.02178 -13.34376,-5.70928c-6.27967,-2.31496 -12.54651,-4.69855 -18.90201,-6.79871c-2.20242,-0.72778 -5.74718,-1.4058 -7.26035,-3.59388c-1.73333,-2.50645 -1.38171,-6.01305 -2.81781,-8.70086c-1.58226,-2.96136 -4.39595,-5.14191 -6.0409,-8.0689c-2.29848,-4.08988 -3.58672,-9.13731 -4.60268,-13.66066c-1.91561,-5.12698 -5.37425,-11.11141 -6.12574,-16.5499c-0.66911,-4.84229 0.61203,-9.98192 0.01966,-14.84515c-0.59632,-4.89571 -1.8836,-10.3653 -1.01916,-15.36726c0.17951,-1.0387 0.86972,-1.95686 1.00067,-3.00278c0.51512,-4.11415 -0.72937,-4.89597 0.84444,-8.45069c2.47599,-5.59246 7.07693,-10.27625 9.06372,-16.15884c0.86079,-2.54867 1.31168,-5.33647 2.80832,-7.57182c3.63735,-7.26487 6.6128,-14.84226 10.1024,-22.17961c1.21587,-2.55653 2.37931,-5.14793 3.77341,-7.6118c0.2429,-0.42929 0.46005,-1.00045 0.92933,-1.15232c2.23452,-0.72314 4.69869,0.18917 7.04731,0.18917c0.40244,0 10.09473,0.0048 10.31182,-0.01982c4.36741,-0.49519 7.28719,-2.85389 11.27607,-4.04838c2.37293,-0.71059 7.03507,0.06743 9.43132,0.06743l3.00176,0.00031c0,0 2.12179,0.00024 2.45684,-1.95285c7.46073,0.56437 15.40838,5.97537 21.43358,10.09393c1.31822,0.90108 2.51107,1.97808 3.78644,2.93884c0.67595,0.50921 1.76742,0.68217 2.07014,1.47247c0.41474,1.08272 -0.44008,2.34618 -0.17352,3.47456c1.13149,4.78974 2.79211,4.74147 4.04746,9.17558c0.43817,1.54768 0.33138,3.20806 0.66644,4.78129c1.01705,4.77545 3.36856,9.46093 4.09378,14.28316c0.61887,4.1151 0.15531,9.11167 0.15519,13.26195c0,7.53365 0.58335,14.92139 -1.29144,22.20688c-0.77951,3.02919 -0.67994,6.35345 -2.04749,9.16654c-0.45502,0.93599 -1.62626,1.34954 -2.20157,2.2168c-1.67078,2.51865 -2.04218,5.70457 -3.25974,8.47091c-1.24015,2.81767 -3.50469,5.09335 -4.91892,7.8278c-0.0617,0.1193 -3.92751,9.13872 -4.02779,9.37277c-4.27402,9.97588 -6.54759,21.85086 -14.09232,29.84909c-0.18763,7.30423 -7.7336,13.10814 -13.29253,18.13854z" data-paper-data="{&quot;noHover&quot;:false,&quot;origItem&quot;:[&quot;Path&quot;,{&quot;applyMatrix&quot;:true,&quot;segments&quot;:[[[43.6903,217.1433],[-0.18763,7.30423],[7.54473,-7.99823]],[[57.76294,187.30666],[-4.27402,9.97588],[0.10027,-0.23404]],[[61.78453,177.94169],[-0.0617,0.1193],[1.41423,-2.73444]],[[66.69909,170.12234],[-1.24015,2.81767],[1.21756,-2.76634]],[[69.95621,161.66025],[-1.67078,2.51865],[0.57531,-0.86726]],[[72.15734,159.44594],[-0.45502,0.93599],[1.36755,-2.81309]],[[74.20433,150.28828],[-0.77951,3.02919],[1.8748,-7.28549]],[[75.5,128.10001],[0,7.53365],[0.00011,-4.15028]],[[75.34936,114.84622],[0.61887,4.1151],[-0.72522,-4.82223]],[[71.26197,100.5706],[1.01705,4.77545],[-0.33506,-1.57323]],[[70.5974,95.79104],[0.43817,1.54768],[-1.25536,-4.43411]],[[66.55446,86.61898],[1.13149,4.78974],[-0.26656,-1.12838]],[[66.7289,83.14504],[0.41474,1.08272],[-0.30272,-0.79029]],[[64.66006,81.6734],[0.67595,0.50921],[-1.27537,-0.96077]],[[60.8761,78.73599],[1.31822,0.90108],[-6.0252,-4.11856]],[[39.45566,68.64691],[7.46073,0.56437],[-0.33504,1.95309]],[37,70.60001],[[34,70.60001],[0,0],[-2.39625,0]],[[24.57438,70.53313],[2.37293,-0.71059],[-3.98889,1.1945]],[[13.30546,74.58127],[4.36741,-0.49519],[-0.2171,0.02462]],[[3,74.60001],[0.40244,0],[-2.34862,0]],[[-4.04329,74.4097],[2.23452,-0.72314],[-0.46928,0.15187]],[[-4.97189,75.56178],[0.2429,-0.42929],[-1.3941,2.46387]],[[-8.74155,83.17212],[1.21587,-2.55653],[-3.4896,7.33735]],[[-18.83136,105.34378],[3.63735,-7.26487],[-1.49664,2.23534]],[[-21.63532,112.91135],[0.86079,-2.54867],[-1.98679,5.88259]],[[-30.6903,129.05671],[2.47599,-5.59246],[-1.57381,3.55472]],[[-31.53228,137.50046],[0.51512,-4.11415],[-0.13096,1.04593]],[[-32.53228,140.50046],[0.17951,-1.0387],[-0.86444,5.00196]],[[-31.51217,155.85366],[-0.59632,-4.89571],[0.59237,4.86323]],[[-31.53455,170.68581],[-0.66911,-4.84229],[0.75149,5.4385]],[[-25.416,187.22231],[-1.91561,-5.12698],[1.01596,4.52335]],[[-20.82059,200.87519],[-2.29848,-4.08988],[1.64495,2.927]],[[-14.78555,208.93974],[-1.58226,-2.96136],[1.4361,2.68781]],[[-11.97189,217.63823],[-1.73333,-2.50645],[1.51316,2.18808]],[[-4.71656,221.2299],[-2.20242,-0.72778],[6.3555,2.10017]],[[14.17255,228.02562],[-6.27967,-2.31496],[4.57761,1.6875]],[[27.50785,233.73482],[-4.41662,-2.07148],[0.98577,0.46234]],[[30.40857,235.27944],[-0.99308,-0.43766],[5.55894,-5.03041]]],&quot;closed&quot;:true}]}" fill="#ffffff" stroke-width="0.5"/><path d="M79.39448,165.02557c-2.42556,-0.60552 -1.82004,-3.03108 -1.82004,-3.03108l0.70935,-2.39325c1.04897,-1.73584 2.89721,-4.14473 3.24849,-6.40168c0.57134,-3.67075 -0.03228,-7.87309 -0.03228,-11.59954c0,-4.33087 -0.07402,-8.66965 0,-13c0.01867,-1.09227 0.42272,-2.22964 0.10727,-3.27554c-0.34704,-1.15065 -1.62094,-1.85949 -2,-3c-0.29111,-0.87589 0.38602,-1.8959 0.08303,-2.76775c-0.61688,-1.77509 -3.97424,-3.12568 -5.48087,-3.585c0,0 -2.37171,-0.79057 -1.58114,-3.16228c0.79057,-2.37171 3.16228,-1.58114 3.16228,-1.58114c3.08142,1.08879 7.0782,3.09762 8.51913,6.415c0.42938,0.98855 -0.25862,2.21006 0.08303,3.23225c0.38098,1.13987 1.68369,1.84052 2,3c0.88504,3.24422 0.10727,9.40194 0.10727,12.72446c0,5.5109 0.91318,11.97983 -0.03228,17.40046c-0.58865,3.37494 -2.13097,5.21179 -3.89647,8.17325l-0.14569,1.03182c0,0 -0.60552,2.42556 -3.03108,1.82004z" fill="#000000" stroke-width="0.5"/></g></g></svg>