<svg version="1.1" xmlns="http://www.w3.org/2000/svg" xmlns:xlink="http://www.w3.org/1999/xlink" width="569.15118" height="326.87229" viewBox="0,0,569.15118,326.87229"><g transform="translate(109.36458,-9.29248)"><g data-paper-data="{&quot;isPaintingLayer&quot;:true}" fill-rule="nonzero" stroke="none" stroke-linecap="butt" stroke-linejoin="miter" stroke-miterlimit="10" stroke-dasharray="" stroke-dashoffset="0" style="mix-blend-mode: normal"><path d="M437.5,192.3c0,56.60919 -85.0659,102.5 -190,102.5c-104.9341,0 -190,-45.89081 -190,-102.5c0,-56.60919 85.0659,-102.5 190,-102.5c104.9341,0 190,45.89081 190,102.5z" fill="#9966ff" stroke-width="0"/><path d="M133.98898,50.56553c0.23447,2.48898 -2.25451,2.72345 -2.25451,2.72345l-2.09542,0.1974c-4.92774,0.46422 -9.9873,1.27709 -14.93388,1.40684c-1.15225,0.03022 -2.63199,-1.06093 -3.44904,-0.2479c-0.81706,0.81303 0.26756,2.29817 0.23084,3.45023c-0.0488,1.53083 -0.58436,3.04053 -0.48646,4.569c0.20443,3.19171 1.47053,6.22521 2.18969,9.34156c1.49906,6.49594 2.99813,12.99188 4.49719,19.48782c0.72172,3.12745 1.02033,6.37983 2.13816,9.38852c0.99117,2.6678 2.87582,4.91204 4.30176,7.37503c4.1753,7.21189 8.3506,14.42377 12.52591,21.63566c3.23461,5.58705 8.75564,12.81313 6.1565,19.86356c-0.59988,1.62723 -2.36129,2.54071 -3.54193,3.81106c0,0 -1.76777,1.76777 -3.53553,0c-1.76777,-1.76777 0,-3.53553 0,-3.53553c0.81936,-0.72965 2.06317,-1.16533 2.45807,-2.18894c0.44893,-1.16366 0.00353,-2.50293 -0.17157,-3.73783c-0.61921,-4.36697 -3.53735,-7.98433 -5.69266,-11.70713c-4.1753,-7.21189 -8.3506,-14.42377 -12.52591,-21.63566c-1.5499,-2.6771 -3.53933,-5.14879 -4.6257,-8.04513c-0.09681,-0.2581 -2.24809,-9.61856 -2.35903,-10.0993c-1.49906,-6.49594 -2.99813,-12.99188 -4.49719,-19.48782c-1.26674,-5.4892 -2.62881,-9.84508 -1.80685,-15.52842c0.31557,-2.18198 -0.34484,-4.94585 1.21796,-6.50093c1.56279,-1.55509 4.32473,-0.87139 6.50688,-1.1858c4.92178,-0.70913 9.98253,-0.9404 14.93388,-1.40684l2.09542,-0.1974c0,0 2.48898,-0.23447 2.72345,2.25451z" fill="#9966ff" stroke-width="0.5"/><path d="M281.62866,35.11104c-1.31103,2.12866 -3.43969,0.81763 -3.43969,0.81763l-3.78394,-2.33051c-6.44336,-3.96844 -12.79144,-8.34799 -20.58866,-6.36705c-1.40509,0.29573 -2.96303,0.18458 -4.21526,0.88718c-1.25223,0.7026 -1.95431,2.10448 -2.95389,3.13529c-4.21032,4.34188 -6.44228,9.37976 -9.67389,14.45884c-6.30525,9.90989 -13.70661,18.91955 -20.53281,28.47202c-4.67142,6.53711 -7.68619,13.08591 -14.55377,17.6957c0,0 -2.08013,1.38675 -3.46688,-0.69338c-1.38675,-2.08013 0.69338,-3.46688 0.69338,-3.46688c6.28104,-4.15458 8.98684,-10.45858 13.25861,-16.44164c6.77047,-9.48275 14.12411,-18.41892 20.38334,-28.25047c3.42724,-5.38326 5.76897,-10.7203 10.33182,-15.28489c1.34192,-1.34243 2.41213,-3.05633 4.06749,-3.98512c1.65536,-0.92879 3.6806,-0.92983 5.5209,-1.39474c1.61435,-0.35432 3.19066,-1.099 4.84304,-1.06295c7.30069,0.15927 13.58239,4.3908 19.50865,8.04076l3.78394,2.33051c0,0 2.12866,1.31103 0.81763,3.43969z" fill="#9966ff" stroke-width="0.5"/><path d="M403.82119,57.72848c-0.92848,2.32119 -3.24967,1.39272 -3.24967,1.39272l-0.35762,-0.14305c-2.35601,-0.943 -4.59532,-2.40305 -7.11436,-2.71043c-7.28911,-0.88943 -14.36471,1.81735 -21.04999,4.20495c-9.07683,3.14824 -13.0798,10.6273 -18.18651,18.28272c-4.57997,6.86579 -9.66643,13.55036 -13.90287,20.62996c-3.41684,5.70996 -5.92867,11.96051 -9.31108,17.69192c-2.44979,4.15111 -5.3953,8.09899 -8.06896,12.10948c0,0 -1.38675,2.08013 -3.46688,0.69338c-2.08013,-1.38675 -0.69338,-3.46688 -0.69338,-3.46688c2.62566,-3.93849 5.52591,-7.81347 7.93104,-11.89052c3.38385,-5.73613 5.89889,-11.98976 9.31877,-17.70481c4.2788,-7.1504 9.40828,-13.90297 14.03388,-20.83719c4.35134,-6.52309 8.42254,-14.34589 15.54162,-18.343c1.58541,-0.89015 3.41512,-1.24917 5.12269,-1.87376c7.51499,-2.68393 15.36359,-5.47166 23.53259,-4.43168c1.41248,0.17982 7.43464,2.70936 8.1704,3.00348l0.35762,0.14305c0,0 2.32119,0.92848 1.39272,3.24967z" fill="#9966ff" stroke-width="0.5"/><path d="M455.31713,176.29331c-2.4933,-0.18287 -2.31043,-2.67618 -2.31043,-2.67618l0.28043,-3.82333c0.36573,-4.98632 0.70604,-9.97544 1.09724,-14.95981c0.11762,-1.49864 0.56465,-3.0022 0.37833,-4.49386c-0.3929,-3.14543 -2.09238,-5.98541 -3.05326,-9.00613c-0.42595,-1.33905 -0.40955,-2.88401 -1.21204,-4.03748c-0.65512,-0.94163 -1.94265,-1.22125 -2.89327,-1.86326c-1.38119,-0.93279 -2.73401,-1.90691 -4.10101,-2.86037c-2.52858,-1.76363 -4.57747,-4.46233 -7.51888,-5.38547c-1.346,-0.42243 -2.82023,0.08317 -4.23034,0.12475c-5.04352,0.08053 -9.42175,0.12511 -14.35442,1.19154c-1.42522,0.30813 -2.98774,0.21284 -4.2855,0.87768c-1.29776,0.66484 -2.13314,1.9888 -3.21601,2.96533c-3.53039,3.1837 -5.63216,6.02884 -8.43526,9.88004c-5.73713,7.88231 -9.91272,16.74988 -14.95891,25.07846c-3.46748,5.72297 -7.21259,11.31468 -10.92366,16.88154c0,0 -1.38675,2.08013 -3.46688,0.69338c-2.08013,-1.38675 -0.69338,-3.46688 -0.69338,-3.46688c3.67133,-5.50675 7.37747,-11.03769 10.8076,-16.69901c5.12138,-8.45267 9.37405,-17.42312 15.19155,-25.42835c2.97111,-4.08843 5.34085,-7.32468 9.15712,-10.67623c1.40929,-1.23767 2.58878,-2.82313 4.25809,-3.67831c1.66931,-0.85518 3.6452,-0.88593 5.47296,-1.30688c5.26075,-1.21159 10.02693,-1.22641 15.4015,-1.3121c1.92321,0.0345 3.93372,-0.47042 5.76963,0.10349c1.83041,0.57219 3.19948,2.11555 4.78415,3.19564c2.75439,1.87736 5.4924,3.77933 8.20202,5.72074c1.35845,0.97332 3.06961,1.60936 4.03812,2.97125c1.11811,1.57224 1.31865,3.62639 1.95023,5.44936c0.18585,0.53642 3.23591,9.68428 3.27129,9.96753c0.22685,1.81613 -0.22774,3.65341 -0.35317,5.47935c-0.34263,4.988 -0.73151,9.97345 -1.09724,14.95981l-0.28043,3.82333c0,0 -0.18287,2.4933 -2.67618,2.31043z" fill="#9966ff" stroke-width="0.5"/><path d="M395,331.8c0,-2.5 2.5,-2.5 2.5,-2.5l3.8987,0.25564c0.91304,-1.1194 -0.40406,-2.87629 -0.85653,-4.24814c-1.00564,-3.04903 -1.54134,-6.29691 -1.54217,-9.5075c-0.00175,-6.75428 -3.05501,-12.07853 -3.97584,-18.65325c-0.6894,-4.92238 0.53215,-10.09315 -0.00384,-15.02864c-0.30416,-2.80075 -1.44191,-5.44682 -2.15304,-8.1728c-0.84141,-3.22539 -1.72922,-6.43903 -2.52422,-9.67617c-0.33391,-1.35965 -0.30948,-2.84138 -0.93187,-4.09549c-0.29743,-0.59932 -1.12519,-0.72631 -1.66037,-1.12785c-1.33315,-1.00024 -2.6281,-2.05041 -3.94215,-3.07562c-2.46644,-1.92431 -4.54814,-4.41883 -7.31367,-5.88107c-2.2125,-1.16983 -4.95967,-0.67731 -7.4333,-1.05789c-7.84442,-1.20689 -15.8452,-2.23648 -23.59962,-3.92341c-5.62697,-1.22411 -11.17028,-3.85369 -16.96209,-3.8078c0,0 -2.5,0 -2.5,-2.5c0,-2.5 2.5,-2.5 2.5,-2.5c6.2433,0.0398 11.96919,2.60468 18.02495,3.92208c7.65407,1.6651 15.55395,2.67609 23.29705,3.86728c2.89876,0.44594 6.06194,0.10557 8.68299,1.42154c0.09406,0.04723 7.98724,6.21124 8.37932,6.51713c2.26219,1.76492 5.31985,2.88532 6.7045,5.39833c2.25696,4.09618 2.93066,10.71084 4.11657,15.25685c0.76466,2.93119 1.93928,5.78798 2.27431,8.79868c0.54647,4.91086 -0.68783,10.08762 -0.00384,14.97136c0.66575,4.75352 3.36148,9.23278 4,14c0.39754,2.96807 -0.48972,6.02907 -0.00233,8.98372c0.33128,2.00832 3.13805,8.75063 2.85801,10.39746c-0.29652,1.74377 -2.15347,2.80662 -3.23021,4.20993l-6.1013,0.25564c0,0 -2.5,0 -2.5,-2.5z" fill="#9966ff" stroke-width="0.5"/><path d="M207.31957,313.577c1.223,-2.18043 3.40343,-0.95743 3.40343,-0.95743l2.9628,1.66183c2.90724,1.63067 5.82892,3.23585 8.72171,4.89201c1.26258,0.72284 2.36482,1.81404 3.76573,2.20656c1.25624,0.35199 2.60899,-0.0366 3.91349,-0.0549c5.99989,-2.26058 8.96793,-7.40917 12.93179,-12.29473c3.00931,-3.70906 6.70419,-7.40905 9.28779,-11.42288c1.46678,-2.27877 2.83597,-6.22709 3.79031,-8.69792c3.0322,-7.85051 5.93067,-15.75071 9.69518,-23.2833c0.28176,-0.56379 4.52541,-9.08408 4.73769,-9.36477c0.18959,-0.25069 7.24478,-6.27496 7.34354,-6.35961c0,0 1.89814,-1.62698 3.52512,0.27116c1.62698,1.89814 -0.27116,3.52512 -0.27116,3.52512c-2.20813,1.89268 -4.91101,3.31414 -6.65646,5.64039c-1.90159,2.53433 -2.78907,5.69013 -4.20658,8.52378c-4.4723,8.94026 -7.31452,18.49905 -11.34926,27.61777c-2.81564,6.36348 -7.66713,11.34365 -12.01338,16.70052c-2.97956,3.67239 -6.29566,9.28298 -10.29914,11.89465c-1.67571,1.09315 -3.73213,1.44332 -5.5982,2.16498c-2.02882,-0.00684 -4.11593,0.46237 -6.08645,-0.02051c-1.82494,-0.4472 -3.31017,-1.77898 -4.95599,-2.68545c-2.91977,-1.60812 -5.81448,-3.26134 -8.72171,-4.89201l-2.9628,-1.66183c0,0 -2.18043,-1.223 -0.95743,-3.40343z" fill="#9966ff" stroke-width="0.5"/><path d="M83.5,311.3c2.5,0 2.5,2.5 2.5,2.5v5c0,3.84432 -0.44332,8.13649 -0.22166,11.97084c0.07263,1.25637 2.61518,0.23108 3.76495,-0.28053c4.88504,-2.17371 9.80233,-7.06125 14.19118,-10.17002c5.25646,-3.72333 11.27367,-7.14236 16.10767,-11.39151c7.19183,-6.32171 13.30781,-14.68271 19.75011,-21.77996c12.32212,-13.57485 24.64424,-27.14969 36.96636,-40.72454c13.00385,-14.28936 21.65832,-32.46178 33.05493,-48.00662c3.51415,-4.79327 7.22593,-9.45864 10.24068,-14.57682c0.69965,-1.1878 1.94169,-2.16692 2.15707,-3.52853c0.21538,-1.36162 -0.64182,-2.68135 -0.96273,-4.02202c0,0 -0.49029,-2.45145 1.96116,-2.94174c2.45145,-0.49029 2.94174,1.96116 2.94174,1.96116c0.33281,1.92793 1.3041,3.85137 0.99843,5.78378c-0.30567,1.93242 -1.8059,3.47139 -2.73477,5.19327c-2.90266,5.38083 -6.95947,10.16616 -10.56956,15.08772c-11.51669,15.70046 -20.28114,33.94023 -33.38472,48.41038c-12.32212,13.57485 -24.64424,27.14969 -36.96636,40.72454c-6.56788,7.2356 -12.80515,15.71193 -20.1366,22.16182c-4.96996,4.37235 -11.12801,7.90043 -16.53331,11.72919c-3.91688,2.77446 -7.81481,5.57781 -11.74013,8.34012c-1.13587,0.79933 -2.10812,1.93583 -3.42772,2.36917c-3.56356,1.17023 -8.28752,2.34941 -10.23505,-2.28053c-1.11233,-2.64439 -0.22166,-11.00261 -0.22166,-14.02916v-5c0,0 0,-2.5 2.5,-2.5z" fill="#9966ff" stroke-width="0.5"/><path d="M-82.5,249.3c2.5,0 2.5,2.5 2.5,2.5v3c0,5.2306 -0.29727,10.53629 0.36052,15.72852c-0.08083,1.1219 -0.99627,2.53082 -0.24249,3.3657c0.60418,0.66919 1.70165,-0.64571 2.5961,-0.75884c1.60558,-0.20308 3.24083,-0.0271 4.85167,-0.18317c4.89079,-0.47386 9.82143,-1.53456 14.67737,-2.29119c24.62358,-3.83669 48.96225,-9.69726 73.27553,-15.12895c33.3485,-7.4502 66.69816,-14.89354 100.06208,-22.27441c7.84441,-1.73536 16.54931,-2.67969 24.12732,-5.31986c3.05549,-1.06453 5.81161,-2.84645 8.72119,-4.26192c7.49336,-3.64542 14.97133,-7.32471 22.48088,-10.93664c5.75577,-2.76841 8.94253,-7.40168 13.3556,-11.9764c0.9465,-0.98117 2.40892,-1.60768 2.90723,-2.87663c0.49831,-1.26895 -0.11533,-2.72414 -0.17299,-4.08621c0,0 0,-2.5 2.5,-2.5c2.5,0 2.5,2.5 2.5,2.5c-0.05766,1.97126 0.54785,4.07815 -0.17299,5.91379c-0.72084,1.83565 -2.57843,2.98507 -3.89728,4.4513c-2.96927,3.30109 -6.32563,8.05718 -9.94156,10.64372c-1.48016,1.05879 -3.25745,1.62381 -4.89068,2.4266c-7.4785,3.67591 -14.98747,7.2912 -22.48088,10.93664c-0.33406,0.16252 -9.08088,4.42376 -9.26351,4.48739c-7.76895,2.70669 -16.65285,3.70166 -24.69234,5.48018c-33.36053,7.38012 -66.70681,14.82271 -100.05193,22.27215c-24.41965,5.45545 -48.86455,11.33615 -73.59589,15.18963c-6.61007,1.02994 -13.38734,2.6645 -20.10585,2.53025c-2.01298,-0.04022 -4.55083,0.94532 -6.02512,-0.42588c-1.64088,-1.52614 -0.98856,-4.37139 -1.48284,-6.55708c-0.66816,-5.41128 -0.39913,-10.90025 -0.39913,-16.3487v-3c0,0 0,-2.5 2.5,-2.5z" fill="#9966ff" stroke-width="0.5"/><path d="M-86,267.8c0,2.5 -2.5,2.5 -2.5,2.5l-3.72614,-0.10778c-4.14219,-2.62945 -7.94638,-5.46761 -12.24111,-7.85878c-1.44748,-1.52558 -3.35592,-2.71949 -4.34245,-4.57673c-1.34897,-2.53961 0.06638,-9.66921 1.02341,-11.96809c0.42385,-1.01814 1.59147,-1.65242 1.89356,-2.71308c0.33489,-1.17583 -0.24906,-2.45663 -0.07644,-3.66697c0.16963,-1.18936 0.79963,-2.26967 1.08943,-3.43559c0.34978,-1.40727 1.7456,-9.34325 2.17555,-10.35262c0.3766,-0.88412 1.59472,-1.19163 2.02735,-2.04973c1.28126,-2.54135 1.18659,-5.56723 1.74481,-8.35801c0.92505,-4.62473 1.60597,-9.2294 2.28869,-13.8954c0.47574,-3.25139 0.51181,-6.55249 0.83266,-9.8228c0.27021,-2.75412 1.45297,-5.35515 1.84296,-8.09487c0.1957,-1.37478 -0.24774,-2.80576 0.03269,-4.16579c0.22905,-1.11084 0.97335,-2.04897 1.46003,-3.07346c0.35875,-1.66282 0.45352,-3.40547 1.07624,-4.98847c0.60613,-1.54085 1.88529,-2.7447 2.56054,-4.25653c1.06623,-2.38722 0.50866,-5.26481 1.42752,-7.71254c0.61469,-1.63744 1.88626,-2.95314 2.67209,-4.51568c2.02665,-4.02977 3.80211,-8.76514 5.23774,-13.036c2.29687,-6.83299 4.39038,-14.44211 5.85446,-21.50047c1.02932,-4.96237 0.18248,-9.72588 0.67848,-14.69879c0.16525,-1.65687 0.77114,-3.24624 0.98011,-4.89816c0.64259,-5.07984 -0.01217,-10.62421 -0.01217,-15.75366c0,-12.66667 0,-25.33333 0,-38c0,-5.98402 -0.65378,-12.33159 0.01493,-18.27279c0.63945,-5.68124 2.28939,-11.31737 3.00438,-17.03729c0,0 0.31009,-2.48069 2.79078,-2.17061c2.48069,0.31009 2.17061,2.79078 2.17061,2.79078c-0.71166,5.6933 -2.3574,11.31241 -2.99562,16.96271c-0.65024,5.7567 0.01493,11.92575 0.01493,17.72721c0,4.31132 0,8.62265 0,12.93397l0.04296,0.81259c0.56244,10.80347 2.05923,23.27585 6.70414,33.15774c2.60502,5.5421 6.83168,10.54225 9.91462,15.83992c2.8746,4.93966 4.98056,10.42348 8.53676,14.91645c2.66461,3.39132 5.537,8.67608 8.87075,11.39317c1.09614,0.89338 2.56692,1.18738 3.84302,1.79665c4.51161,2.15406 8.99475,4.37092 13.49142,6.55604c7.28146,3.53836 14.65305,8.05173 22.2508,10.82706c4.50743,1.64649 9.64264,2.42937 14.29683,3.60843c9.69377,2.45576 19.38755,4.91151 29.08132,7.36727c6.46252,1.63717 12.92503,3.27434 19.38755,4.91151c3.13131,0.79326 6.18378,1.99871 9.38918,2.39841c7.93418,0.98937 16.68456,-0.01921 24.69065,-0.01921c11.14978,0 22.59564,0.61446 33.64645,-0.97487c0,0 2.47487,-0.35355 2.82843,2.12132c0.35355,2.47487 -2.12132,2.82843 -2.12132,2.82843c-11.29884,1.60388 -22.95608,1.02513 -34.35355,1.02513c-8.21744,0 -17.16263,0.99666 -25.30935,-0.01921c-0.20244,-0.02524 -9.6194,-2.4171 -9.99837,-2.5131c-6.46252,-1.63717 -12.92503,-3.27434 -19.38755,-4.91151c-9.69377,-2.45576 -19.38755,-4.91151 -29.08132,-7.36727c-4.81978,-1.22101 -10.11759,-2.05409 -14.7845,-3.75884c-7.76148,-2.83515 -15.28377,-7.41254 -22.7206,-11.0264c-4.49676,-2.18516 -9.00818,-4.34328 -13.49142,-6.55604c-1.60327,-0.79132 -3.40897,-1.27345 -4.79613,-2.40147c-0.37181,-0.30235 -0.73838,-0.63196 -1.10001,-0.98404c0.86293,1.29296 1.72586,2.58592 2.5888,3.87888c6.79837,10.18622 13.17431,21.48366 24.23246,27.62614c4.17898,2.35067 8.39273,5.24078 12.76329,7.20644c3.48216,1.5661 8.2232,1.96291 11.92831,2.86058c18.28172,4.42927 37.48572,2.96583 56.15637,2.96583c0,0 2.5,0 2.5,2.5c0,2.5 -2.5,2.5 -2.5,2.5c-19.09039,0 -38.63565,1.40794 -57.33174,-3.10595c-3.9661,-0.95756 -8.83695,-1.41833 -12.58357,-3.06764c-4.58559,-2.01863 -9.01466,-5.04366 -13.38397,-7.50139c-11.78046,-6.69669 -18.63529,-18.26351 -25.93998,-29.20838c-4.62606,-6.93138 -9.25212,-13.86276 -13.87818,-20.79414c-3.55737,-5.33013 -7.52506,-10.83371 -9.70804,-16.92313c-0.06631,-0.18496 -2.22864,-9.66715 -2.31271,-10.03483l-0.29891,-1.3073c0,0 -0.09523,-0.4165 -0.03478,-0.94451c-0.68555,-1.49383 -1.30558,-3.03877 -1.86655,-4.62281c0.12958,3.45279 0.23042,6.93846 -0.17373,10.25642c-0.20171,1.65601 -0.81143,3.24804 -0.98105,4.90764c-0.52613,5.1476 0.29653,10.04215 -0.75559,15.20333c-1.47687,7.24481 -3.6567,15.07812 -6.01266,22.08689c-1.50248,4.46974 -3.37426,9.453 -5.49991,13.66872c-0.71333,1.41472 -1.90775,2.57907 -2.47287,4.05925c-0.93255,2.44254 -0.40064,5.30812 -1.42752,7.71254c-0.65888,1.54275 -1.96969,2.75753 -2.58442,4.31839c-0.59813,1.51873 -0.66926,3.19519 -1.00389,4.79279c-0.99156,1.93832 -0.97322,4.24938 -1.28219,6.40456c-0.37725,2.63146 -1.55597,5.12202 -1.80103,7.76906c-0.31054,3.35439 -0.37765,6.73566 -0.86239,10.06933c-0.69106,4.75266 -1.39151,9.44418 -2.33344,14.15434c-0.32936,1.64698 -1.54933,8.28324 -2.29403,9.83618c-0.39982,0.83375 -1.60096,1.10361 -1.97265,1.95027c-1.26252,2.87585 -0.98425,6.21219 -1.74677,9.25899c-0.25199,1.00687 -0.83817,1.92577 -0.98825,2.95279c-0.20888,1.42939 0.32139,2.94432 -0.07644,4.33303c-0.35837,1.251 -1.57996,2.09686 -2.10644,3.28692c-1.17098,2.64685 -0.69151,3.3714 -0.78629,5.98862c-0.02475,0.6836 -0.52425,1.4463 -0.1903,2.04329c0.60161,1.07547 1.81908,1.66289 2.72862,2.49433c3.8345,2.09722 7.15715,4.51693 10.68782,7.07015l2.27386,-0.10778c0,0 2.5,0 2.5,2.5zM-54.66172,112.05578c-0.36067,-0.61973 -0.73598,-1.23525 -1.12188,-1.84792c0.80046,1.56753 1.69989,3.09841 2.64529,4.60097c-0.49215,-0.92665 -0.99595,-1.84674 -1.52341,-2.75306z" fill="#9966ff" stroke-width="0.5"/><path d="M-58.04253,12.83262c1.96739,-1.54253 3.50991,0.42486 3.50991,0.42486l1.36795,1.74472c3.79136,4.83924 7.2996,9.87586 10.35458,15.21624c4.40796,7.84863 12.98177,13.39147 19.71362,19.30876c18.73416,16.46733 39.01506,31.29442 58.63365,46.69665c13.82636,12.94991 28.326,26.20506 45.09337,35.34638c2.22485,1.21295 4.73487,1.80716 7.09998,2.71682c6.2223,2.39319 12.44461,4.78639 18.66691,7.17958c0,0 2.33336,0.89745 1.43592,3.23081c-0.89745,2.33336 -3.23081,1.43592 -3.23081,1.43592c-6.2223,-2.39319 -12.44461,-4.78639 -18.66691,-7.17958c-2.52363,-0.97063 -5.18751,-1.63846 -7.5662,-2.92402c-17.13337,-9.25976 -32.00114,-22.7916 -46.08812,-36.01126c-19.64812,-15.39465 -39.93078,-30.25634 -58.67882,-46.73587c-7.24809,-6.37108 -15.89137,-12.19724 -20.75381,-20.5835c-2.92837,-5.13057 -6.30452,-9.9683 -9.94814,-14.61188l-1.36795,-1.74472c0,0 -1.54253,-1.96739 0.42486,-3.50991z" fill="#9966ff" stroke-width="0.5"/><path d="M12.73223,67.03224c1.76777,-1.76777 3.53553,0 3.53553,0l0.61898,0.68764c10.77662,7.18503 21.82844,14.18789 33.21812,20.35623c2.93109,1.5874 5.86195,3.17522 8.79292,4.76283c1.82965,0.99106 3.63096,1.58588 4.96911,2.8722c0.01313,-0.63221 0.1331,-1.28095 0.1331,-1.91114c0,0 0,-2.5 2.5,-2.5c2.5,0 2.5,2.5 2.5,2.5c0,1.57941 0.23073,7.64234 -1.2207,8.14788c-2.28262,0.79505 -4.63666,-1.3981 -6.86647,-2.33106c-3.07502,-1.28661 -5.86195,-3.17522 -8.79292,-4.76283c-13.0161,-7.05039 -25.68686,-14.76135 -38.00666,-22.97386l-1.38102,-1.31236c0,0 -1.76777,-1.76777 0,-3.53553z" fill="#9966ff" stroke-width="0.5"/><text transform="translate(207.5,125.8) scale(0.5,0.5)" font-size="40" xml:space="preserve" fill="#000000" fill-rule="nonzero" stroke="none" stroke-width="1" stroke-linecap="butt" stroke-linejoin="miter" stroke-miterlimit="10" stroke-dasharray="" stroke-dashoffset="0" font-family="Curly" font-weight="normal" text-anchor="start" style="mix-blend-mode: normal"><tspan x="0" dy="0">RESULT</tspan></text><text transform="translate(180.5,148.8) scale(0.5,0.5)" font-size="40" xml:space="preserve" fill="#000000" fill-rule="nonzero" stroke="none" stroke-width="1" stroke-linecap="butt" stroke-linejoin="miter" stroke-miterlimit="10" stroke-dasharray="" stroke-dashoffset="0" font-family="Curly" font-weight="normal" text-anchor="start" style="mix-blend-mode: normal"><tspan x="0" dy="0">TEST coins collected</tspan></text></g></g></svg>