<svg version="1.1" xmlns="http://www.w3.org/2000/svg" xmlns:xlink="http://www.w3.org/1999/xlink" width="499" height="428.55578" viewBox="0,0,499,428.55578"><g transform="translate(3.5,6.69999)"><g data-paper-data="{&quot;isPaintingLayer&quot;:true}" fill-rule="nonzero" stroke="none" stroke-linecap="butt" stroke-linejoin="miter" stroke-miterlimit="10" stroke-dasharray="" stroke-dashoffset="0" style="mix-blend-mode: normal"><path d="M-3.5,378.30002v-385h499v385z" fill="#ff6666" stroke-width="0"/><path d="M293.95215,56.8132c0.48682,2.45215 -1.96533,2.93896 -1.96533,2.93896l-3.28809,0.65277c-3.31338,0.6563 -6.50633,1.90631 -9.85197,2.37092c-6.20586,0.86183 -12.74152,-0.79823 -18.9463,-0.00812c-1.04565,0.13315 -1.95378,0.87143 -3,1c-4.64613,0.57094 -9.72424,0.02293 -14.42038,0.11168c-5.08467,0.09609 -9.88697,0.91227 -14.98007,0.92061c0,0 -2.5,0 -2.5,-2.5c0,-2.5 2.5,-2.5 2.5,-2.5c5.0526,0.00898 9.82675,-0.81687 14.88194,-0.91964c4.45138,-0.0905 9.31958,0.51196 13.71761,-0.04808c1.04565,-0.13315 1.95378,-0.87143 3,-1c6.24983,-0.76801 12.83201,0.87155 19.0537,-0.00812c3.25095,-0.45965 6.35169,-1.68286 9.57185,-2.32354l3.28809,-0.65277c0,0 0.26841,-0.05328 0.64524,-0.0358c-0.40786,-0.51748 -0.82973,-1.01542 -1.39017,-1.33656c-1.2604,-0.72221 -2.80559,-0.75465 -4.20838,-1.13197c-0.66666,-1 -1.03028,-2.29 -2,-3c-1.0377,-0.75977 -4.39197,-0.54638 -5.55988,-0.54353c-4.33327,0.01055 -8.6667,-0.00003 -12.99999,0c-5.98836,0.00004 -11.72819,0.16859 -17.66818,0.97788c-2.53068,0.34479 -5.15821,0.19039 -7.60738,0.91485c-1.4782,0.43725 -2.65165,1.67847 -4.15008,2.04039c-3.50559,0.84672 -7.72151,-0.35693 -11.30187,0.05198c-4.72473,0.53961 -9.28033,2.47537 -14.02616,3.00273c-2.1403,0.23783 -4.36736,0.16051 -6.40223,0.86535c-5.27186,2.01284 -11.30119,4.71059 -14.91076,9.23179c-2.27208,2.84591 -3.2873,6.43175 -5.32418,9.27593c-1.75921,2.45645 -5.10444,3.68039 -6.41696,6.40183c-0.68513,1.42057 -0.29879,3.17981 -0.86543,4.65166c-1.16457,3.02496 -3.19276,5.65245 -4.5222,8.60865c-5.18735,11.5348 -10.91747,22.843 -16.21196,34.33661c-4.67659,10.1522 -9.00987,20.06595 -12.17184,30.76475c-1.59978,5.41298 -0.92077,11.81746 -0.92077,17.37561c0,2.68185 -0.82184,5.43686 -0.1903,8.04329c0.14768,0.60949 0.99726,0.76357 1.45807,1.18894c1.30673,1.20622 2.65702,2.383 4.13823,3.36714c6.6353,4.40857 13.25586,8.80349 20.01213,13.02475c9.74663,6.08961 20.03382,11.7791 30.18026,17.13009c1.00398,0.52947 2.27381,0.48615 3.21595,1.11916c1.06863,0.71799 1.49229,2.23836 2.64238,2.81693c0.84406,0.42462 1.96616,-0.43594 2.83386,-0.06201c1.67718,0.72275 2.87131,2.27708 4.44738,3.19973c4.9622,2.90494 11.50594,5.12351 17.91729,5.95113c0.32493,-0.41246 0.68422,-0.78406 1.13143,-1.0546c1.45751,-0.88173 3.44488,-0.51566 4.92775,-1.35405c0.33687,-0.19046 0.65155,-0.4094 0.94943,-0.65005c-0.0384,-0.05217 -0.07699,-0.10419 -0.11581,-0.15607l-0.05171,-0.0693c0,0 -1.49509,-2.00367 0.50859,-3.49876c1.28498,-0.95881 2.36078,-0.47867 2.96722,-0.01086c0.66344,-0.79597 1.36864,-1.54143 2.21354,-2.1121c0.87351,-0.58999 2.09239,-0.46393 3,-1c0.69801,-0.41227 1.0547,-1.24163 1.67632,-1.762c3.07348,-2.57287 7.99973,-6.57439 11.56358,-8.36871c1.17628,-0.59223 2.65223,-0.35498 3.84269,-0.91816c2.57217,-1.21682 3.87313,-5.31691 5.20364,-7.28628c1.30487,-1.93142 3.64049,-3.00942 4.95446,-4.93465c0.70677,-1.03556 0.97631,-2.30964 1.46447,-3.46446c2.73749,-2.77912 4.4445,-4.17681 6.48255,-7.45343c2.37732,-3.82207 3.60548,-8.39387 6.09852,-12.14745c0.47252,-0.71145 1.47457,-1.00412 1.85261,-1.76997c0.58994,-1.19513 0.38919,-2.67258 0.93952,-3.88646c1.07696,-2.37548 3.56614,-3.8574 4.90809,-6.09391c0.81081,-1.3513 1.16367,-2.93067 1.82159,-4.36265c1.54796,-3.36915 4.41447,-7.09754 5.04163,-10.84399c0.19011,-1.1357 -0.30341,-2.39082 0.1449,-3.45146c0.43386,-1.02645 1.36357,-1.77367 2.11102,-2.62014c-0.1824,-0.02461 -0.37616,-0.06939 -0.58182,-0.13793c-2.37171,-0.79057 -1.58114,-3.16227 -1.58114,-3.16227l0.90399,-2.60989c-0.01076,-1.53318 -0.02152,-3.06636 -0.03228,-4.59954c0,-10.33334 0,-20.66666 0,-31c0,-3.19987 0.41638,-6.42281 0.03228,-9.59954c-0.24088,-1.99219 -1.4217,-3.76091 -1.93258,-5.70149c-0.28189,-1.07076 -0.04434,-2.32755 -0.64324,-3.25884c-0.48247,-0.75024 -1.55281,-0.87884 -2.31532,-1.34167c-2.8665,-1.73994 -6.02221,-2.3779 -9.03021,-3.831c-1.91781,-0.92645 -4.3273,-1.26107 -5.69803,-2.89123c-0.94298,-1.12145 -0.27526,-2.91748 -0.41289,-4.37623c0,0 0,-2.5 2.5,-2.5c2.5,0 2.5,2.5 2.5,2.5c-0.13763,0.54126 -0.8348,1.25785 -0.41289,1.62377c0.91843,0.79655 2.34648,0.64476 3.49342,1.04796c3.91787,1.3773 10.89363,3.11697 13.46302,6.88815c0.92557,1.35848 0.87813,3.16855 1.35676,4.74115c0.16915,0.55576 2.02633,5.97832 2.06742,6.29851c0.04225,0.32913 0.03228,9.8385 0.03228,10.40046c0,9.12618 0,18.25236 0,27.37854c0.08611,-0.13952 0.16469,-0.28299 0.23275,-0.43192c1.56714,-3.4292 1.77381,-7.55831 1.78598,-11.25208c0.40797,-1.58965 0.50855,-3.29192 1.22393,-4.76897c0.68362,-1.41148 2.22398,-2.29423 2.88563,-3.71614c0.73282,-1.57485 -0.12829,-3.47243 -0.12829,-5.20943c0,-3.33334 0,-6.66666 0,-10c0,-2.19988 0.35144,-4.42294 0.03228,-6.59954c-0.15293,-1.04294 -0.85533,-1.95588 -1,-3c-0.16821,-1.21399 0.41453,-2.49838 0.07499,-3.676c-0.33227,-1.15237 -1.63026,-1.85076 -1.99768,-2.9924c-0.79619,-2.47387 0.13387,-5.36203 -0.90623,-7.74365c-0.42299,-0.96855 -4.95232,-6.54733 -5.56941,-7.18324c-1.66091,-1.71158 -5.09204,-4.44163 -7.23233,-5.55939c-0.7538,-0.39367 -1.65244,-0.47337 -2.45349,-0.75254c0.00135,0.00662 0.00269,0.01328 0.00402,0.01994zM209.73224,411.06778c-1.76776,-1.76776 0,-3.53553 0,-3.53553l0.27428,0.58745c1.06176,-14.60818 0.99349,-29.14202 0.99349,-43.81968c0,0 0,-1.39182 1.03849,-2.09847c-0.38464,-0.75214 -0.7288,-1.52056 -0.97161,-2.32715c-0.30652,-1.01816 0.1548,-2.14384 -0.0371,-3.18968c-0.56713,-3.0908 -1.79373,-6.07349 -2.02348,-9.20748c-0.32362,-4.4145 0.33674,-8.90124 -0.04239,-13.31446c-0.41921,-4.87984 -1.31633,-9.79054 -2.11507,-14.61902c-2.13022,-13.00674 -1.85612,-26.07523 -1.82583,-39.27019c0.03839,-16.72913 0.2199,-33.37423 0.97957,-50.08707c0,0 0.0265,-0.58311 0.33566,-1.173c-0.19897,-0.13143 -0.40728,-0.24741 -0.6288,-0.34178c-0.97113,-0.41371 -2.22102,0.40812 -3.16614,-0.06201c-1.38081,-0.68685 -2.07148,-2.33204 -3.35762,-3.18307c-0.81174,-0.53713 -1.92282,-0.42728 -2.78405,-0.88084c-1.53579,-0.8088 -2.85229,-1.98381 -4.34321,-2.87262c-8.62297,-5.14057 -17.75417,-9.17576 -26.28965,-14.50866c-6.7974,-4.24695 -13.47373,-8.64903 -20.13627,-13.10488c-2.02285,-1.35287 -6.67242,-4.33271 -7.44219,-6.80292c-0.23287,-0.7473 -0.1903,-8.36095 -0.1903,-9.9567c0,-6.02264 -0.60837,-12.752 1.07923,-18.6244c3.16006,-10.99619 7.68039,-21.20593 12.47205,-31.60791c5.28883,-11.48124 11.0017,-22.77992 16.19417,-34.29753c1.29899,-2.88134 3.29264,-5.43479 4.42778,-8.38453c0.63083,-1.63926 0.29236,-3.5922 1.09573,-5.15415c1.09828,-2.13535 5.29185,-4.89583 6.69295,-6.86344c0.68008,-0.95506 0.7833,-2.21985 1.33696,-3.25334c0.08129,-0.15174 4.16477,-6.27112 4.26779,-6.39967c4.21745,-5.26259 10.94294,-8.39035 17.08923,-10.76821c2.43626,-0.78849 5.05221,-0.85684 7.59777,-1.13465c4.72551,-0.51573 9.26098,-2.46167 13.97384,-2.99727c3.19263,-0.36283 7.59115,0.86026 10.69813,0.05198c1.3936,-0.36254 2.46661,-1.5596 3.84992,-1.95961c0.43801,-0.12666 6.91438,-0.88427 8.39262,-1.08515c7.14107,-0.97039 14.14157,-1.02212 21.33184,-1.02212c5.21453,0 13.69679,-1.49387 18.44012,1.45646c1.02054,0.63477 1.33334,2 2,3c1.26388,0.28934 2.66509,0.22615 3.79162,0.86804c1.25568,0.71549 1.88185,2.24457 3.08259,3.04887c0.8087,0.54169 1.92455,0.42401 2.78405,0.88084c2.76158,1.46778 6.43506,4.32187 8.62033,6.56536c1.21022,1.24245 5.92583,7.16574 6.57621,8.68958c0.75351,1.76547 0.92,3.73515 1.1724,5.63802c0.11492,0.86638 -0.35979,1.79385 -0.07691,2.62077c0.38983,1.13956 1.674,1.84884 2.00232,3.00761c0.39298,1.38696 -0.13435,2.89773 0.07499,4.324c0.15308,1.04292 0.85438,1.95601 1,3c0.03961,0.28401 0.03228,6.42161 0.03228,7.40046c0,4.32987 0.08179,8.67081 0,13c-0.02388,1.26402 0.34286,2.61739 -0.12829,3.79057c-0.65792,1.63826 -2.30272,2.71607 -3.11437,4.28386c-0.50923,0.98364 -0.51738,2.15402 -0.77607,3.23103c0.01495,4.24468 -0.47063,8.81194 -2.21402,12.74792c-0.46356,1.04656 -1.55528,1.75799 -1.93189,2.83888c-1.09072,3.13038 0.1692,6.77464 -0.93294,9.90102c-0.5497,1.55929 -2.32162,2.44474 -2.99179,3.95618c-0.36074,0.81357 0.20947,1.79303 0.05405,2.66931c-0.21664,1.22151 -0.67523,2.3939 -1.15498,3.53795c-1.77907,4.24256 -3.99647,9.49874 -6.3529,13.40827c-1.2806,2.12463 -3.74929,3.47066 -4.72081,5.75323c-0.55455,1.30291 -0.42148,2.8499 -1.06048,4.11353c-0.46569,0.9209 -1.57343,1.37242 -2.14739,2.23003c-2.42799,3.62789 -3.57632,8.14791 -5.90148,11.85255c-2.4108,3.84108 -3.49011,4.57154 -6.58852,7.61764c-0.48816,1.15482 -0.74697,2.43631 -1.46446,3.46447c-1.36382,1.95433 -3.73727,3.07338 -5.04554,5.06534c-1.94519,2.96175 -3.32751,6.90524 -6.79636,8.71373c-1.26972,0.66197 -2.87468,0.44523 -4.15731,1.08184c-4.73614,2.35071 -8.33953,7.18058 -12.7601,9.86928c-0.90059,0.54776 -2.11881,0.42153 -3,1c-0.76522,0.50234 -1.42023,1.143 -2.03209,1.8371c1.02671,1.69894 2.01313,3.42586 3.17875,5.02972c1.98708,2.73415 4.7862,4.83613 6.64485,7.65917c3.49793,5.3129 5.26879,10.86115 5.76288,17.10574c3.03892,9.17841 1.82999,19.45359 2.79677,29.05977c1.04364,10.36996 0.83452,20.72265 0.83452,31.18187c0,11.59605 0.12868,23.2017 -0.13132,34.79478c-2.71043,3.78665 -5.65945,9.51215 -9.27098,12.70635c0.03614,0.00191 0.07277,0.00441 0.10991,0.00751c2.49137,0.20761 2.28375,2.69897 2.28375,2.69897c-0.26709,3.20506 -1.01224,6.40232 -0.82602,9.61309c0.18622,3.21078 1.29648,6.30035 1.93183,9.45314c1.79708,8.91767 4.39988,17.76132 7.24421,26.40127l1.27501,1.99416c0,0 1.33073,2.1164 -0.78568,3.44713c-2.1164,1.33072 -3.44713,-0.78569 -3.44713,-0.78569l-1.56271,-2.519c-3.03261,-9.00099 -5.74548,-18.23703 -7.62503,-27.54938c-0.08716,-0.43186 -2.00874,-9.92137 -2.02212,-10.15212c-0.01341,-0.23126 0.79827,-9.87831 0.8349,-10.31782c0,0 0.01595,-0.19148 0.09211,-0.46385c-2.78908,1.63919 -4.60645,1.14429 -8.60118,1.17146c-6.419,0.04365 -12.89402,0.29833 -19.27313,-0.51489c-2.05488,-0.26196 -4.38308,0.16271 -6.14505,-0.9266c-0.02741,-0.01695 -0.05441,-0.03429 -0.08102,-0.05202c-0.00256,13.10104 -0.06692,26.10648 -1.00686,39.17382l-1.72572,2.58745c0,0 -1.76776,1.76776 -3.53553,0zM210.02299,280.28504c-0.02962,12.90514 -0.36544,25.72813 1.75887,38.44299c0.82273,4.97722 1.74254,10.03992 2.16876,15.07034c0.37448,4.4198 -0.25992,8.90472 0.0431,13.32441c0.20547,2.99694 1.43499,5.83776 1.97652,8.79252c0.16889,0.92151 -0.30389,1.91226 -0.0371,2.81032c0.42015,1.41429 1.42445,2.5872 2.03901,3.92849c0.38254,0.83489 0.14485,2.13934 0.94649,2.58738c1.10742,0.61894 2.53929,-0.01297 3.80532,0.06844c1.62195,0.1043 3.22813,0.40698 4.8514,0.48823c4.61834,0.23116 9.2996,-0.03544 13.9251,0.00184c3.20461,0.02583 4.88541,0.77406 7.42786,-1.44416c3.22027,-2.8096 5.52387,-7.49305 8.19717,-10.84281c-0.64073,-21.25009 1.18283,-42.77873 -0.93494,-63.89509c-0.9449,-9.42163 0.29301,-19.58179 -2.72152,-28.56313c-0.458,-5.70791 -1.87055,-10.52799 -5.07485,-15.40742c-1.80097,-2.74248 -4.54452,-4.76018 -6.47621,-7.4122c-0.10009,-0.13741 -0.19881,-0.27577 -0.29631,-0.41496c-3.05106,0.55025 -6.36375,0.68267 -9.74915,0.45533c-0.20451,0.32351 -0.42597,0.63069 -0.70033,0.88292c-0.66321,0.60971 -1.43963,1.07623 -2.21354,1.54592c-0.121,0.70754 -0.59577,2.09561 -2.45861,2.09561c-2.5,0 -2.5,-2.5 -2.5,-2.5l1.06301,-2.94111c-5.04023,-1.01006 -9.9634,-2.7263 -14.15317,-4.95923c-0.68291,15.97402 -0.85014,31.89071 -0.88685,47.88537z" fill="#000000" stroke-width="0.5"/><path d="M208.89374,233.35234c4.18976,2.23292 9.12218,3.94697 14.16241,4.95703l-1.04809,3.03999c0,0 -0.01433,2.40105 2.48567,2.40105c1.86284,0 2.3399,-1.3883 2.4609,-2.09584c0.77391,-0.4697 1.55227,-0.93633 2.21548,-1.54604c0.27436,-0.25223 0.49643,-0.55943 0.70094,-0.88294c3.3854,0.22734 6.706,0.09532 9.75705,-0.45493c0.0975,0.13919 0.1965,0.27758 0.29659,0.41499c1.9317,2.65203 4.6818,4.67107 6.48277,7.41355c3.2043,4.87944 4.62665,9.70337 5.08464,15.41128c3.01453,8.98133 1.79957,19.16635 2.74447,28.58798c2.11777,21.11636 0.26803,42.71038 0.90875,63.96047c-2.6733,3.34976 -4.98532,8.03601 -8.20558,10.8456c-2.54246,2.21823 -4.22881,1.47097 -7.43342,1.44514c-4.6255,-0.03728 -9.31715,0.22946 -13.93549,-0.0017c-1.62327,-0.08125 -3.23306,-0.3844 -4.85501,-0.4887c-1.26603,-0.08141 -2.70063,0.54997 -3.80805,-0.06897c-0.80164,-0.44804 -0.56506,-1.75275 -0.9476,-2.58764c-0.61456,-1.34129 -1.62114,-2.51482 -2.04128,-3.9291c-0.26679,-0.89806 0.20538,-1.889 0.03649,-2.81051c-0.54153,-2.95477 -1.77513,-5.79704 -1.9806,-8.79399c-0.30302,-4.41969 0.32562,-8.90741 -0.04886,-13.32721c-0.42621,-5.03042 -1.35858,-10.10324 -2.18131,-15.08046c-2.1243,-12.71486 -1.79027,-25.60246 -1.76066,-38.5076c0.03671,-15.99466 0.22687,-31.92744 0.90979,-47.90146z" data-paper-data="{&quot;noHover&quot;:false,&quot;origItem&quot;:[&quot;Path&quot;,{&quot;applyMatrix&quot;:true,&quot;segments&quot;:[[[88.02299,280.28503],[0.03671,-15.99466],[-0.02962,12.90514]],[[89.78186,318.72803],[-2.1243,-12.71486],[0.82273,4.97722]],[[91.95061,333.79837],[-0.42621,-5.03042],[0.37448,4.4198]],[[91.99371,347.12278],[-0.30302,-4.41969],[0.20547,2.99694]],[[93.97023,355.9153],[-0.54153,-2.95477],[0.16889,0.92151]],[[93.93312,358.72562],[-0.26679,-0.89806],[0.42015,1.41429]],[[95.97214,362.65411],[-0.61456,-1.34129],[0.38254,0.83489]],[[96.91863,365.24149],[-0.80164,-0.44804],[1.10742,0.61894]],[[100.72395,365.30993],[-1.26603,-0.08141],[1.62195,0.1043]],[[105.57535,365.79817],[-1.62327,-0.08125],[4.61834,0.23116]],[[119.50044,365.80001],[-4.6255,-0.03728],[3.20461,0.02583]],[[126.92831,364.35584],[-2.54246,2.21823],[3.22027,-2.8096]],[[135.12547,353.51303],[-2.6733,3.34976],[-0.64073,-21.25009]],[[134.19053,289.61794],[2.11777,21.11636],[-0.9449,-9.42163]],[[131.46901,261.05481],[3.01453,8.98133],[-0.458,-5.70791]],[[126.39416,245.64739],[3.2043,4.87944],[-1.80097,-2.74248]],[[119.91795,238.23518],[1.9317,2.65203],[-0.10009,-0.13741]],[[119.62164,237.82023],[0.0975,0.13919],[-3.05106,0.55025]],[[109.87249,238.27556],[3.3854,0.22734],[-0.20451,0.32351]],[[109.17215,239.15848],[0.27436,-0.25223],[-0.66321,0.60971]],[[106.95861,240.7044],[0.77391,-0.4697],[-0.121,0.70754]],[[104.5,242.80001],[1.86284,0],[-2.5,0]],[102,240.30001],[[103.06301,237.35889],[0,0],[-5.04023,-1.01006]],[[88.90984,232.39967],[4.18976,2.23292],[-0.68291,15.97402]]],&quot;closed&quot;:true}]}" fill="#0084ff" stroke-width="0.5"/><path d="M293.97898,53.75391c0.80105,0.27918 1.70056,0.35957 2.45436,0.75324c2.14029,1.11776 5.57455,3.85061 7.23546,5.56219c0.61709,0.63591 5.1493,6.21773 5.57229,7.18628c1.0401,2.38162 0.11201,5.27219 0.9082,7.74605c0.36742,1.14164 1.66645,1.84143 1.99872,2.9938c0.33954,1.17762 -0.24237,2.46321 -0.07416,3.6772c0.14467,1.04412 0.8479,1.95833 1.00083,3.00127c0.31916,2.1766 -0.03083,4.40215 -0.03083,6.60202c0,3.33334 0.00208,6.67093 0.00208,10.00427c0,1.737 0.8621,3.63706 0.12928,5.21191c-0.66165,1.42191 -2.20154,2.306 -2.88516,3.71749c-0.71537,1.47705 -0.81522,3.18166 -1.2232,4.77132c-0.01217,3.69377 -0.21749,7.82921 -1.78462,11.25841c-0.06806,0.14893 -0.24561,0.30673 -0.33172,0.44625c0,-9.12618 0.00458,-18.23744 0.00458,-27.36362c0,-0.56196 0.01241,-10.06692 -0.02984,-10.39605c-0.0411,-0.32019 -1.89638,-5.73992 -2.06553,-6.29569c-0.47862,-1.5726 -0.42974,-3.38075 -1.35531,-4.73923c-2.56939,-3.77117 -9.54001,-5.5053 -13.45788,-6.8826c-1.14694,-0.40319 -2.57363,-0.25019 -3.49206,-1.04675c-0.42191,-0.36592 0.27558,-1.08225 0.41321,-1.6235c0,0 0.00149,-2.49878 -2.49851,-2.49878c-2.5,0 -2.43852,2.42113 -2.43852,2.42113c0.13763,1.45874 -0.52871,3.25588 0.41428,4.37733c1.37073,1.63016 3.7829,1.96719 5.70071,2.89364c3.008,1.4531 6.16717,2.09475 9.03367,3.83469c0.76251,0.46283 1.83372,0.59249 2.31619,1.34273c0.59891,0.93129 0.36235,2.18939 0.64424,3.26014c0.51088,1.94058 1.69356,3.71195 1.93444,5.70414c0.38411,3.17673 -0.02985,6.40384 -0.02985,9.6037c0,10.33334 0.00541,20.68467 0.00541,31.01801c0.01076,1.53318 0.02175,3.06945 0.03251,4.60262l-0.90395,2.61165c0,0 -0.7906,2.37383 1.58111,3.1644c0.20566,0.06855 0.39942,0.1134 0.58181,0.13801c-0.74744,0.84647 -1.67726,1.59553 -2.11112,2.62198c-0.44832,1.06064 0.04498,2.3181 -0.14514,3.4538c-0.62715,3.74644 -3.49529,7.48273 -5.04325,10.85188c-0.65793,1.43198 -1.01182,3.01452 -1.82263,4.36582c-1.34195,2.2365 -3.83326,3.72342 -4.91022,6.0989c-0.55033,1.21388 -0.35089,2.69382 -0.94083,3.88895c-0.37804,0.76585 -1.38099,1.06006 -1.85352,1.77151c-2.49303,3.75358 -3.72697,8.33302 -6.10429,12.15508c-2.03805,3.27662 -3.75003,4.67904 -6.48753,7.45816c-0.48816,1.15482 -0.75947,2.43031 -1.46624,3.46587c-1.31398,1.92523 -3.65341,3.00584 -4.95828,4.93726c-1.33051,1.96937 -2.63605,6.07196 -5.20823,7.28878c-1.19046,0.56317 -2.66866,0.32694 -3.84493,0.91917c-3.56384,1.79432 -8.49813,5.79846 -11.5716,8.37132c-0.62162,0.52037 -0.97949,1.35 -1.67751,1.76227c-0.90761,0.53607 -2.12832,0.41035 -3.00182,1.00035c-0.8449,0.57067 -1.55156,1.31635 -2.215,2.11232c-0.60644,-0.46781 -1.68394,-0.94776 -2.96892,0.01106c-2.00368,1.49508 -0.5186,3.39927 -0.5186,3.39927l0.05169,0.0693c0.03881,0.05187 0.08704,0.20344 0.12544,0.2556c-0.29788,0.24064 -0.61312,0.45964 -0.94999,0.6501c-1.48287,0.83839 -3.47299,0.47248 -4.9305,1.35421c-0.44721,0.27054 -0.80713,0.64216 -1.13206,1.05462c-6.41135,-0.82762 -12.96525,-3.04705 -17.92746,-5.95199c-1.57607,-0.92265 -2.77304,-2.4776 -4.45021,-3.20035c-0.86771,-0.37393 -1.99133,0.48622 -2.83539,0.0616c-1.15009,-0.57858 -1.57562,-2.09951 -2.64425,-2.8175c-0.94214,-0.633 -2.21388,-0.59035 -3.21785,-1.11982c-10.14644,-5.35099 -20.45086,-11.0513 -30.19749,-17.14091c-6.75627,-4.22126 -13.38477,-8.62603 -20.02006,-13.0346c-1.48121,-0.98414 -2.83282,-2.1632 -4.13955,-3.36942c-0.46081,-0.42536 -1.31081,-0.58026 -1.45849,-1.18974c-0.63153,-2.60643 0.18867,-5.36489 0.18867,-8.04674c0,-5.55814 -0.68181,-11.97127 0.91796,-17.38425c3.16197,-10.6988 7.49467,-20.63164 12.17126,-30.78384c5.29449,-11.49362 11.03544,-22.82563 16.2228,-34.36043c1.32944,-2.9562 3.362,-5.58833 4.52657,-8.61329c0.56664,-1.47185 0.18212,-3.23271 0.86726,-4.65328c1.31253,-2.72144 4.66232,-3.94882 6.42153,-6.40527c2.03688,-2.84417 3.057,-6.4329 5.32908,-9.27881c3.60958,-4.5212 9.64825,-7.22262 14.92011,-9.23546c2.03486,-0.70484 4.2655,-0.62838 6.40581,-0.86621c4.74583,-0.52736 9.30955,-2.46408 14.03427,-3.00369c3.58036,-0.40891 7.80267,0.79492 11.30826,-0.05181c1.49842,-0.36192 2.67403,-1.6029 4.15223,-2.04015c2.44916,-0.72446 5.08061,-0.56937 7.61129,-0.91416c5.93999,-0.80929 11.68804,-0.97529 17.6764,-0.97533c4.33328,-0.00003 8.6719,0.01302 13.00517,0.00247c1.16791,-0.00285 4.52425,-0.21504 5.56195,0.54474c0.96972,0.71 1.33464,2.00082 2.00131,3.00082c1.40279,0.37732 2.94957,0.41084 4.20997,1.13305c0.56044,0.32113 0.98304,0.8196 1.3909,1.33708c-0.37683,-0.01749 -0.7045,0.11635 -0.7045,0.11635l-3.2872,0.6534c-3.22016,0.64068 -6.31809,1.86572 -9.56904,2.32537c-6.22169,0.87967 -12.79556,-0.75587 -19.04539,0.01214c-1.04622,0.12857 -1.95302,0.86733 -2.99867,1.00048c-4.39803,0.56004 -9.25866,-0.04048 -13.71004,0.05002c-5.05519,0.10278 -9.8204,0.92937 -14.873,0.92039c0,0 -2.4984,-0.00004 -2.4984,2.49996c0,2.5 2.49777,2.40004 2.49777,2.40004c5.0931,-0.00834 9.90497,-0.82366 14.98964,-0.91975c4.69615,-0.08875 9.78255,0.46158 14.42868,-0.10936c1.04622,-0.12857 1.95571,-0.86632 3.00136,-0.99947c6.20478,-0.79011 12.74881,0.87433 18.95467,0.0125c3.34564,-0.46462 6.54143,-1.71264 9.8548,-2.36894l3.28894,-0.65211c0,0 2.39034,-0.4082 1.90353,-2.86034c-0.00133,-0.00667 0.05904,-0.09202 0.05768,-0.09864z" data-paper-data="{&quot;noHover&quot;:false,&quot;origItem&quot;:[&quot;Path&quot;,{&quot;applyMatrix&quot;:true,&quot;segments&quot;:[[[343.90429,113.62638],[-0.00265,-0.01334],[0.97363,4.90429]],[339.97363,119.5043],[[333.39744,120.80983],[0,0],[-6.62675,1.3126]],[[313.69351,125.55168],[6.69128,-0.92924],[-12.41172,1.72365]],[[275.80091,125.53544],[12.40957,-1.58022],[-2.0913,0.2663]],[[269.80091,127.53544],[2.09245,-0.25713],[-9.29226,1.14187]],[[240.96014,127.75879],[9.39229,-0.17749],[-10.16933,0.19217]],[[211,129.60001],[10.18621,-0.01667],[0,0]],[[206,124.60001],[0,5],[0,-5]],[[211,119.60001],[0,0],[10.1052,0.01796]],[[240.76388,117.76072],[-10.11038,0.20555],[8.90276,-0.181]],[[268.19909,117.66457],[-8.79606,1.12008],[2.0913,-0.2663]],[[274.19909,115.66457],[-2.09245,0.25713],[12.49966,-1.53601]],[[312.30649,115.64833],[-12.44337,1.75934],[6.50189,-0.91929]],[[331.45019,111.00125],[-6.44032,1.28135],[0,0]],[338.02637,109.69572],[[339.31685,109.62412],[-0.75367,-0.03497],[-0.81572,-1.03496]],[[336.53651,106.95101],[1.12088,0.64227],[-2.5208,-1.44442]],[[328.11976,104.68708],[2.80558,0.75464],[-1.33333,-2]],[[324.11976,98.68708],[1.93943,1.42],[-2.0754,-1.51955]],[[313,97.60001],[2.33582,-0.00569],[-8.66654,0.0211]],[[287.00003,97.60001],[8.66657,-0.00006],[-11.97672,0.00008]],[[251.66367,99.55577],[11.87997,-1.61858],[-5.06136,0.68958]],[[236.44892,101.38547],[4.89832,-1.44892],[-2.9564,0.8745]],[[228.14876,105.46625],[2.99685,-0.72385],[-7.01118,1.69345]],[[205.54502,105.57021],[7.16072,-0.81782],[-9.44945,1.07922]],[[177.49269,111.57567],[9.49167,-1.05472],[-4.28061,0.47566]],[[164.68824,113.30637],[4.06973,-1.40967],[-10.54372,4.02567]],[[134.86671,131.76995],[7.21915,-9.0424],[-4.54415,5.69181]],[[124.21835,150.3218],[4.07376,-5.68834],[-3.51842,4.9129]],[[111.38443,163.12545],[2.62505,-5.44288],[-1.37026,2.84115]],[[109.65356,172.42876],[1.13328,-2.9437],[-2.32913,6.04992]],[[100.60915,189.64607],[2.65889,-5.91241],[-10.37471,23.06959]],[[68.18522,258.3193],[10.58899,-22.98724],[-9.35319,20.3044]],[[43.84154,319.8488],[6.32394,-21.3976],[-3.19955,10.82596]],[[42,354.60001],[0,-11.11628],[0,5.36369]],[[41.6194,370.68659],[-1.26307,-5.21286],[0.29536,1.21897]],[[44.53553,373.06447],[-0.92162,-0.85073],[2.61346,2.41244]],[[52.81199,379.79875],[-2.96242,-1.96827],[13.2706,8.81713]],[[92.83624,405.84825],[-13.51254,-8.44252],[19.49326,12.17922]],[[153.19676,440.10843],[-20.29288,-10.70197],[2.00796,1.05895]],[[159.62866,442.34675],[-1.88428,-1.26601],[2.13726,1.43598]],[[164.91342,447.98061],[-2.30019,-1.15715],[1.68812,0.84924]],[[170.58114,447.85659],[-1.73541,-0.74785],[3.35435,1.4455]],[[179.4759,454.25605],[-3.15214,-1.8453],[9.92441,5.80988]],[[215.31048,466.15831],[-12.8227,-1.65524],[0.64987,-0.82493]],[[217.57334,464.0491],[-0.89442,0.54108],[2.91502,-1.76346]],[[227.42883,461.341],[-2.96573,1.67679],[0.67373,-0.38092]],[[229.32769,460.04091],[-0.59575,0.48128],[-0.0768,-0.10433]],[[229.09607,459.72878],[0.07763,0.10375],[0,0]],[228.99265,459.59018],[[230.00983,452.59266],[-4.00735,2.99017],[2.56995,-1.91763]],[[235.94427,452.57095],[-1.21288,-0.93562],[1.32688,-1.59195]],[[240.37134,448.34675],[-1.6898,1.14134],[1.74702,-1.17999]],[[246.37134,446.34675],[-1.81521,1.07213],[1.39603,-0.82455]],[[249.72399,442.82274],[-1.24324,1.04074],[6.14695,-5.14573]],[[272.85114,426.08532],[-7.12769,3.58863],[2.35255,-1.18446]],[[280.53651,424.24901],[-2.38092,1.12634],[5.14435,-2.43364]],[[290.94379,409.67645],[-2.66102,3.93874],[2.60974,-3.86284]],[[300.85272,399.80714],[-2.62796,3.85046],[1.41355,-2.07112]],[[303.78165,392.87821],[-0.97631,2.30964],[5.47499,-5.55824]],[[316.74675,377.97135],[-4.07611,6.55325],[4.75464,-7.64413]],[[328.94379,353.67645],[-4.98607,7.50717],[0.94505,-1.4229]],[[332.649,350.13651],[-0.75608,1.5317],[1.17988,-2.39026]],[[334.52804,342.36359],[-1.10066,2.42776],[2.15392,-4.75097]],[[344.34421,330.17577],[-2.6839,4.47301],[1.62162,-2.70261]],[[347.98739,321.45046],[-1.31585,2.86396],[3.09591,-6.73829]],[[358.07064,299.76249],[-1.25431,7.49288],[0.38023,-2.2714]],[[358.36045,292.85957],[-0.89663,2.12129],[0.86773,-2.0529]],[[362.58249,287.61929],[-1.49489,1.69295],[-0.36479,-0.04921]],[[361.41886,287.34342],[0.41131,0.1371],[-4.74342,-1.58114]],[358.25658,281.01887],[[360.06456,275.79909],[0,0],[-0.02152,-3.06636]],[[360,266.60001],[0.02152,3.06636],[0,-20.66667]],[[360,204.60001],[0,20.66667],[0,-6.39973]],[[360.06456,185.40092],[0.76821,6.35346],[-0.48176,-3.98439]],[[356.1994,173.99794],[1.02176,3.88117],[-0.56378,-2.14151]],[[354.91292,167.48025],[1.19781,1.86258],[-0.96495,-1.50048]],[[350.28228,164.79691],[1.52502,0.92567],[-5.73301,-3.47988]],[[332.22185,157.13492],[6.016,2.90619],[-3.83562,-1.8529]],[[320.82579,151.35246],[2.74147,3.26031],[-1.88597,-2.2429]],[[320,142.60001],[0.27526,2.91749],[0,0]],[[325,137.60001],[-5,0],[5,0]],[[330,142.60001],[0,0],[-0.27526,1.08251]],[[329.17421,145.84755],[-0.84381,-0.73184],[1.83687,1.59311]],[[336.16105,147.94347],[-2.29387,-0.80639],[7.83573,2.7546]],[[363.08708,161.71976],[-5.13878,-7.54235],[1.85113,2.71696]],[[365.8006,171.20207],[-0.95725,-3.1452],[0.3383,1.11152]],[[369.93544,183.79909],[-0.08219,-0.64038],[0.08449,0.65825]],[[370,204.60001],[0,-1.12392],[0,18.25236]],[[370,259.35709],[0,-18.25236],[0.17221,-0.27904]],[[370.46551,258.49325],[-0.13613,0.29787],[3.13427,-6.8584]],[[374.03746,235.98909],[-0.02434,7.38754],[0.81595,-3.17931]],[[376.48531,226.45115],[-1.43075,2.95411],[1.36724,-2.82297]],[[382.25658,219.01887],[-1.32331,2.84382],[1.46565,-3.1497]],[[382,208.60001],[0,3.47401],[0,-6.66667]],[[382,188.60001],[0,6.66667],[0,-4.39975]],[[382.06456,175.40092],[0.63833,4.3532],[-0.30586,-2.08588]],[[380.06456,169.40092],[0.28934,2.08824],[-0.33642,-2.42798]],[[380.21454,162.04893],[0.67908,2.35523],[-0.66453,-2.30474]],[[376.21917,156.06413],[0.73485,2.28329],[-1.59237,-4.94773]],[[374.40671,140.57684],[2.0802,4.76324],[-0.84597,-1.93709]],[[363.26789,126.21036],[1.23418,1.27183],[-3.32182,-3.42317]],[[348.80324,115.09158],[4.28057,2.23551],[-1.5076,-0.78734]],[[343.89626,113.58649],[1.60211,0.55836],[0.00271,0.01325]]],&quot;closed&quot;:true}]}" fill="#ffffff" stroke-width="0.5"/><path d="M259.99475,145.13805c0.16196,2.49475 -2.33279,2.6567 -2.33279,2.6567l-3.13692,0.20043c-10.19322,1.71582 -20.64813,4.78115 -31.02504,4.80482c0,0 -2.5,0 -2.5,-2.5c0,-2.5 2.5,-2.5 2.5,-2.5c10.14185,0.02627 20.48544,-3.10629 30.44884,-4.77151l3.3892,-0.22324c0,0 2.49475,-0.16196 2.65671,2.3328z" fill="#000000" stroke-width="0.5"/></g></g></svg>