<svg version="1.1" xmlns="http://www.w3.org/2000/svg" xmlns:xlink="http://www.w3.org/1999/xlink" width="582" height="470.30564" viewBox="0,0,582,470.30564"><g transform="translate(42.5,12.7)"><g data-paper-data="{&quot;isPaintingLayer&quot;:true}" fill-rule="nonzero" stroke="none" stroke-linecap="butt" stroke-linejoin="miter" stroke-miterlimit="10" stroke-dasharray="" stroke-dashoffset="0" style="mix-blend-mode: normal"><path d="M-42.5,380.3v-393h582v393z" fill="#923434" stroke-width="0"/><path d="M107.5,282.3v-229h260v229z" fill="#ff0000" stroke-width="0"/><path d="M154.5,187.3v-77h153v77z" fill="#d00000" stroke-width="0"/><path d="M256.82945,159.7838c-1.60046,-1.92055 0.32009,-3.52101 0.32009,-3.52101l2.17456,-1.7996c1.40694,-0.81016 3.13742,-1.17428 4.27643,-2.33122c1.13207,-1.14989 0.67179,-3.02597 1.09007,-4.33976c0.3442,-1.0811 0.99333,-2.04016 1.49,-3.06024c0,0 1.11803,-2.23607 3.3541,-1.11803c2.23607,1.11803 1.11803,3.3541 1.11803,3.3541c-1.47812,2.85543 -1.16598,6.05274 -3.41993,8.6c-0.30498,0.34467 -4.30894,2.57857 -5.0569,3.00212l-1.82544,1.53373c0,0 -1.92055,1.60046 -3.52101,-0.32009z" fill="#000000" stroke-width="0.5"/><path d="M359.37171,354.80944c0.79057,2.37171 -1.58114,3.16228 -1.58114,3.16228l-3.3896,1.09593c-2.54721,0.02495 -5.12307,0.1758 -7.71312,0.37055c-0.88278,2.68653 -1.76557,5.38591 -2.22011,8.06228c-0.31253,1.8402 0.03228,3.733 0.03228,5.59954c0,5 0,10 0,15c0,2.66667 0.18684,5.33989 0,8c-0.10672,1.51936 0.52288,3.43745 -0.52949,4.53853c-1.91877,2.00758 -7.67239,2.27668 -10.27597,1.94274c-2.81399,-0.36092 -5.32758,-1.98664 -7.85841,-3.26871c-3.90284,-1.9771 -8.22567,-3.46927 -12.51295,-4.86028c0.50639,1.98651 1.1039,3.90737 1.92407,5.55233c1.97243,3.95596 5.86856,6.96379 7.94111,10.88664c1.59623,3.02128 2.59243,6.32349 3.93181,9.46707c1.60281,3.76185 2.34536,7.38259 4.31779,11.02989c1.06903,1.9768 1.5133,4.49893 3.27655,5.89232c1.32693,1.04859 3.47633,1.09639 4.41212,2.50514c0.82866,1.24746 -0.32046,3.095 0.23244,4.48681c0.56294,1.41708 2.19132,2.17572 2.94162,3.50315c0.88583,1.56722 1.26442,3.37116 1.89663,5.05674l0.28878,2.00432c0,0 0.2633,2.4861 -2.22279,2.7494c-2.4861,0.2633 -2.7494,-2.22279 -2.7494,-2.22279l-0.00855,-0.80307c-0.5197,-1.44239 -0.80644,-2.99148 -1.55909,-4.32718c-0.88822,-1.5763 -2.64352,-2.6216 -3.30533,-4.30554c-0.42929,-1.09229 0.88571,-2.53818 0.23244,-3.51319c-0.72116,-1.07635 -2.5778,-0.68347 -3.58788,-1.49486c-2.16472,-1.7389 -2.94179,-4.71496 -4.25132,-7.16341c-3.46813,-6.48443 -4.78785,-13.88881 -8.22254,-20.44731c-2.09575,-4.00182 -6.04412,-7.05703 -8.05889,-11.11336c-1.37474,-2.76775 -2.18758,-6.21195 -2.95213,-9.5277c-0.19761,-0.06517 -0.39469,-0.13048 -0.5912,-0.19599l-3,-1c0,0 -2.37171,-0.79057 -1.58114,-3.16228v0.00002c0.79057,-2.37171 3.16228,-1.58114 3.16228,-1.58114l0.71327,0.23776l0.07081,-2.47239c0.71231,-2.84398 1.5465,-5.65906 2.47251,-8.44081c1.89527,-5.65715 3.37865,-11.97299 4.37006,-18.19539c-0.05657,-0.01357 -0.0894,-0.02136 -0.09561,-0.02268c-6.63641,-1.40299 -12.59118,-2.75788 -18.97928,-5.1026c-4.12239,-0.63986 -7.32293,-0.36071 -9.99701,-4.11807c-0.04016,0.02617 -0.08044,0.05238 -0.12084,0.07861c-4.57598,0.08575 -9.1477,0.1347 -13.72446,0.10727c-1.50912,-0.00904 -3.0467,-0.33764 -4.52723,-0.04511c-1.62433,0.32094 -2.98789,1.51679 -4.60966,1.85043c-1.6943,0.34856 -3.46989,-0.04631 -5.18672,0.16491c-3.2194,0.39608 -6.43272,1.01985 -9.67638,1.02977h-1c0,0 -2.5,0 -2.5,-2.5c0,-2.5 2.5,-2.5 2.5,-2.5h1c3.03211,0.01039 6.03232,-0.6245 9.04241,-0.98942c1.59194,-0.19299 3.23947,0.2234 4.80971,-0.10199c1.6427,-0.34041 3.02641,-1.5534 4.6751,-1.86348c5.3895,-1.01365 12.28977,-0.07479 17.74831,0.06216c0.24543,-0.17247 0.48458,-0.34748 0.71634,-0.52629c0.01034,-1.61158 0.06057,-3.20994 0.07643,-3.90537c0.11338,-4.96912 0.37008,-9.43929 2.33523,-14.07177c0.83825,-1.97602 1.10584,-4.39133 2.67245,-5.85865c0.55215,-0.51715 1.33474,-0.50322 2.14916,-0.43667c0.13262,-0.39573 0.24066,-0.79739 0.30711,-1.20898c0.2182,-1.35141 0.40372,-2.71767 0.57568,-4.09197c-0.08778,-0.00408 -0.17555,-0.00821 -0.26331,-0.01241c-7.39114,-0.35335 -14.65491,-2.4779 -22.02188,-3.00146c-5.9833,-0.42522 -12.12569,0.59375 -18.09557,-0.00864c-4.42709,-0.44671 -8.20756,-2.00317 -12.72721,-1.98507c-7.16902,0 -14.04375,-0.56202 -21.15534,-1.00483c-5.98436,-0.37263 -11.74333,0.53515 -17.66743,0.99854c-2.94825,0.23062 -5.93316,-0.34409 -8.87176,-0.01244c-1.3657,0.15413 -2.63894,0.80921 -4,1c-3.93362,0.55141 -8.17238,-0.045 -12.13818,0.30214c-9.09068,0.79575 -18.01752,2.70801 -27.16728,2.71659c-5.34947,0 -10.67448,0.32982 -15.99841,0.61782c-0.19121,2.64958 -0.34816,5.31028 -0.50225,7.93962c-0.08059,1.37522 0.35774,2.90916 -0.29515,4.1222c-0.56961,1.0583 -2.30563,1.01903 -3,2c-0.35517,0.50176 0.26263,1.20651 0.29581,1.82036c0.05947,1.10023 0.13462,2.21434 -0.01873,3.30546c-0.43879,3.12203 -1.17862,6.20305 -2.0444,9.23456c-0.40947,1.43375 -0.50268,3.1783 -1.61472,4.17163c-1.61564,1.44318 -3.9727,1.72911 -5.95905,2.59367c-2.85034,0.09636 -5.7296,-0.21929 -8.55411,0.17551c-4.52685,0.63275 -8.72754,1.97568 -13.309,2.01917l-0.88197,0.73607c0,0 -2.23607,1.11803 -3.3541,-1.11803c-1.11803,-2.23607 1.11803,-3.3541 1.11803,-3.3541l3.11803,-1.26393c4.29159,0.05329 8.42855,-1.40636 12.691,-1.98083c2.69625,-0.36339 5.44095,-0.06128 8.16113,-0.11058c1.10857,-0.37341 2.42918,-0.36884 3.32572,-1.12024c0.52795,-0.44248 0.28754,-1.34739 0.42412,-2.02257c0.58049,-2.86952 1.49506,-5.67413 1.91677,-8.57124c0.26299,-1.80672 -0.53531,-5.35095 0.27708,-6.87419c0.56558,-1.06046 2.31243,-1.01426 3,-2c0.36249,-0.51969 -0.28595,-1.24425 -0.29515,-1.8778c-0.02116,-1.45708 0.04603,-2.91833 0.20448,-4.36693c0.11687,-1.06847 0.2097,-2.13923 0.29316,-3.21089c-5.06085,0.21415 -10.12732,0.28541 -15.2195,-0.10513c-1.88214,-0.14435 -10.54387,-0.64517 -11.61843,-1.56674c-1.90935,-1.63751 0.12262,-8.53292 0.36922,-10.07641c0.53466,-3.34654 0.40236,-5.61628 1.01052,-9.06254c0.83049,-4.70609 2.30849,-9.14721 2.98501,-13.90747c0,0 0.35355,-2.47487 2.82843,-2.12132c2.47487,0.35355 2.12132,2.82843 2.12132,2.82843c-0.6918,4.81895 -2.17641,9.33049 -3.01499,14.09253c-0.12869,0.73076 -0.82319,7.89835 -0.98948,8.93746c-0.2565,1.60289 -0.53307,3.20844 -0.96394,4.7735c-0.11762,0.42725 -1.09415,1.03268 -0.66685,1.15009c1.08102,0.29704 2.21632,-0.41187 3.33739,-0.41629c1.66665,-0.00657 3.32354,0.25527 4.98527,0.38348c5.08851,0.39261 10.1529,0.31282 15.2124,0.09074c0.04787,-0.57125 0.09956,-1.14215 0.15729,-1.71248c0.56721,-5.60338 1.59885,-12.38676 3.21932,-17.73791c0.4696,-1.55072 1.41858,-2.93747 1.81994,-4.50724c0.77825,-3.04383 1.07237,-6.21457 2.05705,-9.19802c0,0 0.79057,-2.37171 3.16228,-1.58114c2.37171,0.79057 1.58114,3.16228 1.58114,3.16228c-0.95957,2.84728 -1.19836,5.89108 -1.94295,8.80198c-0.42453,1.65965 -1.39312,3.13929 -1.89397,4.77753c-1.54142,5.04191 -2.4999,11.50285 -3.02794,16.78313c-0.03179,0.31794 -0.06273,0.63652 -0.09286,0.95566c5.18685,-0.28727 10.37528,-0.60887 15.586,-0.60887c8.99442,0.00897 17.79367,-1.9185 26.73221,-2.69762c3.88486,-0.33862 8.11311,0.27736 11.96233,-0.28364c1.36,-0.19821 2.63379,-0.85043 4,-1c4.39402,-0.48104 5.11183,0.30823 9.12824,-0.01244c6.14377,-0.49052 12.12659,-1.38778 18.33257,-1.00146c7.01551,0.43671 13.77167,0.99517 20.84466,0.99517c4.6987,0.01642 8.6908,1.55772 13.27279,2.01493c5.9001,0.58873 11.987,-0.42918 17.90443,-0.00864c7.35176,0.52247 14.60469,2.65459 21.97812,2.99854c0.18232,0.0085 0.36467,0.01675 0.54707,0.02475c0.24425,-2.02402 0.50866,-4.0477 0.85305,-6.04971c0.427,-2.48222 1.6369,-6.25577 1.00955,-8.91342c-0.34416,-1.45798 -1.64578,-2.57101 -1.99218,-4.02846c-0.78467,-3.30141 -0.4773,-6.7804 -1.03882,-10.127c0,0 -0.00474,-0.02844 -0.01015,-0.07971c-0.0174,-0.02307 -0.03472,-0.04623 -0.05195,-0.0695c-1.76815,-2.38649 -1.76918,-6.65878 -3.18634,-9.30151c-1.56385,-2.91627 -4.34374,-5.05068 -5.96496,-7.93545c-2.48145,-4.41545 -3.92503,-9.78136 -5.02779,-14.67268c-2.02718,-5.38743 -5.43083,-11.41559 -6.25825,-17.13793c-0.71759,-4.9628 0.60589,-10.20135 -0.02238,-15.16785c-0.67834,-5.3623 -1.86246,-11.17459 -0.97989,-16.6468c0.16784,-1.04064 0.86947,-1.95402 1,-3c0.39733,-3.18403 -0.0892,-6.59985 1.15802,-9.55625c2.32912,-5.52091 7.03512,-10.09659 8.94502,-15.85463c0.53949,-1.62648 0.42338,-3.43409 1.03072,-5.03648c0.47581,-1.25537 1.44355,-2.26397 2.16532,-3.39595c4.24306,-8.49868 7.65291,-17.38677 11.93258,-25.87426c1.22905,-2.43746 2.40225,-5.9479 5.27936,-7.19166c1.21202,-0.52395 2.63658,-0.16225 3.95671,-0.1903c4.8072,-0.10214 9.91806,0.53677 14.69454,0.01873c4.09576,-0.44421 6.91364,-2.901 10.73108,-3.95185c2.84397,-0.78288 7.65699,-0.06688 10.57438,-0.06688h1.5367c0.30887,-2 2.4633,-2 2.4633,-2c9.08523,0.09163 18.27303,5.9272 25.69883,11.00897c0.78421,0.53667 7.03603,5.29512 7.57227,6.44599c0.63767,1.36854 -0.17475,3.05719 0.17444,4.52606c0.74581,3.13732 3.06664,5.72857 3.95706,8.82794c0.47626,1.65778 0.39023,3.43295 0.74965,5.11993c1.04084,4.88533 3.39873,9.63469 4.14151,14.57373c0.65558,4.35922 0.20612,9.58958 0.20624,13.99737c0,7.98385 0.51639,15.68396 -1.45154,23.42696c-0.35943,1.4142 -1.9942,9.25138 -2.5038,10.31719c-0.52872,1.10578 -1.80758,1.68484 -2.50087,2.69561c-1.5124,2.20497 -1.65481,5.09549 -2.74289,7.5379c-0.86472,1.94106 -4.00759,6.09469 -5.08544,8.18065c-2.2047,4.26678 -4.0406,9.07249 -5.79747,13.54322c-1.83027,4.65753 -2.99564,9.74614 -5.12398,14.27317c-0.71378,1.51822 -1.82213,2.82527 -2.57303,4.32547c-0.65334,1.30527 -0.82063,2.84877 -1.62696,4.06549c-0.70035,1.05681 -1.85622,1.72736 -2.78433,2.59104c0.08159,2.7197 -1.50627,5.31806 -3.00307,7.59029c-2.25792,3.42765 -5.20227,6.33817 -8.23383,9.18479c0.6781,0.28033 1.42721,0.89972 1.42721,2.26821c0,2.5 -2.5,2.5 -2.5,2.5c-1.35492,-0.01424 -2.73294,0.17447 -4.08318,0.11911c-0.04976,0.0495 -0.09945,0.09905 -0.14906,0.14866l-0.27895,0.0738c3.02194,1.18145 5.95904,2.49733 8.71658,3.96823c1.02518,0.54684 1.86497,1.40295 2.89299,1.94443c1.07877,0.56821 2.59633,0.4957 3.47905,1.27157c0.13226,-0.01684 0.27293,-0.0258 0.42256,-0.0258c1.05262,0 1.66203,0.4432 2.01486,0.95639c0.71039,-0.08878 1.42145,-0.16774 2.13388,-0.22404c0.64292,-0.05081 1.28569,0.68705 1.88311,0.44412c0.37091,-0.15082 0.02902,-0.80384 -0.02177,-1.201c-0.39895,-3.11977 -1.15411,-6.18561 -1.59536,-9.29967c-0.58786,-4.14868 -0.41474,-8.30044 -0.41474,-12.47581v-3c0,0 0,-2.5 2.5,-2.5l0.00002,0.00001c2.5,0 2.5,2.5 2.5,2.5v3c0,5.80124 0.36879,10.91411 1.26031,16.64793c0.48476,3.11777 1.89262,7.71928 -1.29218,10.37558c-1.11047,0.92619 -2.88296,0.25618 -4.31108,0.48296c-0.86133,0.13677 -1.7096,0.35414 -2.56027,0.55374c-0.13573,1.2159 -0.15504,2.40906 0.29595,3.51533c1.16724,2.86327 3.51964,5.0852 5.2344,7.65821c2.35324,3.53105 4.59862,7.12771 6.57706,10.8866c0.07005,0.13309 4.32252,8.56586 4.21874,8.79562c-0.53871,1.19265 -7.49096,4.85697 -9.46622,5.69373c-0.92315,0.39107 -1.9597,0.49155 -2.85833,0.93609c-1.19482,0.59107 -2.08129,1.82123 -3.37392,2.14694c-1.79333,0.45188 -3.7033,-0.0409 -5.54724,0.10098c-0.8881,0.06834 -1.77131,0.13802 -2.65115,0.20722c-0.03334,0.13511 -0.06691,0.27025 -0.1007,0.40542c-0.0469,0.18724 -0.09532,0.37468 -0.14513,0.56229c1.78183,-0.09996 3.55621,-0.1565 5.31879,-0.13627l2.6104,-0.90407c0,0 2.37171,-0.79057 3.16228,1.58114zM322.70466,360.0825c-0.11786,-0.01469 -2.22949,-0.52062 -4.41968,-1.04874c-1.03941,6.36347 -2.56945,12.79808 -4.49443,18.60024c-0.88779,2.65965 -1.68641,5.35185 -2.36521,8.07235l0.05181,0.9674c0.18771,0.67631 0.36345,1.38318 0.53433,2.10926c5.45673,1.76806 11.11508,3.57145 16.15238,6.10444l0.00001,0.00001c1.0238,0.51482 1.80044,1.46061 2.84751,1.92627c2.35725,1.04832 4.1968,0.82989 6.68316,0.80502c0.77851,-0.00779 1.73915,0.44391 2.33494,-0.05726c0.39651,-0.33354 -0.46842,-0.94694 -0.52949,-1.46147c-0.11785,-0.99303 0,-2 0,-3c0,-3.33333 0,-6.66667 0,-10c0,-5.20606 -0.81598,-11.23318 0.03228,-16.40046c0.37266,-2.27009 1.04723,-4.54914 1.77746,-6.82236c-6.24419,0.5189 -12.51251,0.96476 -18.60508,0.20531zM301.50026,314.98608c0.59831,-0.32506 1.22589,-0.6136 1.83527,-0.92822c-2.23429,-0.00255 -4.46619,-0.02474 -6.69353,-0.07683c-0.16113,1.3141 -0.33524,2.62114 -0.54137,3.91452c1.9541,-0.91521 3.90516,-2.09754 5.39963,-2.90948zM311.04329,308.29031c2.46049,-1.05856 4.86992,-2.30399 7.26633,-3.55987c0.14118,-2.38263 0.18071,-4.77615 0.19023,-7.16288c-0.02934,-0.21014 -0.03135,-0.44115 0.00199,-0.69482c0.00231,-1.26082 -0.00183,-2.51927 -0.00183,-3.77273c0,0 0,-0.9274 0.56485,-1.65251c-4.52322,-1.71718 -9.12098,-3.30858 -13.66018,-4.90287c-2.81366,-0.98824 -6.1284,-1.68142 -9.05856,-2.97134c0.07735,1.70171 0.17579,3.3986 0.57602,5.04648c0.3603,1.48347 1.7018,2.61919 2.01282,4.11377c0.85945,4.13007 -0.27575,6.94816 -0.95161,10.89238c-0.30417,1.77511 -0.54017,3.56903 -0.75582,5.36523c3.78188,0.08081 7.5764,0.07759 11.37303,0.04075c0.79403,-0.27844 1.67045,-0.40934 2.44273,-0.7416zM326.23607,303.48197c1.11803,2.23607 -1.11803,3.3541 -1.11803,3.3541c-0.67924,0.33962 -1.35861,0.69073 -2.0388,1.04781c-0.03012,0.31666 -0.06237,0.63305 -0.09691,0.94913c1.84228,-0.02008 3.6819,-0.03303 5.51766,-0.03303c5.49627,0 10.9926,-0.00711 16.48888,-0.00374c-1.45769,-0.83629 -2.90149,-1.70001 -4.43517,-2.38101c-5.44623,-2.41826 -11.28513,-4.482 -17.08614,-6.08358c-0.01104,0.61479 -0.02561,1.22959 -0.04478,1.84416c0.73345,-0.18253 2.04047,-0.23948 2.81329,1.30616zM308.72521,316.40933c-1.413,1.23714 -3.16474,2.0267 -4.8004,2.94957c-2.57743,1.45423 -6.5923,3.88979 -9.81539,4.58354c-0.06151,0.24936 -0.11007,0.50173 -0.1417,0.75803c-0.21735,1.76149 0.3543,3.60186 -0.07499,5.324c-0.2907,1.16616 -1.59414,1.86875 -2,3c-0.63898,1.78101 0.40422,3.81269 0.07499,5.676c-0.54727,3.09735 -1.81842,5.16956 -3.65549,6.91614c1.31193,2.16537 5.56531,2.04939 7.24493,2.26542c6.2836,2.26816 12.05315,3.63131 18.54948,5.00816c0.15921,-1.34916 0.29345,-2.68397 0.40187,-3.99637c0.65723,-7.95575 -0.82354,-16.12982 0.00688,-24.07087c0.38457,-3.67755 1.63762,-7.27887 2.5244,-10.90766c-2.30278,0.03585 -4.60772,0.07313 -6.91245,0.10061c-0.52503,0.74555 -0.71096,1.78826 -1.40215,2.39343zM323.29534,355.11751c6.46027,0.81086 13.09297,0.10606 19.68276,-0.45731c0.09557,-0.32143 0.18843,-0.64251 0.27787,-0.9632c-3.39206,0.23283 -6.7804,0.40294 -10.25598,0.403h-5c0,0 -2.5,0 -2.5,-2.5c0,-2.5 2.5,-2.5 2.5,-2.5h5c3.89954,0.00007 7.68788,-0.25224 11.49697,-0.53539c1.90205,-8.63254 3.01466,-17.18484 4.42553,-25.99245c0.18914,-1.18073 1.19636,-6.24002 1.49865,-8.54146c-7.23729,0.36461 -14.76418,-0.2307 -21.92114,-0.2307c-2.10377,0 -4.2127,0.017 -6.32494,0.04226c-0.87937,3.84199 -2.28829,7.65616 -2.69049,11.53481c-0.81794,7.88774 0.66249,16.02087 0.00688,23.92913c-0.13239,1.597 -0.30179,3.22382 -0.50649,4.86786c1.42149,0.39753 2.84902,0.76002 4.31037,0.94344zM350.82278,348.1063c1.48155,-0.09568 3.01161,0.45768 4.45276,0.10098c1.03997,-0.2574 1.67004,-1.36955 2.62608,-1.85306c2.10213,-1.06312 4.28686,-1.97013 6.50821,-2.75421c1.0142,-0.35799 2.30487,0.02674 3.16724,-0.61597c0.43276,-0.32253 -1.17258,-0.19753 -1.48983,-0.63418c-1.58753,-2.18502 -2.43731,-4.8232 -3.77716,-7.16828c-2.37462,-4.15621 -5.00322,-8.02807 -7.61671,-12.03456c-0.20019,-0.30689 -0.41264,-0.6078 -0.63,-0.90638c-0.07625,0.38295 -0.14532,0.75772 -0.20383,1.1227c-1.34719,8.40334 -2.43337,16.58545 -4.16656,24.81848c0.37579,-0.0259 0.75235,-0.05114 1.1298,-0.07552zM324.04328,293.40969c-0.18089,-0.0743 -0.36198,-0.14831 -0.54328,-0.22204c0.00007,0.65678 0.0009,1.31471 0.00116,1.97348c3.19478,0.83774 6.46535,1.78644 9.7026,2.86982c-3.1127,-1.43699 -6.2049,-3.4073 -9.16049,-4.62126zM350.6903,276.1433c7.54473,-7.99823 9.79862,-19.86076 14.07264,-29.83664c0.10027,-0.23404 3.95988,-9.24566 4.02159,-9.36497c1.41423,-2.73444 3.67441,-5.00168 4.91456,-7.81935c1.21756,-2.76634 1.58633,-5.94345 3.25711,-8.4621c0.57531,-0.86726 1.74612,-1.27831 2.20114,-2.2143c1.36755,-2.81309 1.26747,-6.12847 2.04698,-9.15766c1.8748,-7.28549 1.29567,-14.65463 1.29567,-22.18828c0.00011,-4.15028 0.46823,-9.13869 -0.15064,-13.25378c-0.72522,-4.82223 -3.07035,-9.50017 -4.0874,-14.27562c-0.33506,-1.57323 -0.22639,-3.23188 -0.66456,-4.77956c-1.25536,-4.43411 -2.91146,-4.38231 -4.04294,-9.17206c-0.26656,-1.12838 0.58918,-2.39122 0.17444,-3.47394c-0.30272,-0.79029 -1.39289,-0.96243 -2.06884,-1.47164c-1.27537,-0.96077 -2.46574,-2.03634 -3.78396,-2.93741c-6.0252,-4.11856 -13.95971,-9.52471 -21.42044,-10.08908c-0.33504,1.95309 -2.45566,1.95309 -2.45566,1.95309h-3c-2.39625,0 -7.05269,-0.77746 -9.42562,-0.06688c-3.98889,1.1945 -6.90151,3.55296 -11.26892,4.04815c-0.2171,0.02462 -9.90302,0.01873 -10.30546,0.01873c-2.34862,0 -4.80877,-0.91345 -7.04329,-0.1903c-0.46928,0.15187 -0.6857,0.72279 -0.9286,1.15208c-1.3941,2.46387 -2.55379,5.05381 -3.76966,7.61034c-3.4896,7.33735 -6.45245,14.90679 -10.0898,22.17166c-1.49664,2.23534 -1.94317,5.01889 -2.80396,7.56756c-1.98679,5.88259 -6.57899,10.5529 -9.05498,16.14537c-1.57381,3.55472 -0.32686,4.3296 -0.84198,8.44375c-0.13096,1.04593 -0.82049,1.9613 -1,3c-0.86444,5.00196 0.42379,10.45749 1.02011,15.3532c0.59237,4.86323 -0.69149,9.98985 -0.02238,14.83215c0.75149,5.4385 4.20294,11.40952 6.11855,16.5365c1.01596,4.52335 2.29693,9.56301 4.59541,13.65289c1.64495,2.927 4.45278,5.10319 6.03504,8.06455c1.4361,2.68781 1.08033,6.19204 2.81366,8.69849c1.51316,2.18808 5.05292,2.86389 7.25534,3.59167c6.3555,2.10017 12.60943,4.48076 18.8891,6.79572c4.57761,1.6875 8.91869,3.63771 13.3353,5.7092c0.98577,0.46234 1.90764,1.10696 2.90072,1.54463c5.55894,-5.03041 13.0941,-10.83192 13.28173,-18.13615z" fill="#000000" stroke-width="0.5"/><path d="M308.98994,388.82812c-0.17087,-0.72608 -0.34808,-1.43368 -0.5358,-2.10999l-0.05234,-0.96768c0.6788,-2.7205 1.47519,-5.41397 2.36297,-8.07362c2.92146,-8.8057 4.90907,-19.1099 5.67671,-28.36957c0.65561,-7.90826 -0.79668,-16.08741 0.02126,-23.97515c0.48568,-4.68368 2.45036,-9.27719 3.1669,-13.93536c0.56421,-3.6679 0.76341,-7.39182 0.83029,-11.11451c5.80101,1.60158 11.65848,3.66595 17.10471,6.0842c2.5387,1.12724 4.84021,2.75815 7.35698,3.93353c0.69734,0.32567 1.75083,-0.11742 2.26646,0.45395c0.54792,0.60716 0.37971,1.61413 0.33914,2.43096c-0.07791,1.56841 -1.36036,7.99538 -1.57669,9.34587c-1.62456,10.14159 -2.83344,19.99921 -5.32765,29.97606c-1.16887,4.6846 -3.29052,9.49665 -4.06881,14.23774c-0.84826,5.16727 -0.04195,11.1979 -0.04195,16.40396c0,3.33333 -0.00264,6.66725 -0.00264,10.00058c0,1 -0.13624,1.90868 -0.01838,2.90171c0.06106,0.51453 0.94406,1.22628 0.54754,1.55983c-0.59579,0.50117 -1.55876,0.04985 -2.33727,0.05764c-2.48636,0.02487 -4.33273,0.24377 -6.68997,-0.80455c-1.04708,-0.46566 -1.82681,-1.41155 -2.85061,-1.92636c-5.0373,-2.533 -10.71413,-4.34117 -16.17086,-6.10924z" data-paper-data="{&quot;noHover&quot;:false,&quot;origItem&quot;:[&quot;Path&quot;,{&quot;applyMatrix&quot;:true,&quot;segments&quot;:[[[37.16387,336.88745],[-5.0373,-2.533],[1.0238,0.51482]],[[40.01138,338.81372],[-1.04708,-0.46566],[2.35725,1.04832]],[[46.69454,339.61874],[-2.48636,0.02487],[0.77851,-0.00779]],[[49.02949,339.56148],[-0.59579,0.50117],[0.39651,-0.33354]],[[48.5,338.10001],[0.06106,0.51453],[-0.11785,-0.99303]],[[48.5,335.10001],[0,1],[0,-3.33333]],[[48.5,325.10001],[0,3.33333],[0,-5.20606]],[[48.53228,308.69955],[-0.84826,5.16727],[0.7783,-4.74109]],[[52.57464,294.49367],[-1.16887,4.6846],[2.49421,-9.97685]],[[57.92252,264.57216],[-1.62456,10.14159],[0.21633,-1.35048]],[[59.50332,255.2288],[-0.07791,1.56841],[0.04058,-0.81683]],[[59.16569,252.79863],[0.54792,0.60716],[-0.51563,-0.57138]],[[56.90162,252.34579],[0.69734,0.32567],[-2.51677,-1.17539]],[[49.55371,248.41523],[2.5387,1.12724],[-5.44623,-2.41826]],[[32.46757,242.33165],[5.80101,1.60158],[-0.06688,3.72269]],[[31.64048,253.44555],[0.56421,-3.6679],[-0.71653,4.65817]],[[28.4846,267.37708],[0.48568,-4.68368],[-0.81794,7.88774]],[[28.49148,291.30621],[0.65561,-7.90826],[-0.76764,9.25967]],[[22.79057,319.63399],[2.92146,-8.8057],[-0.88779,2.65965]],[[20.42536,327.70635],[0.6788,-2.7205],[0,0]],[[20.47717,328.67375],[0,0],[0.18771,0.67631]],[[21.0115,330.78301],[-0.17087,-0.72608],[5.45673,1.76806]]],&quot;closed&quot;:true}]}" fill="#bd00ff" stroke-width="0.5"/><path d="M343.41393,296.32915c-0.99308,-0.43766 -1.91661,-1.08213 -2.90237,-1.54448c-4.41662,-2.07148 -8.76614,-4.02178 -13.34376,-5.70928c-6.27967,-2.31496 -12.54651,-4.69855 -18.90201,-6.79871c-2.20242,-0.72778 -5.74718,-1.4058 -7.26035,-3.59388c-1.73333,-2.50645 -1.38171,-6.01305 -2.81781,-8.70086c-1.58226,-2.96136 -4.39595,-5.14191 -6.0409,-8.0689c-2.29848,-4.08988 -3.58672,-9.13731 -4.60268,-13.66066c-1.91561,-5.12698 -5.37425,-11.11141 -6.12574,-16.5499c-0.66911,-4.84229 0.61203,-9.98192 0.01966,-14.84515c-0.59632,-4.89571 -1.8836,-10.3653 -1.01916,-15.36726c0.17951,-1.0387 0.86972,-1.95686 1.00067,-3.00278c0.51512,-4.11415 -0.72937,-4.89597 0.84444,-8.45069c2.47599,-5.59246 7.07693,-10.27625 9.06372,-16.15884c0.86079,-2.54867 1.31168,-5.33647 2.80832,-7.57182c3.63735,-7.26487 6.6128,-14.84226 10.1024,-22.17961c1.21587,-2.55653 2.37931,-5.14793 3.77341,-7.6118c0.2429,-0.42929 0.46005,-1.00045 0.92933,-1.15232c2.23452,-0.72314 4.69869,0.18917 7.04731,0.18917c0.40244,0 10.09473,0.0048 10.31182,-0.01982c4.36741,-0.49519 7.28719,-2.85389 11.27607,-4.04838c2.37293,-0.71059 7.03507,0.06743 9.43132,0.06743l3.00176,0.00031c0,0 2.12179,0.00024 2.45684,-1.95285c7.46073,0.56437 15.40838,5.97537 21.43358,10.09393c1.31822,0.90108 2.51107,1.97808 3.78644,2.93884c0.67595,0.50921 1.76742,0.68217 2.07014,1.47247c0.41474,1.08272 -0.44008,2.34618 -0.17352,3.47456c1.13149,4.78974 2.79211,4.74147 4.04746,9.17558c0.43817,1.54768 0.33138,3.20806 0.66644,4.78129c1.01705,4.77545 3.36856,9.46093 4.09378,14.28316c0.61887,4.1151 0.15531,9.11167 0.15519,13.26195c0,7.53365 0.58335,14.92139 -1.29144,22.20688c-0.77951,3.02919 -0.67994,6.35345 -2.04749,9.16654c-0.45502,0.93599 -1.62626,1.34954 -2.20157,2.2168c-1.67078,2.51865 -2.04218,5.70457 -3.25974,8.47091c-1.24015,2.81767 -3.50469,5.09335 -4.91892,7.8278c-0.0617,0.1193 -3.92751,9.13872 -4.02779,9.37277c-4.27402,9.97588 -6.54759,21.85086 -14.09232,29.84909c-0.18763,7.30423 -7.7336,13.10814 -13.29253,18.13854z" data-paper-data="{&quot;noHover&quot;:false,&quot;origItem&quot;:[&quot;Path&quot;,{&quot;applyMatrix&quot;:true,&quot;segments&quot;:[[[43.6903,217.1433],[-0.18763,7.30423],[7.54473,-7.99823]],[[57.76294,187.30666],[-4.27402,9.97588],[0.10027,-0.23404]],[[61.78453,177.94169],[-0.0617,0.1193],[1.41423,-2.73444]],[[66.69909,170.12234],[-1.24015,2.81767],[1.21756,-2.76634]],[[69.95621,161.66025],[-1.67078,2.51865],[0.57531,-0.86726]],[[72.15734,159.44594],[-0.45502,0.93599],[1.36755,-2.81309]],[[74.20433,150.28828],[-0.77951,3.02919],[1.8748,-7.28549]],[[75.5,128.10001],[0,7.53365],[0.00011,-4.15028]],[[75.34936,114.84622],[0.61887,4.1151],[-0.72522,-4.82223]],[[71.26197,100.5706],[1.01705,4.77545],[-0.33506,-1.57323]],[[70.5974,95.79104],[0.43817,1.54768],[-1.25536,-4.43411]],[[66.55446,86.61898],[1.13149,4.78974],[-0.26656,-1.12838]],[[66.7289,83.14504],[0.41474,1.08272],[-0.30272,-0.79029]],[[64.66006,81.6734],[0.67595,0.50921],[-1.27537,-0.96077]],[[60.8761,78.73599],[1.31822,0.90108],[-6.0252,-4.11856]],[[39.45566,68.64691],[7.46073,0.56437],[-0.33504,1.95309]],[37,70.60001],[[34,70.60001],[0,0],[-2.39625,0]],[[24.57438,70.53313],[2.37293,-0.71059],[-3.98889,1.1945]],[[13.30546,74.58127],[4.36741,-0.49519],[-0.2171,0.02462]],[[3,74.60001],[0.40244,0],[-2.34862,0]],[[-4.04329,74.4097],[2.23452,-0.72314],[-0.46928,0.15187]],[[-4.97189,75.56178],[0.2429,-0.42929],[-1.3941,2.46387]],[[-8.74155,83.17212],[1.21587,-2.55653],[-3.4896,7.33735]],[[-18.83136,105.34378],[3.63735,-7.26487],[-1.49664,2.23534]],[[-21.63532,112.91135],[0.86079,-2.54867],[-1.98679,5.88259]],[[-30.6903,129.05671],[2.47599,-5.59246],[-1.57381,3.55472]],[[-31.53228,137.50046],[0.51512,-4.11415],[-0.13096,1.04593]],[[-32.53228,140.50046],[0.17951,-1.0387],[-0.86444,5.00196]],[[-31.51217,155.85366],[-0.59632,-4.89571],[0.59237,4.86323]],[[-31.53455,170.68581],[-0.66911,-4.84229],[0.75149,5.4385]],[[-25.416,187.22231],[-1.91561,-5.12698],[1.01596,4.52335]],[[-20.82059,200.87519],[-2.29848,-4.08988],[1.64495,2.927]],[[-14.78555,208.93974],[-1.58226,-2.96136],[1.4361,2.68781]],[[-11.97189,217.63823],[-1.73333,-2.50645],[1.51316,2.18808]],[[-4.71656,221.2299],[-2.20242,-0.72778],[6.3555,2.10017]],[[14.17255,228.02562],[-6.27967,-2.31496],[4.57761,1.6875]],[[27.50785,233.73482],[-4.41662,-2.07148],[0.98577,0.46234]],[[30.40857,235.27944],[-0.99308,-0.43766],[5.55894,-5.03041]]],&quot;closed&quot;:true}]}" fill="#ffffff" stroke-width="0.5"/><path d="M297.66173,193.90989c-2.5,0 -2.5,-2.5 -2.5,-2.5v-2.33333c0,-5.89006 0.39546,-11.24636 1.36735,-17.07766c0,0 0.37525,-2.25153 2.56003,-2.09322l-1.10153,-1.28464c-0.02772,-0.49655 0.33771,-1.22471 -0.08316,-1.48966c-0.46198,-0.29082 -1.03242,0.39512 -1.57601,0.44519c-1.07458,0.09898 -2.15921,-0.04706 -3.23739,-0.00184c-4.16738,0.17478 -5.98612,0.50723 -9.47637,2.64557c0,0 -2.14373,1.28624 -3.42997,-0.85749c-1.28624,-2.14373 0.85749,-3.42997 0.85749,-3.42997c4.91843,-2.90093 9.53855,-3.68075 15.28624,-3.35627c1.47975,0.08354 3.19633,-0.38518 4.42399,0.44519c1.1859,0.80213 1.27789,2.56245 1.91684,3.84367l0.76028,0.44337c0,0 1.76777,1.76777 0,3.53553c-0.72465,0.72465 -1.4493,0.8552 -2.05218,0.75695c0.17992,0.64243 0.08373,1.21962 0.08373,1.21962c-0.92876,5.57254 -1.29932,10.62632 -1.29932,16.25567v2.33333c0,0 0,2.5 -2.5,2.5z" fill="#000000" stroke-width="0.5"/><path d="M332.77976,176.31263c-2.23607,1.11803 -3.3541,-1.11803 -3.3541,-1.11803l-0.94694,-2.10282c-0.77738,-0.4538 -3.92619,-2.4316 -4.99412,-1.67408c-0.33266,0.23597 -0.04032,0.82193 -0.15273,1.21398c-0.57172,1.99384 -1.19589,4.03752 -1.17014,6.11155c0,0 0,2.5 -2.5,2.5c-2.5,0 -2.5,-2.5 -2.5,-2.5c0.02541,-2.67626 0.46638,-5.41826 1.49653,-7.88845c0.5024,-1.2047 0.75631,-2.73608 1.84727,-3.45268c4.0072,-2.63216 8.48837,0.26921 11.67254,2.32592l1.71973,3.23051c0,0 1.11803,2.23607 -1.11803,3.3541z" fill="#000000" stroke-width="0.5"/><path d="M312.54369,193.9793c-2.23607,-1.11803 -1.11803,-3.3541 -1.11803,-3.3541l0.46227,-0.75763c1.23084,-5.40261 0.60713,-11.26469 0.60713,-16.79101c0,0 0,-2.5 2.5,-2.5c2.5,0 2.5,2.5 2.5,2.5c0,5.93886 0.53909,12.05942 -0.7262,17.87566l-0.87107,1.90904c0,0 -1.11803,2.23607 -3.3541,1.11803z" fill="#000000" stroke-width="0.5"/><path d="M335.499,215.65024c-1.24035,2.17061 -3.41096,0.93026 -3.41096,0.93026l-1.94906,-1.15508c-7.10135,-1.23739 -13.83332,-3.01656 -21.17827,-1.26348c-5.02556,1.19949 -8.6905,4.99655 -13.37052,6.90248c0,0 -2.32119,0.92848 -3.24967,-1.39272c-0.92848,-2.32119 1.39272,-3.24967 1.39272,-3.24967c4.91997,-1.92487 8.64114,-5.83296 13.96281,-7.09752c8.37707,-1.99059 16.03946,-0.12775 24.15507,1.40318l2.71761,1.51159c0,0 2.17061,1.24035 0.93026,3.41096z" fill="#000000" stroke-width="0.5"/><path d="M284.5,135.60001c0,2.5 -2.5,2.5 -2.5,2.5l-0.22243,-0.124c-5.74583,1.88039 -11.49163,3.76086 -17.23763,5.64073c-4.51455,1.28974 -9.53613,3.70397 -14.13948,4.45099c-0.23576,0.03826 -7.02474,0.03228 -8.40046,0.03228c-4.50761,0 -9.33707,0.49608 -13.77754,-0.47374c-1.61207,-0.35208 -3.08519,-1.20556 -4.69425,-1.57118c-3.53272,-0.80271 -8.11542,0.02742 -11.48567,-1.20329c-0.23146,-0.08452 -2.12467,-1.2253 -4.12917,-2.44934c0.10472,0.83486 -0.26065,1.56558 -0.26065,1.56558c-1.47812,2.85543 -1.16598,6.05274 -3.41993,8.6c-0.30498,0.34467 -4.30894,2.57857 -5.0569,3.00212l-1.82544,1.53373c0,0 -1.92055,1.60046 -3.52101,-0.32009c-1.60046,-1.92055 0.32009,-3.52101 0.32009,-3.52101l2.17456,-1.7996c1.40694,-0.81016 3.13742,-1.17428 4.27643,-2.33122c1.13207,-1.14989 0.67179,-3.02597 1.09007,-4.33976c0.3442,-1.0811 0.99333,-2.04016 1.49,-3.06024c0,0 0.49488,-0.98976 1.48464,-1.32304c-0.87854,-0.5413 -1.53217,-0.94538 -1.71719,-1.05929c-4.94654,-3.0455 -10.08205,-5.74196 -15.16216,-8.56424c0,0 -2.18539,-1.21411 -0.97129,-3.3995c1.21411,-2.18539 3.3995,-0.97129 3.3995,-0.97129c5.14562,2.85868 10.34253,5.59396 15.35443,8.67673c2.66072,1.63659 5.01222,3.8872 7.93867,4.97979c0.85963,0.32094 1.84059,-0.06017 2.75242,0.04239c2.7416,0.30836 5.51958,0.43015 8.21216,1.0314c1.64281,0.36684 3.15085,1.2195 4.79258,1.5911c4.05999,0.91897 8.60876,0.36398 12.73563,0.36398c2.5332,0 5.09905,0.43806 7.59954,0.03228c4.38517,-0.71162 9.17794,-3.06815 13.47576,-4.29622c5.71559,-1.87106 11.43137,-3.74152 17.14713,-5.61206l1.77757,-0.124c0,0 2.5,0 2.5,2.5z" fill="#000000" stroke-width="0.5"/><path d="M251.58578,183.61484c0.49506,0.35698 0.91422,0.96149 0.91422,1.98517c0,2.5 -2.5,2.5 -2.5,2.5l-3.5,-2.5c0.06343,-0.6811 0.52321,-1.44573 0.1903,-2.04329c-0.68828,-1.23543 -2.37332,-1.73222 -3,-3c-0.47941,-0.96985 -0.0578,-2.16297 -0.08669,-3.24446c-3.92584,-5.8038 -3.9932,-13.50529 -3.65118,-20.27787c0.00574,-0.11359 -0.16726,0.16001 -0.27021,0.20835c-1.22647,0.57586 -2.47267,1.10871 -3.71014,1.66054c-2.91024,1.29778 -5.96302,2.30966 -8.74015,3.87212c-1.36591,0.76848 -2.45952,1.97721 -3.85281,2.69486c-2.9712,1.53039 -6.43095,1.94816 -9.40789,3.46735c-4.43297,2.26222 -8.02517,6.27907 -12.53669,8.3966c-1.52761,0.717 -3.31282,0.74232 -4.86138,1.4129c-2.95997,1.28177 -5.52101,3.33708 -8.28693,4.99663c0,0 -2.14373,1.28624 -3.42997,-0.85749c-1.28624,-2.14373 0.85749,-3.42997 0.85749,-3.42997c0.35215,-0.21129 8.66467,-5.20647 8.86293,-5.29328c1.50762,-0.66016 3.25221,-0.67053 4.7462,-1.361c4.43886,-2.05149 8.00922,-6.08977 12.3756,-8.318c2.9612,-1.51115 6.41059,-1.90959 9.36043,-3.4428c2.87952,-1.49667 5.53072,-3.43508 8.4948,-4.75641c3.2234,-1.43693 11.47667,-7.17674 14.49386,-2.11916c1.07503,1.80202 0.24912,4.19012 0.4476,6.27904c0.52751,5.55196 0.89779,10.6837 3.90122,15.44309c-0.0289,0.91851 -0.50171,1.93563 -0.08669,2.75554c0.63868,1.26178 2.41048,1.71451 3,3c0.28034,0.61129 0.30802,1.28415 0.27608,1.97154z" fill="#000000" stroke-width="0.5"/><text transform="translate(187,61.60001) scale(0.5,0.5)" font-size="40" xml:space="preserve" fill="#000000" fill-rule="nonzero" stroke="none" stroke-width="1" stroke-linecap="butt" stroke-linejoin="miter" stroke-miterlimit="10" stroke-dasharray="" stroke-dashoffset="0" font-family="Sans Serif" font-weight="normal" text-anchor="start" style="mix-blend-mode: normal"><tspan x="0" dy="0">(GET OUT)</tspan></text></g></g></svg>