<svg version="1.1" xmlns="http://www.w3.org/2000/svg" xmlns:xlink="http://www.w3.org/1999/xlink" width="582" height="451.30002" viewBox="0,0,582,451.30002"><g transform="translate(42.5,12.7)"><g data-paper-data="{&quot;isPaintingLayer&quot;:true}" fill-rule="nonzero" stroke="none" stroke-linecap="butt" stroke-linejoin="miter" stroke-miterlimit="10" stroke-dasharray="" stroke-dashoffset="0" style="mix-blend-mode: normal"><path d="M-42.5,380.3v-393h582v393z" fill="#923434" stroke-width="0"/><path d="M106.5,282.3v-229h260v229z" fill="#ff0000" stroke-width="0"/><path d="M154.5,187.3v-77h153v77z" fill="#ffffff" stroke-width="0"/><path d="M176.25321,163.07008c-1.38675,-2.08013 0.69338,-3.46688 0.69338,-3.46688l0.94628,0.20447c0.66482,-2.91814 0.58079,-5.32677 0.61096,-8.31942c0.00607,-0.60259 0.38585,-1.30921 0.0466,-1.80726c-0.38856,-0.57045 -1.25028,-0.58511 -1.87542,-0.87766c0,0 -2.12,-1.325 -0.795,-3.44499c1.325,-2.12 3.44499,-0.795 3.44499,-0.795c1.15264,0.81856 2.70658,1.25813 3.45791,2.45568c2.03532,3.24408 0.75059,10.38119 -0.00911,13.87331l-3.05372,2.87113c0,0 -2.08013,1.38675 -3.46688,-0.69338z" fill="#000000" stroke-width="0.5"/><path d="M216.82945,160.7838c-1.60046,-1.92055 0.32009,-3.52101 0.32009,-3.52101l2.17456,-1.7996c1.40694,-0.81016 3.13742,-1.17428 4.27643,-2.33122c1.13207,-1.14989 0.67179,-3.02597 1.09007,-4.33976c0.3442,-1.0811 0.99333,-2.04016 1.49,-3.06024c0,0 1.11803,-2.23607 3.3541,-1.11803c2.23607,1.11803 1.11803,3.3541 1.11803,3.3541c-1.47812,2.85543 -1.16598,6.05274 -3.41993,8.6c-0.30498,0.34467 -4.30894,2.57857 -5.0569,3.00212l-1.82544,1.53373c0,0 -1.92055,1.60046 -3.52101,-0.32009z" fill="#000000" stroke-width="0.5"/><path d="M199.41667,127.01667c2.5,0 2.5,2.5 2.5,2.5l-0.07464,0.93967c-1.55422,6.21051 -5.66863,16.29008 -13.42536,16.56033c-5.23292,0.18232 -11.66619,-3.86731 -16.45724,-5.46163c0,0 -2.37171,-0.79057 -1.58114,-3.16228c0.79057,-2.37171 3.16228,-1.58114 3.16228,-1.58114c4.32571,1.44424 8.42394,3.44853 12.81577,4.61302c1.044,0.27682 2.38983,1.06812 3.49525,0.24986c1.8474,-1.36749 4.62128,-4.87138 5.66665,-6.95109c0.27036,-0.53787 1.29916,-4.78335 1.47308,-5.47975l-0.07464,0.27301c0,0 0,-2.5 2.5,-2.5z" fill="#000000" stroke-width="0.5"/><path d="M233.48118,146.98953c-0.3062,2.48118 -2.78737,2.17498 -2.78737,2.17498l-2.5037,-0.30943c-4.81233,-0.68713 -12.64171,-0.31403 -15.95935,-4.78996c-1.25145,-1.68837 -1.13059,-4.06449 -1.38669,-6.15043c-0.42166,-3.4344 -0.01073,-7.39343 -0.01073,-10.89802c0,0 0,-2.5 2.5,-2.5c2.5,0 2.5,2.5 2.5,2.5c0,3.4529 -0.19217,6.99481 -0.01073,10.43531c0.06507,1.23378 -0.24915,2.66393 0.45619,3.67829c0.66234,0.95252 2.02217,1.19443 3.14227,1.49671c3.07712,0.8304 6.32057,0.8278 9.47577,1.2783l2.40935,0.29688c0,0 2.48118,0.3062 2.17498,2.78737z" fill="#000000" stroke-width="0.5"/><path d="M116.5,161.60001c0,-2.5 2.5,-2.5 2.5,-2.5h2c0.6811,0.06343 1.41825,0.46822 2.04329,0.1903c0.77394,-0.34412 0.96604,-1.4897 1.72496,-1.8658c1.16174,-0.57572 2.69132,-0.18216 3.79163,-0.86804c2.11032,-1.31547 2.83055,-4.99731 2.94395,-7.09471c0.32971,-6.09842 1.44752,-12.22644 2.31419,-18.26555c0.59038,-4.11384 1.1622,-6.90251 -0.18973,-10.80562c0,0 -0.79057,-2.37171 1.58114,-3.16228c0.28361,-0.09454 0.54461,-0.14385 0.78436,-0.15742c1.05258,-1.54491 2.93469,-0.79207 2.93469,-0.79207c5.41326,2.1653 12.06025,4.02517 15.61931,9.10434c0.10125,-3.49521 0.29014,-7.28822 -0.19843,-10.53693c-0.72522,-4.82223 -3.07035,-9.50017 -4.0874,-14.27562c-0.33506,-1.57323 -0.22639,-3.23188 -0.66456,-4.77956c-1.25536,-4.43411 -2.91146,-4.38231 -4.04294,-9.17206c-0.26656,-1.12838 0.58918,-2.39122 0.17444,-3.47394c-0.30272,-0.79029 -1.39289,-0.96243 -2.06884,-1.47164c-1.27537,-0.96077 -2.46574,-2.03634 -3.78396,-2.93741c-6.0252,-4.11856 -13.95971,-9.52471 -21.42044,-10.08908c-0.33504,1.95309 -2.45566,1.95309 -2.45566,1.95309h-3c-2.39625,0 -7.05269,-0.77746 -9.42562,-0.06688c-3.98889,1.1945 -6.90151,3.55296 -11.26892,4.04815c-0.2171,0.02462 -9.90302,0.01873 -10.30546,0.01873c-2.34862,0 -4.80877,-0.91345 -7.04329,-0.1903c-0.46928,0.15187 -0.6857,0.72279 -0.9286,1.15208c-1.3941,2.46387 -2.55379,5.05381 -3.76966,7.61034c-3.4896,7.33735 -6.45245,14.90679 -10.0898,22.17166c-1.49664,2.23534 -1.94317,5.01889 -2.80396,7.56756c-1.98679,5.88259 -6.57899,10.5529 -9.05498,16.14537c-1.57381,3.55472 -0.32686,4.3296 -0.84198,8.44375c-0.13096,1.04593 -0.82049,1.9613 -1,3c-0.86444,5.00196 0.42379,10.45749 1.02011,15.3532c0.59237,4.86323 -0.69149,9.98985 -0.02238,14.83215c0.75149,5.4385 4.20294,11.40952 6.11855,16.5365c1.01596,4.52335 2.29693,9.56301 4.59541,13.65289c1.64495,2.927 4.45278,5.10319 6.03504,8.06455c1.4361,2.68781 1.08033,6.19204 2.81366,8.69849c1.51316,2.18808 5.05292,2.86389 7.25534,3.59167c6.3555,2.10017 12.60943,4.48076 18.8891,6.79572c4.57761,1.6875 8.91869,3.63771 13.3353,5.7092c0.98577,0.46234 1.90764,1.10696 2.90072,1.54463c5.55894,-5.03041 13.0941,-10.83192 13.28173,-18.13615v-0.00001c7.54473,-7.99823 9.79862,-19.86076 14.07264,-29.83664c0.10027,-0.23404 3.95988,-9.24566 4.02159,-9.36497c1.41423,-2.73444 3.67441,-5.00168 4.91456,-7.81935c1.21756,-2.76634 1.58633,-5.94345 3.25711,-8.4621c0.57531,-0.86726 1.74612,-1.27831 2.20114,-2.2143c1.36755,-2.81309 1.26747,-6.12847 2.04698,-9.15766c0.05513,-0.21423 0.10814,-0.42854 0.1591,-0.64291c-0.11799,0.12468 -0.22693,0.2559 -0.32161,0.39721c-1.53997,2.29839 -1.44253,5.41705 -2.86631,7.78917c-0.93651,1.5603 -2.61395,2.53934 -3.80191,3.91787c-1.56946,1.82122 -1.88434,4.49101 -3.38682,6.36787c-0.86917,1.08574 -2.32338,1.53763 -3.40179,2.41587c-1.50195,1.22316 -2.73991,2.73885 -4.1232,4.09475c-1.33333,0.66667 -2.66667,1.33333 -4,2l-1.69401,1.73966c0,0 -1.76777,1.76777 -3.53553,0l-0.00002,0c-1.76777,-1.76777 0,-3.53553 0,-3.53553l2.30599,-2.26034c1.33333,-0.66667 2.66667,-1.33333 4,-2c0.5441,-0.55876 3.48099,-3.59481 3.8768,-3.90525c0.79815,-0.62599 1.9649,-0.79177 2.59821,-1.58413c0.56658,-0.70887 0.32678,-1.81626 0.75788,-2.61479c1.47741,-2.73661 4.44566,-4.43733 6.05339,-7.09947c0.64264,-1.06411 0.38753,-2.47422 0.83079,-3.63562c0.60879,-1.59514 1.37298,-3.14331 2.30291,-4.57521c0.46979,-0.72338 1.49859,-1.02383 1.84601,-1.81332c0.88831,-2.01863 0.70035,-4.59339 0.6958,-6.7441c-0.00627,-2.96507 1.03075,-7.0433 -0.62663,-9.68567c-2.53461,-4.04096 -7.4558,-5.65168 -11.80107,-7.23619c0.85292,5.06107 -0.25871,9.90562 -1.01165,15.1749c-0.61006,4.26937 -1.25384,8.58136 -1.56449,12.8852c-0.08609,1.1928 0.27472,2.45167 -0.10344,3.58621c-0.45654,1.3697 -1.50348,2.46654 -2.3126,3.66229c-0.84254,1.24512 -1.40794,2.79527 -2.64,3.65679c-1.19048,0.83244 -2.91105,0.4784 -4.20837,1.13196c-0.92862,0.46781 -1.30081,1.7708 -2.27504,2.1342c-1.23716,0.46147 -2.63781,0.12687 -3.95671,0.1903h-2c0,0 -2.5,0 -2.5,-2.5zM44.61325,384.18013c-2.08013,-1.38675 -0.69338,-3.46688 -0.69338,-3.46688l2.64,-3.65679c2.19287,-0.61401 6.23167,-2.25307 8.94012,-1.43395c0,-4.57823 0,-9.12152 0,-13.52251c0,-4.99668 -0.48366,-10.34957 0.02024,-15.3175c0.28613,-2.82097 1.40915,-5.49303 2.12353,-8.23701c1.71702,-6.59522 3.67775,-12.8951 6.00675,-19.29985c0,0 0.1615,-0.44413 0.53716,-0.87597c-0.33724,-0.12042 -0.65752,-0.28343 -0.95545,-0.50191c-1.29661,-0.95085 -0.59842,-3.16546 -0.73223,-4.76777c-0.24967,-2.98959 0,-6 0,-9c0,-14.46771 -0.19283,-28.83332 1.00852,-43.2062c0.16236,-1.94243 -0.21023,-8.37042 0.01632,-10.14532c0.18164,-1.42306 0.93656,-2.7244 1.18629,-4.1371c1.33788,-7.56833 0.56841,-15.33775 1.82289,-22.92238c0,0 0.00158,-0.00949 0.00514,-0.02719c-1.37157,-0.79661 -2.59823,-1.79213 -3.56727,-3.10005c-1.76815,-2.38649 -1.76918,-6.65878 -3.18634,-9.30151c-1.56385,-2.91627 -4.34374,-5.05068 -5.96496,-7.93545c-2.48145,-4.41545 -3.92503,-9.78136 -5.02779,-14.67268c-2.02718,-5.38743 -5.43083,-11.41559 -6.25825,-17.13793c-0.71759,-4.9628 0.60589,-10.20135 -0.02238,-15.16785c-0.67834,-5.3623 -1.86246,-11.17459 -0.97989,-16.6468c0.16784,-1.04064 0.86947,-1.95402 1,-3c0.39733,-3.18403 -0.0892,-6.59985 1.15802,-9.55625c2.32912,-5.52091 7.03512,-10.09659 8.94502,-15.85463c0.53949,-1.62648 0.42338,-3.43409 1.03072,-5.03648c0.47581,-1.25537 1.44355,-2.26397 2.16532,-3.39595c4.24306,-8.49868 7.65291,-17.38677 11.93258,-25.87426c1.22905,-2.43746 2.40225,-5.9479 5.27936,-7.19166c1.21202,-0.52395 2.63658,-0.16225 3.95671,-0.1903c4.8072,-0.10214 9.91806,0.53677 14.69454,0.01873c4.09576,-0.44421 6.91364,-2.901 10.73108,-3.95185c2.84397,-0.78288 7.65699,-0.06688 10.57438,-0.06688h1.5367c0.30887,-2 2.4633,-2 2.4633,-2c9.08523,0.09163 18.27303,5.9272 25.69883,11.00897c0.78421,0.53667 7.03603,5.29512 7.57227,6.44599c0.63767,1.36854 -0.17475,3.05719 0.17444,4.52606c0.74581,3.13732 3.06664,5.72857 3.95706,8.82794c0.47626,1.65778 0.39023,3.43295 0.74965,5.11993c1.04084,4.88533 3.39873,9.63469 4.14151,14.57373c0.65558,4.35922 0.20612,9.58958 0.20624,13.99737c0,7.98385 0.51639,15.68396 -1.45154,23.42696c-0.35943,1.4142 -1.9942,9.25138 -2.5038,10.31719c-0.52872,1.10578 -1.80758,1.68484 -2.50087,2.69561c-1.5124,2.20497 -1.65481,5.09549 -2.74289,7.5379c-0.86472,1.94106 -4.00759,6.09469 -5.08544,8.18065c-2.2047,4.26678 -4.0406,9.07249 -5.79747,13.54322c-1.83027,4.65753 -2.99564,9.74614 -5.12398,14.27317c-0.71378,1.51822 -1.82213,2.82527 -2.57303,4.32547c-0.65334,1.30527 -0.82063,2.84877 -1.62696,4.06549c-0.70035,1.05681 -1.85622,1.72736 -2.78433,2.59104c0.08159,2.7197 -1.50627,5.31806 -3.00307,7.59029c-2.25792,3.42765 -5.20227,6.33817 -8.23383,9.18479c0.6781,0.28033 1.42721,0.89972 1.42721,2.26821c0,2.5 -2.5,2.5 -2.5,2.5c-1.35492,-0.01424 -2.73294,0.17447 -4.08318,0.11911c-0.04976,0.0495 -0.09945,0.09905 -0.14906,0.14866l-2.76777,0.73223c0,0 -2.4556,0 -2.49941,-2.4337c-0.75861,-0.34151 -1.51623,-0.7171 -2.27117,-1.10814c4.19481,3.99964 4.27059,9.97687 4.27059,16.04185c0,6.03416 0.00413,12.0683 -0.00875,18.10244c-0.0069,1.56592 -0.14032,3.12582 -0.31917,4.68319c2.1251,0.51169 1.80279,2.76792 1.80279,2.76792c-0.6343,4.41842 -1.9351,8.57842 -2.79333,12.91001c0.09431,3.88256 0.31846,7.7808 0.31846,11.53644c0,1.36308 0.05154,2.72832 0.08437,4.09277c0.03089,-0.00115 0.06176,-0.00181 0.09263,-0.00193c1.66665,-0.00657 3.32354,0.25527 4.98527,0.38348c5.08851,0.39261 10.1529,0.31282 15.2124,0.09074c0.04787,-0.57125 0.09956,-1.14215 0.15729,-1.71248c0.56721,-5.60338 1.59885,-12.38676 3.21932,-17.73791c0.4696,-1.55072 1.41858,-2.93747 1.81994,-4.50724c0.77825,-3.04383 1.07237,-6.21457 2.05705,-9.19802c0,0 0.79057,-2.37171 3.16228,-1.58114c2.37171,0.79057 1.58114,3.16228 1.58114,3.16228c-0.95957,2.84728 -1.19836,5.89108 -1.94295,8.80198c-0.42453,1.65965 -1.39312,3.13929 -1.89397,4.77753c-1.54142,5.04191 -2.4999,11.50285 -3.02794,16.78313c-0.03179,0.31794 -0.06273,0.63652 -0.09286,0.95566c5.18685,-0.28727 10.37528,-0.60887 15.586,-0.60887c8.99442,0.00897 17.79367,-1.9185 26.73221,-2.69762c3.88486,-0.33862 8.11311,0.27736 11.96233,-0.28364c1.36,-0.19821 2.63379,-0.85043 4,-1c4.39402,-0.48104 5.11183,0.30823 9.12824,-0.01244c6.14377,-0.49052 12.12659,-1.38778 18.33257,-1.00146c7.01551,0.43671 13.77167,0.99517 20.84466,0.99517c4.6987,0.01642 8.6908,1.55772 13.27279,2.01493c5.9001,0.58873 11.987,-0.42918 17.90443,-0.00864c7.35176,0.52247 14.60469,2.65459 21.97812,2.99854c0.18232,0.0085 0.36467,0.01675 0.54707,0.02475c0.24425,-2.02402 0.50866,-4.0477 0.85305,-6.04971c0.427,-2.48222 1.6369,-6.25577 1.00955,-8.91342c-0.34416,-1.45798 -1.64578,-2.57101 -1.99218,-4.02846c-0.78467,-3.30141 -0.4773,-6.7804 -1.03882,-10.127c0,0 -0.411,-2.46598 2.05499,-2.87698c2.46598,-0.411 2.87698,2.05499 2.87698,2.05499c0.53252,3.21542 0.18696,6.56364 0.95618,9.73078c0.3603,1.48347 1.7018,2.61919 2.01282,4.11377c0.85945,4.13007 -0.27575,6.94816 -0.95161,10.89238c-0.30417,1.77511 -0.54017,3.56903 -0.75582,5.36523c10.40158,0.22226 20.8988,-0.19117 31.27245,-0.19117c6.66664,0 13.33337,-0.01046 20,0c3.23238,0.00507 6.42642,-0.71297 9.64876,-0.96763c0.64292,-0.05081 1.28569,0.68705 1.88311,0.44412c0.37091,-0.15082 0.02902,-0.80384 -0.02177,-1.201c-0.39895,-3.11977 -1.15411,-6.18561 -1.59536,-9.29967c-0.58786,-4.14868 -0.41474,-8.30044 -0.41474,-12.47581v-3c0,0 0,-2.5 2.5,-2.5l0.00002,0.00001c2.5,0 2.5,2.5 2.5,2.5v3c0,5.80124 0.36879,10.91411 1.26031,16.64793c0.48476,3.11777 1.89262,7.71928 -1.29218,10.37558c-1.11047,0.92619 -2.88296,0.25618 -4.31108,0.48296c-1.64861,0.26178 -3.24936,0.81886 -4.9107,0.98137c-8.23218,0.80525 -16.98567,0.01217 -25.24634,0.01217c-10.56703,0 -21.26404,0.42878 -31.85801,0.18102c-0.19463,1.58732 -0.4082,3.16433 -0.67427,4.71943c-0.35553,2.07799 -1.74182,3.90768 -2,6c-0.21735,1.76149 0.3543,3.60186 -0.07499,5.324c-0.2907,1.16616 -1.59414,1.86875 -2,3c-0.63898,1.78101 0.40422,3.81269 0.07499,5.676c-0.89069,5.04095 -3.69875,7.36653 -7.74326,9.99227c-4.57598,0.08575 -9.1477,0.1347 -13.72446,0.10727c-1.50912,-0.00904 -3.0467,-0.33764 -4.52723,-0.04511c-1.62433,0.32094 -2.98789,1.51679 -4.60966,1.85043c-1.6943,0.34856 -3.46989,-0.04631 -5.18672,0.16491c-3.2194,0.39608 -6.43272,1.01985 -9.67638,1.02977h-1c0,0 -2.5,0 -2.5,-2.5c0,-2.5 2.5,-2.5 2.5,-2.5h1c3.03211,0.01039 6.03232,-0.6245 9.04241,-0.98942c1.59194,-0.19299 3.23947,0.2234 4.80971,-0.10199c1.6427,-0.34041 3.02641,-1.5534 4.6751,-1.86348c5.3895,-1.01365 12.28977,-0.07479 17.74831,0.06216c2.16035,-1.51816 3.8345,-3.2326 4.25674,-6.00773c0.32088,-2.10896 -0.58549,-4.21636 0.07499,-6.324c0.35939,-1.14686 1.70765,-1.83425 2,-3c0.3792,-1.51204 -0.27075,-3.12947 -0.07499,-4.676c0.26475,-2.0915 1.66396,-3.91877 2,-6c0.2182,-1.35141 0.40372,-2.71767 0.57568,-4.09197c-0.08778,-0.00408 -0.17555,-0.00821 -0.26331,-0.01241c-7.39114,-0.35335 -14.65491,-2.4779 -22.02188,-3.00146c-5.9833,-0.42522 -12.12569,0.59375 -18.09557,-0.00864c-4.42709,-0.44671 -8.20756,-2.00317 -12.72721,-1.98507c-7.16902,0 -14.04375,-0.56202 -21.15534,-1.00483c-5.98436,-0.37263 -11.74333,0.53515 -17.66743,0.99854c-2.94825,0.23062 -5.93316,-0.34409 -8.87176,-0.01244c-1.3657,0.15413 -2.63894,0.80921 -4,1c-3.93362,0.55141 -8.17238,-0.045 -12.13818,0.30214c-9.09068,0.79575 -18.01752,2.70801 -27.16728,2.71659c-5.34947,0 -10.67448,0.32982 -15.99841,0.61782c-0.19121,2.64958 -0.34816,5.31028 -0.50225,7.93962c-0.08059,1.37522 0.35774,2.90916 -0.29515,4.1222c-0.56961,1.0583 -2.30563,1.01903 -3,2c-0.35517,0.50176 0.26263,1.20651 0.29581,1.82036c0.05947,1.10023 0.13462,2.21434 -0.01873,3.30546c-0.43879,3.12203 -1.17862,6.20305 -2.0444,9.23456c-0.40947,1.43375 -0.50268,3.1783 -1.61472,4.17163c-1.61564,1.44318 -3.9727,1.72911 -5.95905,2.59367c-2.85034,0.09636 -5.7296,-0.21929 -8.55411,0.17551c-1.77036,0.24746 -3.49083,0.60353 -5.20371,0.94802c-0.04057,0.25808 -0.08623,0.51532 -0.13757,0.77162c-0.79592,3.97345 -3.58008,7.9835 -4,12c-0.27363,2.61727 -0.46277,5.25905 -0.60711,7.91345c2.46951,-1.19458 4.92906,-0.7936 8.13939,-0.8139c6.76879,-0.04281 12.95923,-0.3655 19.49442,1.4698l2.19238,0.62639c0,0 2.40381,0.6868 1.71701,3.09061c-0.6868,2.40381 -3.09061,1.71701 -3.09061,1.71701l-2.19238,-0.62639c-6.04449,-1.761 -11.84138,-1.23286 -18.12082,-1.27742c-2.26048,-0.01604 -5.17193,-0.71445 -7.11137,1.138c-0.6469,0.61788 -0.39301,4.00993 -0.38863,4.362c0,0 0,1.45913 -1.11474,2.14793c-0.12382,3.34368 -0.26963,6.67958 -0.51577,9.98426c-0.71171,9.39828 -4.20159,17.92371 -5.77907,27.098c-0.80076,4.65703 -0.57921,9.85572 -0.58991,14.56482l-0.00052,2.2056c0,0 -0.00059,2.5 -2.50059,2.49941c-2.5,-0.00059 -2.49941,-2.50059 -2.49941,-2.50059l0.00053,-2.21686c0.0135,-4.99134 -0.18242,-10.46271 0.66183,-15.39749c1.542,-9.01327 5.04605,-17.3976 5.72094,-26.62426c0.74157,-9.9562 0.49093,-20.28383 1.64898,-30.16126c0.44384,-3.78572 2.7605,-7.375 3.77598,-11.07643c-0.92391,0.10291 -1.85789,0.16785 -2.80826,0.17687l-0.88197,0.73607c0,0 -2.23607,1.11803 -3.3541,-1.11803c-1.11803,-2.23607 1.11803,-3.3541 1.11803,-3.3541l3.11803,-1.26393c1.0592,0.01315 2.10897,-0.06585 3.15354,-0.20097c-0.08789,-1.21956 -0.20658,-2.44362 -0.1487,-3.65437c0.13546,-2.83342 0.44098,-5.67616 1.06776,-8.44271c0.2952,-1.30299 2.72617,-6.81935 2.96753,-7.84801c0.5058,-2.15565 0.36189,-4.75001 0.18396,-7.26213c-2.84389,0.3234 -7.6028,0.20819 -8.72407,0.20819c-8.27671,0 -16.74149,0.51387 -25,0c-0.61573,-0.03831 -1.26167,-0.01073 -1.91264,0.02278c0.73918,1.01965 0.26212,2.33158 0.26212,2.33158c-2.27616,6.25943 -4.18894,12.40527 -5.867,18.85085c-0.66105,2.53914 -1.74957,5.00075 -2.00272,7.61229c-0.46193,4.76537 0.02024,9.89223 0.02024,14.6825c0,5.75429 0,11.50859 0,17.26288c0.69181,0.13018 1.42304,0.15987 2.10634,0.31177c0,0 2.42536,0.60634 1.81902,3.0317c-0.60634,2.42536 -3.0317,1.81902 -3.0317,1.81902c-0.29354,-0.07932 -0.59245,-0.14545 -0.89366,-0.20594c0,4.26019 0,8.52039 0,12.78058v1c0,0 0,2.5 -2.5,2.5c-2.5,0 -2.5,-2.5 -2.5,-2.5c0,-5.22648 0,-10.65364 0,-16.10168c-0.43237,-0.59549 -0.84399,-1.21871 -1.45671,-1.58862c-1.33016,-0.80303 -3.07848,0.43465 -4.60317,0.73384l-1.36,2.34321c0,0 -1.38675,2.08013 -3.46688,0.69338zM108.5,314.10001c0,3.87983 0.80624,8.66271 -0.04012,12.44606c-0.63293,2.82932 -2.39972,5.32263 -3.03247,8.15199c-0.72814,3.25591 -0.52374,6.61007 -0.51456,9.91189c1.41894,-0.30293 2.84141,-0.59714 4.27813,-0.79077c2.69625,-0.36339 5.44095,-0.06128 8.16113,-0.11058c1.10857,-0.37341 2.42918,-0.36884 3.32572,-1.12024c0.52795,-0.44248 0.28754,-1.34739 0.42412,-2.02257c0.58049,-2.86952 1.49506,-5.67413 1.91677,-8.57124c0.26299,-1.80672 -0.53531,-5.35095 0.27708,-6.87419c0.56558,-1.06046 2.31243,-1.01426 3,-2c0.36249,-0.51969 -0.28595,-1.24425 -0.29515,-1.8778c-0.02116,-1.45708 0.04603,-2.91833 0.20448,-4.36693c0.11687,-1.06847 0.2097,-2.13923 0.29316,-3.21089c-5.06085,0.21415 -10.12732,0.28541 -15.2195,-0.10513c-0.53228,-0.04082 -1.6068,-0.11016 -2.89859,-0.20946c0.11979,0.42004 0.11979,0.74986 0.11979,0.74986zM69.62796,247.51954c-0.23512,1.34544 -0.97478,2.5778 -1.1528,3.93198c-0.42814,3.25688 0.28472,6.58077 0.01632,9.85468c-1.16711,14.23606 -0.99148,28.46328 -0.99148,42.7938c0,3 0.41579,6.02895 0,9c-0.06622,0.47318 -1.20075,1.13853 -0.73223,1.23223c1.08326,0.21665 2.13187,-0.63436 3.23223,-0.73223c1.66011,-0.14766 3.33333,0 5,0c6.66667,0 13.33333,0 20,0c1.66667,0 3.34181,-0.16788 5,0c0.7791,0.07888 1.48933,0.97987 2.23223,0.73223c0.45327,-0.15109 -0.66601,-0.75905 -0.73223,-1.23223c-0.02488,-0.17782 -0.04307,-0.3561 -0.0559,-0.53476c-0.88165,-0.16885 -1.53536,-0.35938 -1.78373,-0.57239c-1.90935,-1.63751 0.12262,-8.53292 0.36922,-10.07641c0.53466,-3.34654 0.40236,-5.61628 1.01052,-9.06254c0.08259,-0.46802 0.17159,-0.93343 0.26557,-1.39678c-0.09723,-3.23759 -0.13196,-6.48424 0.20649,-9.60347c0.34919,-3.21823 0.98029,-6.42476 0.97909,-9.66188c0.01288,-6.03059 0.00874,-12.06117 0.00874,-18.09177c0,-3.87677 0.40331,-8.14796 -1.62663,-11.68567c-1.0863,-1.89317 -3.3405,-2.81303 -5.07756,-4.13468l-0.28943,-4.08941c-5.92891,-2.41166 -12.06707,-4.52608 -18.10172,-6.64562c-1.90157,-0.66789 -4.03202,-1.20101 -6.11794,-1.87464c-1.02659,7.2398 -0.39624,14.62503 -1.65877,21.84956z" fill="#000000" stroke-width="0.5"/><path d="M71.27237,225.62209c2.08592,0.67364 4.22239,1.20535 6.12396,1.87324c6.03465,2.11954 12.19571,4.23543 18.12463,6.64709l0.2915,4.09009c1.73706,1.32165 4.00002,2.24559 5.08632,4.13876c2.02993,3.53771 1.63859,7.81875 1.63859,11.69552c0,6.0306 0.01641,12.10043 0.00353,18.13101c0.00119,3.23712 -0.63857,6.46629 -0.98775,9.68452c-0.33845,3.11923 -0.31395,6.37666 -0.21672,9.61425c-0.09398,0.46336 -0.18449,0.9299 -0.26708,1.39792c-0.60816,3.44626 -0.4833,5.72044 -1.01796,9.06698c-0.2466,1.54349 -2.28346,8.44095 -0.37411,10.07846c0.24837,0.21301 0.86678,0.30999 1.74842,0.47884c0.01283,0.17866 0.03116,0.35688 0.05605,0.5347c0.06622,0.47318 1.22227,1.17414 0.76899,1.32523c-0.7429,0.24763 -1.45496,-0.65267 -2.23406,-0.73155c-1.65819,-0.16788 -3.33839,0.00149 -5.00505,0.00149c-6.66667,0 -13.3557,0.0002 -20.02236,0.0002c-1.66667,0 -3.34502,-0.14908 -5.00513,-0.00142c-1.10037,0.09787 -2.15176,0.94786 -3.23502,0.73121c-0.46851,-0.0937 0.66623,-0.75896 0.73245,-1.23215c0.41579,-2.97105 -0.00398,-6.00178 -0.00398,-9.00178c0,-14.33052 -0.19718,-28.62623 0.96993,-42.86229c0.2684,-3.27392 -0.43326,-6.61176 -0.00512,-9.86864c0.17802,-1.35418 0.92276,-2.59041 1.15788,-3.93585c1.26253,-7.22454 0.6455,-14.61602 1.67209,-21.85582z" data-paper-data="{&quot;noHover&quot;:false,&quot;origItem&quot;:[&quot;Path&quot;,{&quot;applyMatrix&quot;:true,&quot;segments&quot;:[[[69.62796,247.51954],[1.26253,-7.22454],[-0.23512,1.34544]],[[68.47516,251.45152],[0.17802,-1.35418],[-0.42814,3.25688]],[[68.49148,261.30621],[0.2684,-3.27392],[-1.16711,14.23606]],[[67.5,304.10001],[0,-14.33052],[0,3]],[[67.5,313.10001],[0.41579,-2.97105],[-0.06622,0.47318]],[[66.76777,314.33224],[-0.46851,-0.0937],[1.08326,0.21665]],[[70,313.60001],[-1.10037,0.09787],[1.66011,-0.14766]],[[75,313.60001],[-1.66667,0],[6.66667,0]],[[95,313.60001],[-6.66667,0],[1.66667,0]],[[100,313.60001],[-1.65819,-0.16788],[0.7791,0.07888]],[[102.23223,314.33224],[-0.7429,0.24763],[0.45327,-0.15109]],[[101.5,313.10001],[0.06622,0.47318],[-0.02488,-0.17782]],[[101.4441,312.56525],[0.01283,0.17866],[-0.88165,-0.16885]],[[99.66037,311.99286],[0.24837,0.21301],[-1.90935,-1.63751]],[[100.02959,301.91645],[-0.2466,1.54349],[0.53466,-3.34654]],[[101.04011,292.85391],[-0.60816,3.44626],[0.08259,-0.46802]],[[101.30568,291.45713],[-0.09398,0.46336],[-0.09723,-3.23759]],[[101.51217,281.85366],[-0.33845,3.11923],[0.34919,-3.21823]],[[102.49126,272.19178],[0.00119,3.23712],[0.01288,-6.03059]],[[102.5,254.10001],[0,6.0306],[0,-3.87677]],[[100.87337,242.41433],[2.02993,3.53771],[-1.0863,-1.89317]],[[95.79581,238.27965],[1.73706,1.32165],[0,0]],[[95.50639,234.19025],[0,0],[-5.92891,-2.41166]],[[77.40467,227.54462],[6.03465,2.11954],[-1.90157,-0.66789]],[[71.28673,225.66998],[2.08592,0.67364],[-1.02659,7.2398]]],&quot;closed&quot;:true}]}" fill="#0052ff" stroke-width="0.5"/><path d="M110.41393,238.32915c-0.99308,-0.43766 -1.91661,-1.08213 -2.90237,-1.54448c-4.41662,-2.07148 -8.76614,-4.02178 -13.34376,-5.70928c-6.27967,-2.31496 -12.54651,-4.69855 -18.90201,-6.79871c-2.20242,-0.72778 -5.74718,-1.4058 -7.26035,-3.59388c-1.73333,-2.50645 -1.38171,-6.01305 -2.81781,-8.70086c-1.58226,-2.96136 -4.39595,-5.14191 -6.0409,-8.0689c-2.29848,-4.08988 -3.58672,-9.13731 -4.60268,-13.66066c-1.91561,-5.12698 -5.37425,-11.11141 -6.12574,-16.5499c-0.66911,-4.84229 0.61203,-9.98192 0.01966,-14.84515c-0.59632,-4.89571 -1.8836,-10.3653 -1.01916,-15.36726c0.17951,-1.0387 0.86972,-1.95686 1.00067,-3.00278c0.51512,-4.11415 -0.72937,-4.89597 0.84444,-8.45069c2.47599,-5.59246 7.07693,-10.27625 9.06372,-16.15884c0.86079,-2.54867 1.31168,-5.33647 2.80832,-7.57182c3.63735,-7.26487 6.6128,-14.84226 10.1024,-22.17961c1.21587,-2.55653 2.37931,-5.14793 3.77341,-7.6118c0.2429,-0.42929 0.46005,-1.00045 0.92933,-1.15232c2.23452,-0.72314 4.69869,0.18917 7.04731,0.18917c0.40244,0 10.09473,0.0048 10.31182,-0.01982c4.36741,-0.49519 7.28719,-2.85389 11.27607,-4.04838c2.37293,-0.71059 7.03507,0.06743 9.43132,0.06743l3.00176,0.00031c0,0 2.12179,0.00024 2.45684,-1.95285c7.46073,0.56437 15.40838,5.97537 21.43358,10.09393c1.31822,0.90108 2.51107,1.97808 3.78644,2.93884c0.67595,0.50921 1.76742,0.68217 2.07014,1.47247c0.41474,1.08272 -0.44008,2.34618 -0.17352,3.47456c1.13149,4.78974 2.79211,4.74147 4.04746,9.17558c0.43817,1.54768 0.33138,3.20806 0.66644,4.78129c1.01705,4.77545 3.36856,9.46093 4.09378,14.28316c0.61887,4.1151 0.15531,9.11167 0.15519,13.26195c0,7.53365 0.58335,14.92139 -1.29144,22.20688c-0.77951,3.02919 -0.67994,6.35345 -2.04749,9.16654c-0.45502,0.93599 -1.62626,1.34954 -2.20157,2.2168c-1.67078,2.51865 -2.04218,5.70457 -3.25974,8.47091c-1.24015,2.81767 -3.50469,5.09335 -4.91892,7.8278c-0.0617,0.1193 -3.92751,9.13872 -4.02779,9.37277c-4.27402,9.97588 -6.54759,21.85086 -14.09232,29.84909c-0.18763,7.30423 -7.7336,13.10814 -13.29253,18.13854z" data-paper-data="{&quot;noHover&quot;:false,&quot;origItem&quot;:[&quot;Path&quot;,{&quot;applyMatrix&quot;:true,&quot;segments&quot;:[[[43.6903,217.1433],[-0.18763,7.30423],[7.54473,-7.99823]],[[57.76294,187.30666],[-4.27402,9.97588],[0.10027,-0.23404]],[[61.78453,177.94169],[-0.0617,0.1193],[1.41423,-2.73444]],[[66.69909,170.12234],[-1.24015,2.81767],[1.21756,-2.76634]],[[69.95621,161.66025],[-1.67078,2.51865],[0.57531,-0.86726]],[[72.15734,159.44594],[-0.45502,0.93599],[1.36755,-2.81309]],[[74.20433,150.28828],[-0.77951,3.02919],[1.8748,-7.28549]],[[75.5,128.10001],[0,7.53365],[0.00011,-4.15028]],[[75.34936,114.84622],[0.61887,4.1151],[-0.72522,-4.82223]],[[71.26197,100.5706],[1.01705,4.77545],[-0.33506,-1.57323]],[[70.5974,95.79104],[0.43817,1.54768],[-1.25536,-4.43411]],[[66.55446,86.61898],[1.13149,4.78974],[-0.26656,-1.12838]],[[66.7289,83.14504],[0.41474,1.08272],[-0.30272,-0.79029]],[[64.66006,81.6734],[0.67595,0.50921],[-1.27537,-0.96077]],[[60.8761,78.73599],[1.31822,0.90108],[-6.0252,-4.11856]],[[39.45566,68.64691],[7.46073,0.56437],[-0.33504,1.95309]],[37,70.60001],[[34,70.60001],[0,0],[-2.39625,0]],[[24.57438,70.53313],[2.37293,-0.71059],[-3.98889,1.1945]],[[13.30546,74.58127],[4.36741,-0.49519],[-0.2171,0.02462]],[[3,74.60001],[0.40244,0],[-2.34862,0]],[[-4.04329,74.4097],[2.23452,-0.72314],[-0.46928,0.15187]],[[-4.97189,75.56178],[0.2429,-0.42929],[-1.3941,2.46387]],[[-8.74155,83.17212],[1.21587,-2.55653],[-3.4896,7.33735]],[[-18.83136,105.34378],[3.63735,-7.26487],[-1.49664,2.23534]],[[-21.63532,112.91135],[0.86079,-2.54867],[-1.98679,5.88259]],[[-30.6903,129.05671],[2.47599,-5.59246],[-1.57381,3.55472]],[[-31.53228,137.50046],[0.51512,-4.11415],[-0.13096,1.04593]],[[-32.53228,140.50046],[0.17951,-1.0387],[-0.86444,5.00196]],[[-31.51217,155.85366],[-0.59632,-4.89571],[0.59237,4.86323]],[[-31.53455,170.68581],[-0.66911,-4.84229],[0.75149,5.4385]],[[-25.416,187.22231],[-1.91561,-5.12698],[1.01596,4.52335]],[[-20.82059,200.87519],[-2.29848,-4.08988],[1.64495,2.927]],[[-14.78555,208.93974],[-1.58226,-2.96136],[1.4361,2.68781]],[[-11.97189,217.63823],[-1.73333,-2.50645],[1.51316,2.18808]],[[-4.71656,221.2299],[-2.20242,-0.72778],[6.3555,2.10017]],[[14.17255,228.02562],[-6.27967,-2.31496],[4.57761,1.6875]],[[27.50785,233.73482],[-4.41662,-2.07148],[0.98577,0.46234]],[[30.40857,235.27944],[-0.99308,-0.43766],[5.55894,-5.03041]]],&quot;closed&quot;:true}]}" fill="#ffffff" stroke-width="0.5"/><path d="M91.57464,148.20635c-0.60634,-2.42536 1.81902,-3.0317 1.81902,-3.0317l2.8027,-0.30579c0.21114,-4.7661 1.80742,-7.8138 3.45893,-12.13622c2.07656,-5.43488 3.95915,-10.97504 6.16657,-16.41873c0.56711,-1.39854 1.41086,-2.71021 1.72325,-4.18668c0.2934,-1.38668 -0.34521,-2.89411 0.06216,-4.25169c0.41496,-1.38286 1.54174,-2.44153 2.3126,-3.66229c0,0 1.38675,-2.08013 3.46688,-0.69338c2.08013,1.38675 0.69338,3.46688 0.69338,3.46688c-0.56247,0.77924 -1.43945,1.40922 -1.6874,2.33771c-0.3224,1.2073 0.32832,2.52737 0.06216,3.74831c-0.38857,1.78246 -1.32038,3.40137 -1.99065,5.09809c-2.13911,5.4149 -4.06098,10.90557 -6.11953,16.29651c-0.5885,1.54116 -1.67491,2.8664 -2.21878,4.42388c-1.06829,3.0593 -1.42722,6.32552 -2.32229,9.43991l-5.1973,1.69421c0,0 -2.42536,0.60634 -3.0317,-1.81902z" fill="#000000" stroke-width="0.5"/></g></g></svg>